<svg xmlns="http://www.w3.org/2000/svg" viewBox="0 0 929.91 180.29"><defs><style>.cls-2{fill:#3fc1f2}.cls-3{fill:#beeafa}.cls-4{fill:#7fd5f6}.cls-5{fill:#3568b1}.cls-6{fill:#00adee}.cls-7{fill:#fdfdfd}.cls-8{fill:#fefefe}</style></defs><g id="Layer_2" data-name="Layer 2"><g id="Layer_1-2" data-name="Layer 1"><path d="M379.13 179c.44 0 .88.06 1.31.06h122.47l62.62.06c.47 0 1-.05 1.43-.07a4 4 0 0 0 1.42.09h59.88a6.85 6.85 0 0 1 1.43.05c.48 0 1 .06 1.43.06h61.23a4.24 4.24 0 0 0 1.42.08h97.05c.44 0 1-.39 1.35.3H731.57c-21.16 0-42.32-.06-63.47.06-20.92.12-41.84 0-62.75.08s-41.68.05-62.52.06H479a3.84 3.84 0 0 1-1.31.07H292.48a2.82 2.82 0 0 0-1.41.12h-144c-.25-1.23.29-1.47 1.46-1.47 13.72.05 27.44 0 41.16 0h63.12L315 179c.48 0 1 0 1.44-.07a4 4 0 0 0 1.42.09h59.84a6.85 6.85 0 0 1 1.43-.02z" fill="#01aeee"/><path class="cls-2" d="M291.07 180.29c.27-.35.65-.23 1-.23H353.73c.06 0 .08.1 0 .15a.1.1 0 0 1-.07.06z"/><path class="cls-3" d="M416.36 180.09H479a1.34 1.34 0 0 0 0 .2h-62.65c-.08 0-.11-.1-.08-.14a.12.12 0 0 1 .09-.06z"/><path class="cls-4" d="M416.36 180.09a1.34 1.34 0 0 0 0 .2h-62.65a1.49 1.49 0 0 1 0-.21h36.84c8.62-.03 17.22 0 25.81.01z"/><path class="cls-5" d="M172.78 159.17h-23.16c-1.73 0-1.73 0-1.73-1.68V58.16A22.09 22.09 0 0 1 151.78 45 20.1 20.1 0 0 1 165 36.81c1.36-.25 2.76-.38 4.14-.57.58-.18 1.19.06 1.77-.16a2.37 2.37 0 0 0 1.24 0c.49.2 1 0 1.52.15a22.56 22.56 0 0 1 13.11 5.3 19.21 19.21 0 0 1 6.07 10.38c1.42 6.11 2.7 12.25 4 18.38 1.56 7.21 3.09 14.43 4.66 21.63q2.56 11.74 5.18 23.47c.42 1.91.82 3.84 1.3 6a16.09 16.09 0 0 0 1.23-4.28c1.2-4.78 2.3-9.58 3.45-14.38 1.79-7.43 3.6-14.85 5.38-22.28 1.28-5.32 2.52-10.64 3.78-16q1.51-6.35 3-12.68a19.15 19.15 0 0 1 10-13.25 24.55 24.55 0 0 1 9.35-2.37 38 38 0 0 1 4.53 0c4.3.42 8.44 1.36 12.06 3.84a19.55 19.55 0 0 1 8.6 13.8c.06.39.19.77.28 1.15s-.06.85.18 1.23v101.68c0 1-.21 1.26-1.23 1.26h-23.5a2.71 2.71 0 0 1-.12-1.41V75.18A2.43 2.43 0 0 0 245 74h-.09a.6.6 0 0 0-.11.06c-1 3.73-2 7.47-2.94 11.21q-4.63 17.8-9.27 35.61c-1.73 6.68-3.39 13.38-5.14 20.05-1.06 4-1.88 8.09-3.83 11.8-2.22 4.21-5.31 7.39-10 8.71-.81.22-1.64.33-2.46.49a25 25 0 0 1-4.06 0 14.43 14.43 0 0 1-7.69-2.72 16.74 16.74 0 0 1-4.51-5c-2.35-3.79-3.23-8.09-4.33-12.32-1.67-6.41-3.28-12.84-4.92-19.27q-3.81-15-7.63-30c-1.52-5.93-3.07-11.85-4.6-17.78-.08-.34-.15-.68-.23-1a.28.28 0 0 0-.3.29V157.84a4 4 0 0 1-.11 1.33zM736 161.86a14.17 14.17 0 0 1-10.1-4.82 23 23 0 0 1-5-9.93c-1.51-6-3.12-11.94-4.65-17.92-1.75-6.83-3.45-13.68-5.2-20.51-1.66-6.5-3.38-13-5-19.48q-2-7.6-3.91-15.2a.26.26 0 0 0-.31.28v83.49a4 4 0 0 1-.08 1.42h-23.63c-1.13 0-1.35-.33-1.35-1.39V58.75v-1.32c.27-.54 0-1.15.18-1.7A21 21 0 0 1 681 44.64a20.31 20.31 0 0 1 13-7.84c1.36-.25 2.74-.38 4.11-.57a38 38 0 0 1 4.53 0 23.61 23.61 0 0 1 10.72 3.5 19.46 19.46 0 0 1 8.51 12.55q3.66 16.88 7.38 33.74l7 31.9a32.21 32.21 0 0 0 .9 3.73c1.74-7.22 3.5-14.17 5.09-21.16 1.28-5.64 2.67-11.24 4-16.87 1.17-5 2.4-10 3.6-15q2.13-8.84 4.3-17.64a18.69 18.69 0 0 1 4.86-8.87 19.74 19.74 0 0 1 12-5.58c.67-.08 1.34-.19 2-.28a36.16 36.16 0 0 1 4.77 0c4.45.48 8.7 1.47 12.43 4.13A19.88 19.88 0 0 1 798.43 54c.08.5.2 1 .3 1.51s-.05.85.16 1.24V157.74c0 1.26-.36 1.47-1.51 1.46h-23.27a4 4 0 0 1-.08-1.42V75.34c0-.43.4-1-.31-1.33-1 4-2.12 7.91-3.15 11.87q-4.05 15.56-8.09 31.12-3.4 13.16-6.78 26.33a41.31 41.31 0 0 1-3.55 10c-2.71 4.91-6.65 8-12.32 8.61a25.5 25.5 0 0 1-3.83-.08zM306.17 37.79c1.72 3.5 3.42 7 5.17 10.49 2.9 5.76 5.84 11.51 8.76 17.26l8.26 16.32c.13.26.19.61.65.77l24.71-44.84c.34-.33.76-.17 1.14-.17h105.91a2.07 2.07 0 0 1 1.18.12v25.94a3.4 3.4 0 0 1-1.31.08h-23.48a2.47 2.47 0 0 0-1.29.12 3.5 3.5 0 0 0-.11 1.54v92.24c0 1.3-.38 1.54-1.58 1.53q-11.52-.07-23 0c-1.2 0-1.58-.23-1.57-1.52q.06-46.12 0-92.24c0-.52-.05-1-.08-1.55a2.47 2.47 0 0 0-1.29-.12h-23.36c-1.28 0-1.29 0-1.29-1.3V39.57c0-.36.32-.89-.3-1.12-1.52 2.69-3.08 5.35-4.57 8-4.74 8.63-9.44 17.28-14.18 25.91-4.21 7.67-8.44 15.31-12.65 23-2.9 5.26-5.77 10.55-8.66 15.82a3.56 3.56 0 0 0-.34 1.84v44.75c0 1.06-.22 1.4-1.35 1.39h-23.63c-.94 0-1.19-.23-1.18-1.17 0-14.64 0-29.28.07-43.91a9.34 9.34 0 0 0-1.63-4.7c-2.14-3.93-4.33-7.82-6.48-11.74s-4.34-8.09-6.55-12.12c-3-5.5-6.07-11-9.08-16.48-2.11-3.85-4.16-7.74-6.26-11.6-2.77-5.1-5.57-10.19-8.35-15.28l-2.3-4.16c.07-.5.47-.34.75-.34h28.74c.2-.04.36-.05.53.13zM497.79 111.41a13.9 13.9 0 0 0-.11 3.22v11.87c.06 3.3 1.95 5.78 4.78 6.43a5.22 5.22 0 0 0 1.19.11h47c.29.26.17.6.17.91v24.43a1.27 1.27 0 0 1-.12.81h-54c-.53-.29-1.14 0-1.68-.19a31.74 31.74 0 0 1-11.36-2.76 19.33 19.33 0 0 1-9.27-8.68 25.5 25.5 0 0 1-2.71-9.26c-.2-.46.09-1-.19-1.44V61c.28-.46 0-1 .18-1.44a25.42 25.42 0 0 1 4.13-12.33 20.71 20.71 0 0 1 14.38-9c1.45-.24 2.91-.38 4.36-.56a4.35 4.35 0 0 1 1.08-.05h53.85c1.33 0 1.33 0 1.33 1.36v23.51c0 1.28 0 1.28-1.3 1.28h-45.1a2.87 2.87 0 0 0-1.3.1 6.27 6.27 0 0 0-5.4 5.93c-.21 5.07-.17 10.14 0 15.21a2.82 2.82 0 0 0 1.41.12h50.36c1.34 0 1.34 0 1.34 1.36V110c0 1.29 0 1.29-1.3 1.29h-50.43a2.37 2.37 0 0 0-1.29.12zM870.9 153.19v3c0 1.78-.44 2.3-2.18 2.61a3.28 3.28 0 0 1-.83.05h-34.53a3.39 3.39 0 0 1-.84-.05 7.43 7.43 0 0 0-.81-.09c-1.31 0-1.61-.84-1.66-1.91a46 46 0 0 1 0-5.25c-.14-1.88 1-2.62 2.59-3.11a9.42 9.42 0 0 0 4.34-2.21 3 3 0 0 0 .85-2.14v-74.6c0-1-.23-1.11-1.14-.79a35.49 35.49 0 0 1-9.73 2 2.57 2.57 0 0 1-1.17 0 1.85 1.85 0 0 1-2-1.75 35 35 0 0 1 0-5 2.84 2.84 0 0 1 1.9-2.61 54 54 0 0 0 11-6.31 50.51 50.51 0 0 0 5.9-4.85 85.75 85.75 0 0 0 9.54-11c.82-1.11 1.78-2.11 2.65-3.18a3.25 3.25 0 0 1 2-1.19c.39-.17.85.06 1.23-.17h6.24c.66 0 1 .18.89.87a7.69 7.69 0 0 0 0 1v107.71a3.91 3.91 0 0 0 2.51 4c1.56.72 2.92 1.65 3.14 3.57.11.42-.16.94.11 1.4zM891.08 158.74c-2.28-.27-2.36-.34-2.4-2.7v-5a2.48 2.48 0 0 1 1.88-2.37c1.8-.61 3.7-1 5.06-2.54a2 2 0 0 0 .69-1.07 2.51 2.51 0 0 0 .12-1.3V69.78a2.47 2.47 0 0 0-.12-1.29 68.41 68.41 0 0 1-8.35 2c-.74.09-1.48.13-2.22.2a3.24 3.24 0 0 1-1.42 0 1.84 1.84 0 0 1-1.88-2.08v-4.79a2.59 2.59 0 0 1 1.1-1.87 5.27 5.27 0 0 1 1.32-.81c10.37-4.51 18.43-11.8 25.14-20.74 1-1.34 2.16-2.58 3.15-3.93a4.45 4.45 0 0 1 3.85-1.81h5.88c.6 0 .91.15.84.8v108.86A3.78 3.78 0 0 0 926 148c.43.22.85.45 1.27.68a3.89 3.89 0 0 1 2.2 3.46c.05 1.35.16 2.71.17 4.07 0 1.69-.37 2.13-2.06 2.54a2.4 2.4 0 0 1-.84.07h-34.83a2.32 2.32 0 0 1-.83-.08zM1.32 96.31a68.94 68.94 0 0 1 .87-9.64 60.17 60.17 0 0 1 12-27.08 54.71 54.71 0 0 1 4.36-5 59.41 59.41 0 0 1 15.61-11.4c.89-.44 1.19-.28 1.53.55a105.39 105.39 0 0 1 5.53 17.77A123.13 123.13 0 0 1 43.3 73.7c.38 3.12.58 6.27.86 9.4.16.5 0 1 .16 1.54v11.78c-.21.5 0 1-.17 1.54a98.62 98.62 0 0 1-11.62 40.84 73 73 0 0 1-4.42 7.2c-1.25 1.8-1.1 1.34-2.41.36a59.7 59.7 0 0 1-7.55-6.83A63.2 63.2 0 0 1 6.4 122 61.68 61.68 0 0 1 2 107.43c-.38-2.17-.44-4.4-.65-6.59a42.78 42.78 0 0 1-.03-4.53z"/><path class="cls-6" d="M92.36.53a129.84 129.84 0 0 1 20 39.07 106.78 106.78 0 0 1 4.5 20.4c.3 2.66.54 5.31.74 8 .17.59-.06 1.2.16 1.78a50.55 50.55 0 0 0 0 6c-.21.57 0 1.18-.15 1.77a105.11 105.11 0 0 1-3.88 23.07 108.93 108.93 0 0 1-9.6 22.82 128.56 128.56 0 0 1-14.48 20.68 141.59 141.59 0 0 1-13.07 13.65 1.9 1.9 0 0 1-1.06.45 75.5 75.5 0 0 1-10.07 1 38 38 0 0 1-4.53 0 36.21 36.21 0 0 1-8.5-1.11c2.62-1.65 4.86-3.48 7.17-5.22 1.62-1.22 3.16-2.57 4.68-3.92 3.14-2.81 6.26-5.64 9.16-8.7 1.6-1.69 3.12-3.47 4.72-5.16 2.06-2.18 3.87-4.56 5.74-6.89a114.12 114.12 0 0 0 7.15-10 117.49 117.49 0 0 0 8.57-15.85 120.58 120.58 0 0 0 4.57-12A93.42 93.42 0 0 0 107 79c.67-3.6 1.12-7.25 1.45-10.91a5.47 5.47 0 0 0 0-.7c.19-.42 0-.88.17-1.3a90.1 90.1 0 0 0 0-10.65A109.11 109.11 0 0 0 106 36.28a133.58 133.58 0 0 0-4-13.57A161.16 161.16 0 0 0 92.12 1c-.19-.31-.12-.49.24-.47z"/><path class="cls-6" d="M69.76 70.23v9.4c-.2.49 0 1-.15 1.53a127.36 127.36 0 0 1-2.46 18.64 101.3 101.3 0 0 1-15.66 36.57 104.78 104.78 0 0 1-10.81 13.18C29.58 161.1 16.5 169.8 2.1 176.63a.27.27 0 0 1-.22-.36c2.59-1.68 5.27-3.23 7.79-5s5.17-3.82 7.7-5.82a118.06 118.06 0 0 0 11.85-11.17 85.71 85.71 0 0 0 7.7-9.38A97.89 97.89 0 0 0 48 125.49a99.7 99.7 0 0 0 6.28-20.74q.87-4.8 1.35-9.63a20.7 20.7 0 0 0 .28-4.72c.21-.58 0-1.19.15-1.77.11-2.41.1-4.82 0-7.23-.18-.58 0-1.2-.16-1.78a36.6 36.6 0 0 0-.29-5.44c-.1-1.71-.42-3.4-.62-5.11-.46-3.95-1.2-7.86-2-11.76-.93-4.41-2.18-8.74-3.42-13.07-.5-1.74-1.19-3.43-1.79-5.15-.19-.58-.3-.94.58-1.19a46.48 46.48 0 0 1 14.56-1.6 1.25 1.25 0 0 1 1.33 1.06 122.47 122.47 0 0 1 3.59 15.23 143.17 143.17 0 0 1 1.76 15.87c.18.54-.06 1.2.16 1.77z"/><path class="cls-5" d="M78.94 67.14a56.56 56.56 0 0 0-.76-8.32c-.39-2.61-.79-5.22-1.34-7.81C76 46.83 75 42.7 73.67 38.62c-.34-1.07-.12-1.31 1-1.08a61.25 61.25 0 0 1 10 2.79A69.07 69.07 0 0 1 96 45.91c1.29.78 1.26 1.88 1.37 3 .15 1.63.21 3.26.31 4.89.13 2.31.09 4.62 0 6.94-.22 3.89-.49 7.78-1 11.65A124.83 124.83 0 0 1 93.33 89a110.9 110.9 0 0 1-8.44 21.63 110.79 110.79 0 0 1-12.34 18.8 117.84 117.84 0 0 1-26.46 23.91h-.12c-.38 0-.34-.13-.15-.35 1.86-1.72 3.45-3.7 5.15-5.57 2.33-2.57 4.41-5.33 6.48-8.11a110.59 110.59 0 0 0 8.78-14 109.65 109.65 0 0 0 7.77-18.4 103.79 103.79 0 0 0 4-17.59c.39-2.92.76-5.83.89-8.77.22-.49 0-1 .17-1.53a98.26 98.26 0 0 0 0-10.58c-.06-.44.06-.88-.12-1.3zM124.08 102.52a62.27 62.27 0 0 1-7 24.5 61.18 61.18 0 0 1-13.88 17.19 90.45 90.45 0 0 1-7.58 5.8c-.36.25-.72.65-1.36.42.86-1.09 1.66-2.14 2.51-3.15a132.09 132.09 0 0 0 8.68-12 138.39 138.39 0 0 0 8.92-15.67 99.54 99.54 0 0 0 6.27-16.37 74.84 74.84 0 0 0 2.27-11.2c.12-1 .16-2 .24-2.94.3-.15-.23-.78.42-.72a79.7 79.7 0 0 1 .72 12.83c-.24.44-.06.89-.21 1.31z"/><path class="cls-2" d="M792.17 179.78c-.43-.34-.93-.18-1.39-.18h-96.93c-.5 0-1 .18-1.5-.19h125.28a2.62 2.62 0 0 0 1.3.11h35.72c.2 0 .27.13.2.32h-61.57c-.4-.03-.75-.05-1.11-.06z"/><path class="cls-7" d="M497.79 111.41c.4-.28.85-.13 1.28-.13h50c2 0 1.68.25 1.68-1.74V86.38c0-1-.27-1.18-1.2-1.18h-50.51c-.45 0-1 .22-1.35-.19h51.68C551 85 551 85 551 86.56v23.38c0 1.27-.39 1.5-1.55 1.5q-25.82-.06-51.66-.03zM503.16 63.87a3.11 3.11 0 0 1 1.42-.11h44.85c1.1 0 1.39-.29 1.38-1.39q-.07-11.69 0-23.38c0-1.16-.38-1.34-1.41-1.34H494.59c.4-.31.85-.17 1.28-.17h53.64c1.26 0 1.5.38 1.49 1.55v23.64c0 .75 0 1.27-1 1.26q-23.44-.06-46.84-.06zM462 37.74H355.32c-.52 0-1 .06-1.55.09.35-.51.88-.29 1.32-.29h105.5c.41-.04.97-.23 1.41.2zM244.8 74l.25-.89h.14v84.51c0 .52 0 1 .05 1.56-.45-.43-.24-1-.24-1.48V75.51c0-.51.15-1.05-.2-1.51zM172.78 159.17c0-.51.06-1 .06-1.55V73.46c0-.25.11-.27.24-.09s.06.22.08.34c-.34.47-.17 1-.17 1.51v82.41c.01.54.17 1.09-.21 1.54zM701.74 159.17c0-.47.06-.95.06-1.43V73.32a.68.68 0 0 1 .33.66c-.35.47-.18 1-.18 1.51v82.18c-.01.5.17 1.05-.21 1.5zM773.74 74a.75.75 0 0 1 .35-.73v84.37c0 .52 0 1 .07 1.55-.39-.45-.2-1-.2-1.5V75.5c-.02-.5.16-1.06-.22-1.5zM896.35 68.49c.39.31.19.74.19 1.11v74.15a1.91 1.91 0 0 1-.2 1.28zM854.83 179.56h-35.97c-.42 0-.88.13-1.27-.18h61.89c.35 0 .73-.09 1 .2-.27.26-.61.15-.91.15h-24a1.21 1.21 0 0 1-.74-.17z"/><path class="cls-4" d="M854.83 179.56H917.45c.09 0 .12.09.09.14a.12.12 0 0 1-.09.06h-62.64c.01-.05.01-.13.02-.2z"/><path class="cls-7" d="M379.13 179h-61.22c-.5 0-1 .16-1.51-.17h61.34c.46.03.96-.12 1.39.17zM629.69 179.27h-61.22c-.5 0-1 .16-1.51-.17h61.34c.46 0 .96-.1 1.39.17zM383.27 38.46c0-.17.22-.34.27-.19a3.71 3.71 0 0 1 .07 1.06v23.11c0 1.05.26 1.34 1.32 1.34 7.79-.05 15.58 0 23.36 0 .42 0 .88-.15 1.28.13h-24.7c-1.12 0-1.4-.31-1.4-1.41.05-7.55 0-15.11 0-22.66-.01-.45.15-.95-.2-1.38zM597.16 133.25c.27-.24.6-.13.91-.13H633c.31 0 .65-.11.92.13zM891.08 158.74h36.46c-.39.33-.85.19-1.27.19h-33.92c-.43 0-.89.14-1.27-.19zM832.52 158.76h36.21c-.35.28-.77.17-1.15.17h-33.9c-.39 0-.81.07-1.16-.17zM306.17 37.79c-.43 0-.87-.09-1.3-.09h-27.4c-.44 0-1-.24-1.32.25-.15-.19-.16-.39.11-.43a6.17 6.17 0 0 1 1 0h27.64c.4-.02.93-.24 1.27.27zM550.74 159.17v-24.48c0-.55-.06-1.11-.09-1.67.48.31.29.8.29 1.21v23.7c.06.42.21.89-.2 1.24zM435.87 63.89c.4-.28.85-.13 1.28-.13h23.37c.48 0 1 0 1.43-.07-.41.37-.92.2-1.38.21z"/><path class="cls-3" d="M917.45 179.79a.67.67 0 0 0 0-.2h12.46v.2z"/><path class="cls-8" d="M97.69 60.76v-6.94a26.43 26.43 0 0 1 0 6.94z"/><path class="cls-7" d="M830.05 151.51v5.25a15.42 15.42 0 0 1 0-5.25zM823.82 63.9v5a13 13 0 0 1 0-5zM777.77 36.23H773a12.35 12.35 0 0 1 4.77 0zM248.81 36.23h-4.53a11.7 11.7 0 0 1 4.53 0zM702.65 36.23h-4.53a11.51 11.51 0 0 1 4.53 0z"/><path class="cls-8" d="M60.92 159.23h4.53a11.9 11.9 0 0 1-4.53 0zM1.32 96.31v4.53a11.9 11.9 0 0 1 0-4.53z"/><path class="cls-7" d="M207.08 161.86h4.06a8.84 8.84 0 0 1-4.06 0zM736 161.86h3.81a8.31 8.31 0 0 1-3.81 0z"/><path class="cls-6" d="M1.88 176.27l.22.36-1.18.55c-.25.1-.3 0-.24-.24a2.91 2.91 0 0 1 1.2-.67z"/><path d="M45.82 153l.15.35c-.2.42-.59.54-1.17.82.2-.7.49-1.04 1.02-1.17z" fill="#6c91c6"/><path d="M123.52 88.41c-.36.11-.16.55-.42.72a3.85 3.85 0 0 1 0-1.51c.57.08.45.46.42.79z" fill="#c7d5e9"/><path d="M92.36.53c-.2.09-.23.27-.24.46a1.42 1.42 0 0 1-.5-1c.48-.07.57.29.74.54z" fill="#28baf1"/><path class="cls-8" d="M56.05 88.63a3.56 3.56 0 0 1-.15 1.77c.03-.59-.21-1.21.15-1.77zM55.9 79.62c.32.57.12 1.19.16 1.78-.37-.56-.13-1.18-.16-1.78zM117.61 77.56a3.55 3.55 0 0 1 .15-1.77c-.03.59.24 1.21-.15 1.77zM117.76 69.76a3.71 3.71 0 0 1-.16-1.76c.4.55.12 1.17.16 1.76z"/><path class="cls-7" d="M495.08 159a4 4 0 0 1 1.68.19c-.56-.09-1.15.16-1.68-.19zM676.94 55.74a4.63 4.63 0 0 1-.18 1.7c.06-.57-.19-1.16.18-1.7z"/><path class="cls-8" d="M69.76 70.23a3.79 3.79 0 0 1-.16-1.77c.4.54.12 1.18.16 1.77zM170.93 36.08a3.8 3.8 0 0 1-1.77.16c.56-.37 1.18-.12 1.77-.16z"/><path d="M.68 176.94l.24.24c-.26.24-.51.48-.92.32 0-.5.52-.3.68-.56z" fill="#29baf1"/><path class="cls-8" d="M44.32 84.64a2.89 2.89 0 0 1-.16-1.54c.35.48.13 1.02.16 1.54zM44.15 98c0-.51-.15-1 .17-1.54-.03.48.2 1.02-.17 1.54zM69.61 81.16a2.66 2.66 0 0 1 .15-1.53c-.02.51.18 1.04-.15 1.53z"/><path class="cls-7" d="M884.36 70.66h1.42a1.25 1.25 0 0 1-1.42 0zM471.55 136.84a3.08 3.08 0 0 1 .19 1.44c-.36-.44-.13-.96-.19-1.44zM870.9 153.19a3.22 3.22 0 0 1-.17-1.44c.33.44.12.96.17 1.44z"/><path class="cls-8" d="M79.1 79a2.86 2.86 0 0 1-.17 1.53c.07-.53-.19-1.03.17-1.53z"/><path class="cls-7" d="M471.73 59.59a3.09 3.09 0 0 1-.18 1.44c.06-.49-.16-1.03.18-1.44z"/><path class="cls-8" d="M173.69 36.23a2.73 2.73 0 0 1-1.52-.15c.51.02 1.04-.18 1.52.15zM124.08 102.52a2.16 2.16 0 0 1 .16-1.28c-.02.43.17.89-.16 1.28zM78.94 67.14c.28.41.15.86.15 1.3-.32-.44-.09-.86-.15-1.3zM108.62 66.06a2.09 2.09 0 0 1-.17 1.3c.02-.44-.16-.9.17-1.3z"/><path class="cls-7" d="M618.89 36.71a2.31 2.31 0 0 1-1.22-.16c.41.02.85-.15 1.22.16zM798.89 56.75a2.51 2.51 0 0 1-.16-1.24c.27.38.14.83.16 1.24zM269.93 56.25a2.47 2.47 0 0 1-.18-1.23c.34.37.15.82.18 1.23zM613.64 36.54a2.25 2.25 0 0 1-1.2.17c.37-.31.8-.13 1.2-.17zM858 34.63a2.86 2.86 0 0 1-1.23.18c.36-.34.81-.15 1.23-.18zM825.8 70.67h1.2a1 1 0 0 1-1.2 0z"/><path class="cls-5" d="M669.37 158.66q-3.11-9.94-6.23-19.88Q657.56 121 652 103.32c-3-9.6-6-19.2-9.1-28.78-2.64-8.23-4.95-16.56-7.95-24.66a20.74 20.74 0 0 0-6.23-9 20.25 20.25 0 0 0-9.82-4.19c-.39-.15-.84.07-1.22-.16h-4c-.37.25-.81 0-1.2.17a25.42 25.42 0 0 0-5.42 1.3 17.81 17.81 0 0 0-6.4 4.43 20.83 20.83 0 0 0-3.94 5.71 49.26 49.26 0 0 0-2.56 7.17c-1.31 4.58-2.83 9.1-4.27 13.64q-2 6.38-4 12.75-2.46 7.65-4.89 15.3-2.36 7.47-4.68 15c-1.4 4.47-2.79 8.94-4.2 13.41-1.59 5-3.21 10.05-4.8 15.08-1.37 4.32-2.72 8.65-4.09 13-.59 1.9-1.2 3.79-1.82 5.74h26.64c.73 0 .92-.33 1.11-.92q2.85-9.15 5.76-18.3a63.77 63.77 0 0 1 2.24-6.72c.28-.21.61-.12.92-.12H633c.31 0 .64-.09.93.12q1.83 5.82 3.67 11.63c1.38 4.43 2.77 8.86 4.12 13.3.22.72.48 1 1.34 1H669.51c-.05-.22-.09-.42-.14-.56zm-44.22-50.37h-19.08c-.89 0-1.14-.09-.9-1.09q4.3-18.8 8.53-37.6h.25q6.05 19.25 12.13 38.5c-.31.31-.64.19-.93.19z"/></g></g></svg>