<svg height="512pt" viewBox="0 0 512 512" width="512pt" xmlns="http://www.w3.org/2000/svg" xmlns:xlink="http://www.w3.org/1999/xlink"><linearGradient id="b" gradientUnits="userSpaceOnUse" x1="116.472" x2="485.395" y1="-12.805" y2="697.936"><stop offset="0" stop-color="#fffcf8"/><stop offset=".188" stop-color="#faf8f6"/><stop offset=".404" stop-color="#eceef2"/><stop offset=".635" stop-color="#d5dcea"/><stop offset=".875" stop-color="#b5c4df"/><stop offset="1" stop-color="#a1b5d8"/></linearGradient><linearGradient id="a"><stop offset="0" stop-color="#a1b5d8" stop-opacity="0"/><stop offset=".309" stop-color="#90a2bd" stop-opacity=".31"/><stop offset=".755" stop-color="#7c8b9c" stop-opacity=".757"/><stop offset="1" stop-color="#748290"/></linearGradient><linearGradient id="c" gradientUnits="userSpaceOnUse" x1="196.373" x2="-671.016" xlink:href="#a" y1="222.46" y2="-265.446"/><linearGradient id="d" gradientUnits="userSpaceOnUse" x1="256" x2="256" xlink:href="#a" y1="451.966" y2="531.774"/><linearGradient id="e" gradientUnits="userSpaceOnUse" x1="423.506" x2="72.256" xlink:href="#a" y1="422.915" y2="71.665"/><linearGradient id="f" gradientUnits="userSpaceOnUse" x1="236.636" x2="283.656" y1="199.891" y2="336.8"><stop offset="0" stop-color="#e52d27"/><stop offset="1" stop-color="#b31217"/></linearGradient><path d="M420.422 503.234c-109.504 11.688-219.34 11.688-328.844 0-43.664-4.66-78.152-39.148-82.812-82.816-11.688-109.504-11.688-219.336 0-328.84 4.66-43.664 39.148-78.152 82.812-82.812 109.504-11.688 219.336-11.688 328.84 0 43.668 4.66 78.156 39.148 82.816 82.812 11.688 109.504 11.688 219.336 0 328.84-4.66 43.668-39.144 78.156-82.812 82.816zm0 0" fill="url(#b)"/><path d="M475.387 110.098c-4.133-38.746-34.735-69.352-73.485-73.489-97.172-10.367-194.632-10.367-291.804 0-38.746 4.137-69.352 34.743-73.489 73.489-10.367 97.172-10.367 194.632 0 291.8 4.137 38.75 34.743 69.356 73.489 73.489 97.172 10.37 194.632 10.37 291.8 0 38.75-4.133 69.356-34.739 73.489-73.489 10.37-97.168 10.37-194.628 0-291.8zm0 0" fill="url(#c)"/><path d="M7.672 409.805c.351 3.539.715 7.078 1.094 10.617 4.66 43.664 39.148 78.152 82.816 82.812 109.504 11.688 219.336 11.688 328.84 0 43.668-4.66 78.152-39.148 82.812-82.812.38-3.54.743-7.078 1.098-10.617zm0 0" fill="url(#d)"/><path d="M420.422 503.234c43.668-4.66 78.152-39.148 82.812-82.816a1548.409 1548.409 0 0 0 8.63-143.785l-111.22-111.215c-5.71-7.078-10.874-7.734-21.578-9.824-8.671-1.696-17.543-2.852-26.367-3.2-28.215-1.113-56.449-2.171-84.683-2.44-41.457-.395-82.922-.259-124.215 4.538-17.805 2.067-36.625 16.031-38.645 35.067-1.035 9.78-2.832 19.507-3.39 29.312-2.043 35.707-2.47 71.395 2.523 106.961 1.672 11.91 3.512 17.36 11.54 24l162.01 162.012c47.552-.676 95.098-3.543 142.583-8.61zm0 0" fill="url(#e)"/><path d="M264.773 366.203c-41.328-1.387-73.316-2.176-105.265-3.7-9.75-.468-19.785-1.792-29.02-4.792-16.996-5.516-26.691-17.945-29.21-35.895-4.993-35.566-4.567-71.253-2.524-106.96.562-9.805 2.36-19.532 3.394-29.313 2.012-19.035 20.836-33.004 38.641-35.066 41.297-4.797 82.758-4.934 124.219-4.54 28.234.27 56.465 1.329 84.68 2.442 8.824.348 17.695 1.508 26.367 3.2 19.11 3.73 30.164 15.683 33.53 34.882 4.556 25.977 5.747 52.203 4.79 78.441-.723 19.86-2.77 39.688-4.828 59.47-2.274 21.831-21.176 34.76-38.2 35.882-38.581 2.543-77.206 4.348-106.574 5.95zm0 0" fill="url(#f)"/><path d="M225.8 304.3c26.68-16.378 52.708-32.366 79.516-48.827-26.753-16.442-52.777-32.434-79.515-48.864zm0 0" fill="#fff"/></svg>