<svg xmlns="http://www.w3.org/2000/svg" viewBox="0 0 120 120" width="120" height="120">
	<defs>
		<clipPath clipPathUnits="userSpaceOnUse" id="cp1">
			<path d="M0,120h120v-120h-120z" />
		</clipPath>
		<radialGradient id="grd1" gradientUnits="userSpaceOnUse"  cx="33.125" cy="29.645" r="92.758">
			<stop offset="0.038" stop-color="#d8d9dd"  />
			<stop offset="0.554" stop-color="#edeef0"  />
			<stop offset="1" stop-color="#f7f7f8"  />
		</radialGradient>
		<radialGradient id="grd2" gradientUnits="userSpaceOnUse"  cx="-29.852" cy="-41.452" r="38.388">
			<stop offset="0" stop-color="#828282"  />
			<stop offset="0.301" stop-color="#838384" stop-opacity="0.98" />
			<stop offset="0.469" stop-color="#8a8a8a" stop-opacity="0.92" />
			<stop offset="0.604" stop-color="#959696" stop-opacity="0.81" />
			<stop offset="0.721" stop-color="#a6a6a7" stop-opacity="0.66" />
			<stop offset="0.828" stop-color="#bbbbbc" stop-opacity="0.47" />
			<stop offset="0.924" stop-color="#d4d5d6" stop-opacity="0.23" />
			<stop offset="1" stop-color="#edeef0" stop-opacity="0" />
		</radialGradient>
		<radialGradient id="grd3" gradientUnits="userSpaceOnUse"  cx="39.53" cy="36.942" r="70.796">
			<stop offset="0" stop-color="#f7f7f8"  />
			<stop offset="0.505" stop-color="#fafafb"  />
			<stop offset="0.715" stop-color="#ffffff"  />
		</radialGradient>
		<clipPath clipPathUnits="userSpaceOnUse" id="cp2">
			<path d="M44,76h32v-32h-32z" />
		</clipPath>
		<linearGradient id="grd4" gradientUnits="userSpaceOnUse"  x1="49.827" y1="50.146" x2="49.827" y2="74.541">
			<stop offset="0" stop-color="#1959a1"  />
			<stop offset="0.574" stop-color="#2c817f"  />
			<stop offset="1" stop-color="#56db31"  />
		</linearGradient>
		<linearGradient id="grd5" gradientUnits="userSpaceOnUse"  x1="59.937" y1="44.001" x2="59.937" y2="76.006">
			<stop offset="0" stop-color="#1959a1"  />
			<stop offset="0.574" stop-color="#2c817f"  />
			<stop offset="1" stop-color="#56db31"  />
		</linearGradient>
		<linearGradient id="grd6" gradientUnits="userSpaceOnUse"  x1="70.709" y1="50.383" x2="70.709" y2="73.796">
			<stop offset="0" stop-color="#1959a1"  />
			<stop offset="0.574" stop-color="#2c817f"  />
			<stop offset="1" stop-color="#56db31"  />
		</linearGradient>
	</defs>
	<style>
		tspan { white-space:pre }
		.shp0 { fill: #ffffff } 
		.shp1 { fill: url(#grd1) } 
		.shp2 { fill: url(#grd2) } 
		.shp3 { fill: url(#grd3) } 
		.shp4 { fill: #edeef0 } 
		.shp5 { fill: #dfe0e3 } 
		.shp6 { fill: url(#grd4) } 
		.shp7 { fill: url(#grd5) } 
		.shp8 { fill: url(#grd6) } 
	</style>
	<g id="Clip-Path: Artboard_2" clip-path="url(#cp1)">
		<g id="Artboard_2">
			<g id="Group_24482">
				<g id="Layer">
					<path id="Rectangle_3523-2" class="shp0" d="M20,60v0c0,22.12 17.88,40 40,40v0c22.12,0 40,-17.88 40,-40v0c0,-22.12 -17.88,-40 -40,-40v0c-22.12,0 -40,17.88 -40,40z" />
				</g>
				<g id="Group_24476">
					<path id="Path_35878" class="shp1" d="M91.67,59.55c-0.01,-14.08 -9.21,-26.51 -22.68,-30.63c-13.47,-4.12 -28.05,1.03 -35.94,12.7c-7.89,11.67 -7.24,27.12 1.6,38.08c8.84,10.96 23.8,14.87 36.88,9.63c2.96,-1.18 5.73,-2.79 8.21,-4.79c2.48,-2 4.65,-4.36 6.44,-7c1.79,-2.64 3.17,-5.53 4.09,-8.58c0.93,-3.05 1.4,-6.22 1.39,-9.41z" />
					<path id="Path_35879" class="shp2" d="M42,76.57l14.94,14.94c0.88,0.07 1.77,0.11 2.67,0.11c4.21,0 8.38,-0.83 12.27,-2.44c3.89,-1.61 7.42,-3.97 10.4,-6.95c2.98,-2.98 5.34,-6.51 6.95,-10.4c1.61,-3.89 2.44,-8.06 2.44,-12.27c0,-0.51 -0.01,-1.01 -0.04,-1.52l-10.88,-10.88z" />
					<g id="Group_24473">
						<path id="Path_35880" class="shp0" d="M82.32,50.29c-1.23,-2.97 -3.03,-5.67 -5.31,-7.94c-2.27,-2.27 -4.97,-4.08 -7.94,-5.31c-2.97,-1.23 -6.15,-1.87 -9.37,-1.87c-9.9,0 -18.83,5.96 -22.62,15.11c-3.79,9.15 -1.7,19.67 5.3,26.68c7,7 17.53,9.1 26.67,5.31c9.15,-3.79 15.11,-12.71 15.12,-22.61c0,-3.22 -0.63,-6.4 -1.86,-9.37z" />
					</g>
					<path id="Path_35881" class="shp3" d="M84.07,59.55c-0.05,-11.63 -8.3,-21.6 -19.71,-23.84c-11.41,-2.23 -22.81,3.9 -27.24,14.65c-4.43,10.75 -0.65,23.13 9.02,29.58c9.67,6.45 22.56,5.17 30.78,-3.05c1.13,-1.14 2.15,-2.38 3.04,-3.72c0.89,-1.34 1.65,-2.76 2.26,-4.24c0.61,-1.48 1.08,-3.03 1.38,-4.6c0.31,-1.58 0.46,-3.18 0.46,-4.78z" />
					<g id="Group_24474">
						<path id="Path_35882" class="shp4" d="M81.71,48.92c2.46,5.52 2.79,11.76 0.92,17.51c-1.87,5.75 -5.79,10.61 -11.03,13.64c-5.23,3.03 -11.4,4.01 -17.32,2.77c-5.92,-1.25 -11.16,-4.64 -14.72,-9.52c3.46,5.12 8.73,8.73 14.75,10.11c6.02,1.38 12.34,0.43 17.69,-2.66c5.35,-3.09 9.32,-8.1 11.12,-14.01c1.8,-5.91 1.3,-12.28 -1.42,-17.83z" />
					</g>
					<g id="Group_24475">
						<path id="Path_35883" class="shp4" d="M60.02,21.69c18.28,-0.01 34.02,12.9 37.59,30.83c3.57,17.93 -6.02,35.89 -22.91,42.88c-16.89,7 -36.37,1.09 -46.53,-14.11c-10.16,-15.2 -8.16,-35.46 4.76,-48.39c1.77,-1.77 3.72,-3.37 5.8,-4.76c2.09,-1.39 4.3,-2.58 6.62,-3.54c2.32,-0.96 4.72,-1.69 7.19,-2.18c2.46,-0.49 4.96,-0.74 7.47,-0.74zM23.05,44.68c-6.2,14.95 -2.78,32.15 8.66,43.6c11.44,11.44 28.64,14.87 43.59,8.68c14.95,-6.19 24.7,-20.78 24.7,-36.96c0,-5.25 -1.03,-10.45 -3.04,-15.3c-2.01,-4.85 -4.95,-9.26 -8.67,-12.98c-3.71,-3.71 -8.12,-6.66 -12.97,-8.67c-4.85,-2.01 -10.05,-3.05 -15.3,-3.05c-16.18,-0.01 -30.77,9.73 -36.97,24.68z" />
						<path id="Path_35884" class="shp5" d="M20,59.88h1.47c-0.01,-5.05 0.98,-10.04 2.91,-14.7c1.93,-4.66 4.76,-8.9 8.32,-12.47c3.57,-3.57 7.8,-6.4 12.46,-8.33c4.66,-1.93 9.66,-2.92 14.7,-2.91l0,-1.47c-5.24,-0.01 -10.43,1.02 -15.27,3.03c-4.84,2 -9.24,4.94 -12.94,8.65c-3.7,3.7 -6.64,8.1 -8.64,12.94c-2,4.84 -3.03,10.03 -3.02,15.27z" />
					</g>
					<path id="Path_35885" class="shp5" d="M59.7,20v1.47c5.09,-0.04 10.14,0.93 14.85,2.86c4.71,1.93 8.99,4.78 12.59,8.38c3.6,3.6 6.45,7.88 8.37,12.59c1.93,4.71 2.9,9.76 2.85,14.85h1.47c0.04,-5.28 -0.96,-10.52 -2.97,-15.41c-2,-4.89 -4.96,-9.33 -8.69,-13.07c-3.74,-3.74 -8.18,-6.69 -13.07,-8.7c-4.89,-2 -10.13,-3.01 -15.41,-2.97z" />
				</g>
				<g id="Clip-Path: gloriouse_league" clip-path="url(#cp2)">
					<g id="gloriouse_league">
						<g id="uefa-europa-league">
							<g id="Group_210">
								<g id="Group_209">
									<path id="Path_96" class="shp6" d="M54.02,73.33c-1.98,-0.97 -3.68,-2.42 -4.97,-4.2c-1.28,-1.79 -2.1,-3.87 -2.39,-6.05c-0.28,-2.18 -0.03,-4.4 0.76,-6.46c0.78,-2.06 2.06,-3.89 3.72,-5.34c0.13,-0.11 0.21,-0.27 0.23,-0.44c0.01,-0.17 -0.04,-0.34 -0.16,-0.47c-0.11,-0.13 -0.27,-0.21 -0.45,-0.22c-0.17,-0.01 -0.34,0.05 -0.47,0.17c-1.82,1.58 -3.22,3.59 -4.07,5.85c-0.85,2.25 -1.14,4.69 -0.83,7.08c0.31,2.39 1.21,4.67 2.61,6.63c1.4,1.96 3.27,3.54 5.44,4.61c0.02,0.01 0.04,0.02 0.07,0.03c0.02,0.01 0.05,0.02 0.07,0.02c0.02,0.01 0.05,0.01 0.07,0.01c0.02,0 0.05,0 0.07,0c0.14,0 0.28,-0.05 0.39,-0.14c0.11,-0.09 0.19,-0.21 0.22,-0.35c0.03,-0.14 0.02,-0.29 -0.04,-0.42c-0.06,-0.13 -0.16,-0.24 -0.29,-0.3z" />
									<path id="Path_97" class="shp7" d="M65.43,74.26c0.01,0.01 0.01,0.03 0.02,0.04c0,0.01 0.01,0.03 0.01,0.05c0,0.02 0.01,0.03 0.01,0.05c0,0.02 0,0.03 0.01,0.05c0,0.01 0,0.02 0,0.02c0,0.01 0,0.02 0,0.02c0,0.01 0,0.02 0,0.02c0,0.01 0,0.02 0,0.02c0,0.01 0,0.03 0,0.04c0,0.01 0,0.03 0,0.04c0,0.01 0,0.03 -0.01,0.04c0,0.01 -0.01,0.02 -0.01,0.04c0,0 0,0 0,0.01c0,0.01 -0.01,0.01 -0.01,0.02c0,0.01 -0.01,0.01 -0.01,0.02c0,0.01 -0.01,0.01 -0.01,0.02c0,0.01 -0.01,0.01 -0.01,0.02c-0.01,0.01 -0.01,0.03 -0.02,0.04c-0.01,0.01 -0.01,0.03 -0.02,0.04c-0.01,0.01 -0.02,0.02 -0.02,0.04c-0.01,0.01 -0.02,0.02 -0.03,0.03c-0.01,0.01 -0.03,0.02 -0.04,0.03c-0.01,0.01 -0.02,0.02 -0.04,0.04c-0.01,0.01 -0.03,0.02 -0.04,0.03c-0.01,0.01 -0.03,0.02 -0.04,0.03c-0.01,0.01 -0.03,0.02 -0.04,0.03c-0.07,0.03 -0.14,0.06 -0.21,0.09c-0.01,0 -0.02,0 -0.03,0.01c-0.01,0 -0.02,0 -0.03,0.01c-0.01,0 -0.02,0 -0.03,0c-0.01,0 -0.02,0 -0.03,0c-0.33,0.13 -0.67,0.24 -1.01,0.34c-0.34,0.1 -0.69,0.18 -1.04,0.25c-0.35,0.07 -0.7,0.12 -1.06,0.15c-0.35,0.03 -0.71,0.05 -1.07,0.05l-0.19,0.01c-0.16,0.01 -0.31,0.02 -0.47,0.02c-0.28,0 -0.57,-0.01 -0.85,-0.03c-0.28,-0.02 -0.57,-0.04 -0.85,-0.08c-0.28,-0.03 -0.56,-0.08 -0.84,-0.13c-0.28,-0.05 -0.56,-0.11 -0.83,-0.17c-0.08,-0.02 -0.16,-0.06 -0.23,-0.11c-0.07,-0.05 -0.13,-0.12 -0.17,-0.19c-0.04,-0.07 -0.07,-0.16 -0.08,-0.24c-0.01,-0.09 0,-0.17 0.02,-0.26c0.98,-3.39 1.22,-10.78 0.22,-14.24c-1.74,-4.45 -3.09,-8.7 -3.86,-11.26c-0.32,-1.12 -0.49,-1.7 -0.51,-1.79c-0.02,-0.08 -0.03,-0.17 -0.02,-0.25c0.01,-0.08 0.03,-0.17 0.07,-0.24c0.04,-0.07 0.09,-0.14 0.16,-0.2c0.07,-0.05 0.14,-0.1 0.22,-0.12l8.01,-2.68c0.01,0 0.03,0 0.04,0c0.02,0 0.04,-0.01 0.06,-0.01c0.02,0 0.04,-0.01 0.06,-0.01c0.02,0 0.04,0 0.06,0c0.02,0 0.04,0 0.06,0c0.01,0 0.02,0 0.03,0c0.01,0 0.02,0 0.03,0c0.01,0 0.02,0 0.02,0c0.01,0 0.02,0 0.02,0.01c0.01,0 0.01,0 0.02,0c0.01,0 0.01,0 0.02,0c0.01,0 0.01,0 0.02,0c0.01,0 0.01,0 0.02,0l6.67,2.67c0.09,0.04 0.17,0.09 0.24,0.16c0.07,0.07 0.12,0.16 0.15,0.25c0.03,0.09 0.04,0.19 0.03,0.29c-0.01,0.1 -0.04,0.19 -0.09,0.27c-0.08,0.14 -8.37,13.8 -2.44,26.48v0.01l0.01,0.02c0.01,0.02 0.01,0.05 0.01,0.07zM61.08,47.39c-0.06,1.31 -0.09,2.62 -0.08,3.93c0.01,1.31 0.05,2.62 0.12,3.93c0.07,1.31 0.18,2.62 0.32,3.92c0.14,1.3 0.32,2.6 0.53,3.9c0.08,-1.34 0.23,-2.68 0.45,-4.01c0.22,-1.33 0.52,-2.64 0.88,-3.93c0.36,-1.29 0.8,-2.57 1.3,-3.82c0.5,-1.25 1.07,-2.47 1.71,-3.65l-5.13,-2.05c-0.03,0.45 -0.07,1.04 -0.11,1.77zM59.94,74.73c-0.06,-0.79 -0.13,-1.57 -0.23,-2.35c-0.1,-0.78 -0.22,-1.56 -0.37,-2.34c-0.14,-0.78 -0.31,-1.55 -0.5,-2.31c-0.19,-0.77 -0.4,-1.53 -0.63,-2.28c0.03,0.76 0.04,1.52 0.02,2.27c-0.01,0.76 -0.05,1.52 -0.11,2.27c-0.06,0.76 -0.14,1.51 -0.25,2.26c-0.1,0.75 -0.23,1.5 -0.38,2.24c0.2,0.04 0.4,0.07 0.61,0.1c0.2,0.03 0.41,0.05 0.61,0.07c0.2,0.02 0.41,0.03 0.61,0.04c0.2,0.01 0.41,0.02 0.61,0.02zM58.68,62.82c0.27,0.65 0.55,1.29 0.83,1.93c0.29,0.64 0.59,1.27 0.9,1.9c0.31,0.63 0.63,1.25 0.96,1.87c0.33,0.62 0.67,1.23 1.02,1.84c-2.77,-8.23 -2.87,-17.64 -2.64,-23.03c0.03,-0.69 0.07,-1.27 0.1,-1.71l-6.44,2.15c0.08,0.29 0.19,0.69 0.33,1.16c0.75,2.51 2.07,6.66 3.76,11.01c0.44,0.99 0.83,1.95 1.18,2.9zM61.21,74.67c0.19,-0.01 0.38,-0.03 0.57,-0.05c0.19,-0.02 0.38,-0.05 0.56,-0.08c0.19,-0.03 0.37,-0.07 0.56,-0.11c0.19,-0.04 0.37,-0.09 0.55,-0.14c-0.27,-0.35 -0.53,-0.7 -0.78,-1.06c-0.25,-0.36 -0.5,-0.72 -0.74,-1.09c-0.24,-0.37 -0.47,-0.74 -0.69,-1.12c-0.22,-0.38 -0.44,-0.76 -0.65,-1.14c0.08,0.4 0.15,0.79 0.21,1.19c0.06,0.4 0.12,0.8 0.17,1.19c0.05,0.4 0.1,0.8 0.14,1.2c0.04,0.4 0.07,0.8 0.1,1.2z" />
									<path id="Path_98" class="shp8" d="M69.83,50.55c-0.12,-0.11 -0.29,-0.17 -0.46,-0.17c-0.17,0.01 -0.33,0.08 -0.44,0.21c-0.11,0.12 -0.17,0.29 -0.17,0.46c0.01,0.17 0.08,0.33 0.21,0.44c1.52,1.38 2.69,3.1 3.44,5.01c0.75,1.91 1.04,3.97 0.86,6.01c-0.18,2.04 -0.82,4.02 -1.89,5.77c-1.06,1.75 -2.52,3.24 -4.25,4.34c-0.15,0.09 -0.25,0.23 -0.29,0.4c-0.04,0.17 -0.01,0.34 0.08,0.49c0.09,0.14 0.24,0.24 0.41,0.28c0.17,0.03 0.34,0 0.48,-0.09c1.9,-1.21 3.49,-2.83 4.65,-4.75c1.17,-1.92 1.87,-4.08 2.07,-6.32c0.19,-2.24 -0.13,-4.49 -0.95,-6.58c-0.82,-2.09 -2.1,-3.97 -3.76,-5.48z" />
								</g>
							</g>
						</g>
					</g>
				</g>
			</g>
		</g>
	</g>
</svg>