<svg xmlns="http://www.w3.org/2000/svg" viewBox="0 0 85 85" width="85" height="85">
	<defs>
		<clipPath clipPathUnits="userSpaceOnUse" id="cp1">
			<path d="M0,85h85v-85h-85z" />
		</clipPath>
		<linearGradient id="grd1" gradientUnits="userSpaceOnUse"  x1="83" y1="42.003" x2="3" y2="42.003">
			<stop offset="0" stop-color="#1959a1"  />
			<stop offset="0.574" stop-color="#2c817f"  />
			<stop offset="1" stop-color="#56db31"  />
		</linearGradient>
	</defs>
	<style>
		tspan { white-space:pre }
		.shp0 { fill: url(#grd1) } 
	</style>
	<g id="Clip-Path: Artboard_18" clip-path="url(#cp1)">
		<g id="Artboard_18">
			<path id="curve-arrow" class="shp0" d="M83,59.52c0,-0.82 -0.16,-1.64 -0.48,-2.4c-0.31,-0.76 -0.78,-1.45 -1.36,-2.03c-0.58,-0.58 -1.27,-1.04 -2.03,-1.36c-0.76,-0.32 -1.57,-0.48 -2.4,-0.48h-14.36c0.01,-3.36 -0.31,-6.71 -0.96,-10c-0.65,-3.29 -1.63,-6.52 -2.91,-9.62c-1.29,-3.1 -2.87,-6.07 -4.74,-8.86c-1.87,-2.79 -4.01,-5.39 -6.39,-7.76c-2.37,-2.38 -4.97,-4.52 -7.76,-6.39c-2.79,-1.87 -5.76,-3.46 -8.86,-4.74c-3.1,-1.28 -6.33,-2.26 -9.62,-2.91c-3.29,-0.65 -6.65,-0.97 -10,-0.96h-5c-0.83,0 -1.62,0.33 -2.21,0.92c-0.59,0.59 -0.92,1.38 -0.92,2.21c0,0.83 0.33,1.62 0.92,2.21c0.59,0.59 1.38,0.92 2.21,0.92h5c5.91,0.01 11.76,1.18 17.21,3.44c5.46,2.26 10.41,5.58 14.59,9.76c4.18,4.18 7.49,9.14 9.76,14.59c2.26,5.46 3.43,11.31 3.44,17.21c0,0.82 0.16,1.63 0.48,2.39c0.31,0.76 0.77,1.45 1.35,2.03c0.58,0.58 1.27,1.04 2.03,1.36c0.76,0.31 1.57,0.48 2.39,0.48h14.37l0.01,0.02l-0.01,0.01l-15.27,15.31c-0.29,0.29 -0.64,0.52 -1.02,0.68c-0.38,0.16 -0.79,0.24 -1.2,0.24c-0.41,0 -0.82,-0.08 -1.2,-0.24c-0.38,-0.16 -0.73,-0.39 -1.02,-0.68l-15.28,-15.31l-0.01,-0.01l0.01,-0.02h3.43c0.83,0 1.62,-0.33 2.21,-0.92c0.59,-0.59 0.92,-1.38 0.92,-2.21c0,-0.83 -0.33,-1.62 -0.92,-2.21c-0.59,-0.59 -1.38,-0.92 -2.21,-0.92h-3.43c-1.24,0 -2.45,0.37 -3.48,1.06c-1.03,0.69 -1.83,1.67 -2.3,2.81c-0.47,1.14 -0.6,2.4 -0.36,3.62c0.24,1.21 0.84,2.33 1.71,3.21l15.28,15.31c0.87,0.87 1.91,1.57 3.05,2.04c1.14,0.47 2.36,0.72 3.59,0.72c1.23,0 2.45,-0.24 3.59,-0.72c1.14,-0.47 2.17,-1.17 3.05,-2.04l15.27,-15.31c0.29,-0.29 0.55,-0.61 0.78,-0.95c0.23,-0.34 0.42,-0.7 0.58,-1.08c0.16,-0.38 0.28,-0.77 0.36,-1.17c0.08,-0.4 0.12,-0.81 0.12,-1.22z" />
		</g>
	</g>
</svg>