<svg xmlns="http://www.w3.org/2000/svg" viewBox="0 0 85 85" width="85" height="85">
	<defs>
		<clipPath clipPathUnits="userSpaceOnUse" id="cp1">
			<path d="M0,85h85v-85h-85z" />
		</clipPath>
		<linearGradient id="grd1" gradientUnits="userSpaceOnUse"  x1="83" y1="42" x2="3" y2="42">
			<stop offset="0" stop-color="#1959a1"  />
			<stop offset="0.574" stop-color="#2c817f"  />
			<stop offset="1" stop-color="#56db31"  />
		</linearGradient>
	</defs>
	<style>
		tspan { white-space:pre }
		.shp0 { fill: url(#grd1) } 
	</style>
	<g id="Clip-Path: Artboard_20" clip-path="url(#cp1)">
		<g id="Artboard_20">
			<path id="curve-arrow" class="shp0" d="M83,24.48c0,-0.41 -0.04,-0.82 -0.12,-1.22c-0.08,-0.4 -0.2,-0.79 -0.36,-1.17c-0.16,-0.38 -0.35,-0.74 -0.58,-1.08c-0.23,-0.34 -0.49,-0.66 -0.78,-0.95l-15.27,-15.31c-0.87,-0.87 -1.91,-1.57 -3.05,-2.04c-1.14,-0.47 -2.36,-0.72 -3.59,-0.72c-1.23,0 -2.45,0.24 -3.59,0.72c-1.14,0.47 -2.17,1.17 -3.05,2.04l-15.27,15.31c-0.87,0.88 -1.47,1.99 -1.71,3.21c-0.24,1.21 -0.12,2.47 0.36,3.62c0.47,1.14 1.28,2.12 2.3,2.81c1.03,0.69 2.24,1.06 3.48,1.06h3.42c0.83,0 1.62,-0.33 2.21,-0.92c0.59,-0.59 0.92,-1.38 0.92,-2.21c0,-0.83 -0.33,-1.62 -0.92,-2.21c-0.59,-0.59 -1.38,-0.92 -2.21,-0.92h-3.43l-0.01,-0.02l0.01,-0.01l15.27,-15.31c0.29,-0.29 0.64,-0.52 1.02,-0.68c0.38,-0.16 0.79,-0.24 1.2,-0.24c0.41,0 0.82,0.08 1.2,0.24c0.38,0.16 0.73,0.39 1.02,0.68l15.27,15.31l0.01,0.01l-0.01,0.02l-14.37,0c-0.82,0 -1.63,0.16 -2.39,0.48c-0.76,0.31 -1.45,0.77 -2.03,1.36c-0.58,0.58 -1.04,1.27 -1.35,2.03c-0.31,0.76 -0.48,1.57 -0.48,2.39c-0.01,5.91 -1.18,11.76 -3.44,17.21c-2.26,5.46 -5.58,10.41 -9.76,14.59c-4.18,4.18 -9.14,7.49 -14.59,9.76c-5.46,2.26 -11.31,3.43 -17.21,3.44h-5c-0.83,0 -1.62,0.33 -2.21,0.92c-0.59,0.59 -0.92,1.38 -0.92,2.21c0,0.83 0.33,1.62 0.92,2.21c0.59,0.59 1.38,0.92 2.21,0.92h5c6.73,0 13.39,-1.33 19.61,-3.9c6.22,-2.58 11.87,-6.35 16.63,-11.11c4.76,-4.76 8.53,-10.41 11.11,-16.63c2.58,-6.22 3.9,-12.88 3.9,-19.61h14.36c0.82,0 1.64,-0.16 2.4,-0.48c0.76,-0.32 1.45,-0.78 2.03,-1.36c0.58,-0.58 1.04,-1.27 1.36,-2.03c0.31,-0.76 0.48,-1.57 0.48,-2.4z" />
		</g>
	</g>
</svg>