<svg xmlns="http://www.w3.org/2000/svg" viewBox="0 0 120 120" width="120" height="120">
	<defs>
		<clipPath clipPathUnits="userSpaceOnUse" id="cp1">
			<path d="M0,120h120v-120h-120z" />
		</clipPath>
		<radialGradient id="grd1" gradientUnits="userSpaceOnUse"  cx="33.114" cy="29.873" r="92.758">
			<stop offset="0.038" stop-color="#d8d9dd"  />
			<stop offset="0.554" stop-color="#edeef0"  />
			<stop offset="1" stop-color="#f7f7f8"  />
		</radialGradient>
		<radialGradient id="grd2" gradientUnits="userSpaceOnUse"  cx="-105.561" cy="-125.287" r="38.388">
			<stop offset="0" stop-color="#828282"  />
			<stop offset="0.301" stop-color="#838384" stop-opacity="0.98" />
			<stop offset="0.469" stop-color="#8a8a8a" stop-opacity="0.92" />
			<stop offset="0.604" stop-color="#959696" stop-opacity="0.81" />
			<stop offset="0.721" stop-color="#a6a6a7" stop-opacity="0.66" />
			<stop offset="0.828" stop-color="#bbbbbc" stop-opacity="0.47" />
			<stop offset="0.924" stop-color="#d4d5d6" stop-opacity="0.23" />
			<stop offset="1" stop-color="#edeef0" stop-opacity="0" />
		</radialGradient>
		<radialGradient id="grd3" gradientUnits="userSpaceOnUse"  cx="39.803" cy="37.5" r="70.796">
			<stop offset="0" stop-color="#f7f7f8"  />
			<stop offset="0.505" stop-color="#fafafb"  />
			<stop offset="0.715" stop-color="#ffffff"  />
		</radialGradient>
		<clipPath clipPathUnits="userSpaceOnUse" id="cp2">
			<path d="M45,75h30v-30h-30z" />
		</clipPath>
		<linearGradient id="grd4" gradientUnits="userSpaceOnUse"  x1="60" y1="45" x2="60" y2="75">
			<stop offset="0" stop-color="#1959a1"  />
			<stop offset="0.574" stop-color="#2c817f"  />
			<stop offset="1" stop-color="#56db31"  />
		</linearGradient>
	</defs>
	<style>
		tspan { white-space:pre }
		.shp0 { fill: #ffffff } 
		.shp1 { fill: url(#grd1) } 
		.shp2 { fill: url(#grd2) } 
		.shp3 { fill: url(#grd3) } 
		.shp4 { fill: #edeef0 } 
		.shp5 { fill: #dfe0e3 } 
		.shp6 { fill: url(#grd4) } 
	</style>
	<g id="Clip-Path: Artboard_6" clip-path="url(#cp1)">
		<g id="Artboard_6">
			<g id="Group_24487">
				<g id="Layer">
					<path id="Rectangle_3523-2" class="shp0" d="M20,60v0c0,22.12 17.88,40 40,40v0c22.12,0 40,-17.88 40,-40v0c0,-22.12 -17.88,-40 -40,-40v0c-22.12,0 -40,17.88 -40,40z" />
				</g>
				<g id="Group_24476">
					<path id="Path_35878" class="shp1" d="M91.67,59.55c-0.01,-14.08 -9.21,-26.51 -22.68,-30.63c-13.47,-4.12 -28.05,1.03 -35.94,12.7c-7.89,11.67 -7.24,27.12 1.6,38.08c8.84,10.96 23.8,14.87 36.88,9.63c2.96,-1.18 5.73,-2.79 8.21,-4.79c2.48,-2 4.65,-4.36 6.44,-7c1.79,-2.64 3.17,-5.53 4.09,-8.58c0.93,-3.05 1.4,-6.22 1.39,-9.41z" />
					<path id="Path_35879" class="shp2" d="M42,76.57l14.94,14.94c0.88,0.07 1.77,0.11 2.67,0.11c4.21,0 8.38,-0.83 12.27,-2.44c3.89,-1.61 7.42,-3.97 10.4,-6.95c2.98,-2.98 5.34,-6.51 6.95,-10.4c1.61,-3.89 2.44,-8.06 2.44,-12.27c0,-0.51 -0.01,-1.01 -0.04,-1.52l-10.88,-10.88z" />
					<g id="Group_24473">
						<path id="Path_35880" class="shp0" d="M82.32,50.29c-1.23,-2.97 -3.03,-5.67 -5.31,-7.94c-2.27,-2.27 -4.97,-4.08 -7.94,-5.31c-2.97,-1.23 -6.15,-1.87 -9.37,-1.87c-9.9,0 -18.83,5.96 -22.62,15.11c-3.79,9.15 -1.7,19.67 5.3,26.68c7,7 17.53,9.1 26.67,5.31c9.15,-3.79 15.11,-12.71 15.12,-22.61c0,-3.22 -0.63,-6.4 -1.86,-9.37z" />
					</g>
					<path id="Path_35881" class="shp3" d="M84.07,59.55c-0.05,-11.63 -8.3,-21.6 -19.71,-23.84c-11.41,-2.23 -22.81,3.9 -27.24,14.65c-4.43,10.75 -0.65,23.13 9.02,29.58c9.67,6.45 22.56,5.17 30.78,-3.05c1.13,-1.14 2.15,-2.38 3.04,-3.72c0.89,-1.34 1.65,-2.76 2.26,-4.24c0.61,-1.48 1.08,-3.03 1.38,-4.6c0.31,-1.58 0.46,-3.18 0.46,-4.78z" />
					<g id="Group_24474">
						<path id="Path_35882" class="shp4" d="M81.71,48.92c2.46,5.52 2.79,11.76 0.92,17.51c-1.87,5.75 -5.79,10.61 -11.03,13.64c-5.23,3.03 -11.4,4.01 -17.32,2.77c-5.92,-1.25 -11.16,-4.64 -14.72,-9.52c3.46,5.12 8.73,8.73 14.75,10.11c6.02,1.38 12.34,0.43 17.69,-2.66c5.35,-3.09 9.32,-8.1 11.12,-14.01c1.8,-5.91 1.3,-12.28 -1.42,-17.83z" />
					</g>
					<g id="Group_24475">
						<path id="Path_35883" class="shp4" d="M60.02,21.69c18.28,-0.01 34.02,12.9 37.59,30.83c3.57,17.93 -6.02,35.89 -22.91,42.88c-16.89,7 -36.37,1.09 -46.53,-14.11c-10.16,-15.2 -8.16,-35.46 4.76,-48.39c1.77,-1.77 3.72,-3.37 5.8,-4.76c2.09,-1.39 4.3,-2.58 6.62,-3.54c2.32,-0.96 4.72,-1.69 7.19,-2.18c2.46,-0.49 4.96,-0.74 7.47,-0.74zM23.05,44.68c-6.2,14.95 -2.78,32.15 8.66,43.6c11.44,11.44 28.64,14.87 43.59,8.68c14.95,-6.19 24.7,-20.78 24.7,-36.96c0,-5.25 -1.03,-10.45 -3.04,-15.3c-2.01,-4.85 -4.95,-9.26 -8.67,-12.98c-3.71,-3.71 -8.12,-6.66 -12.97,-8.67c-4.85,-2.01 -10.05,-3.05 -15.3,-3.05c-16.18,-0.01 -30.77,9.73 -36.97,24.68z" />
						<path id="Path_35884" class="shp5" d="M20,59.88h1.47c-0.01,-5.05 0.98,-10.04 2.91,-14.7c1.93,-4.66 4.76,-8.9 8.32,-12.47c3.57,-3.57 7.8,-6.4 12.46,-8.33c4.66,-1.93 9.66,-2.92 14.7,-2.91l0,-1.47c-5.24,-0.01 -10.43,1.02 -15.27,3.03c-4.84,2 -9.24,4.94 -12.94,8.65c-3.7,3.7 -6.64,8.1 -8.64,12.94c-2,4.84 -3.03,10.03 -3.02,15.27z" />
					</g>
					<path id="Path_35885" class="shp5" d="M59.7,20v1.47c5.09,-0.04 10.14,0.93 14.85,2.86c4.71,1.93 8.99,4.78 12.59,8.38c3.6,3.6 6.45,7.88 8.37,12.59c1.93,4.71 2.9,9.76 2.85,14.85h1.47c0.04,-5.28 -0.96,-10.52 -2.97,-15.41c-2,-4.89 -4.96,-9.33 -8.69,-13.07c-3.74,-3.74 -8.18,-6.69 -13.07,-8.7c-4.89,-2 -10.13,-3.01 -15.41,-2.97z" />
				</g>
				<g id="Clip-Path: wallet_transfer_to..." clip-path="url(#cp2)">
					<g id="wallet_transfer_to...">
						<path id="transfer" class="shp6" d="M74.17,59.94c0.26,0.26 0.47,0.57 0.61,0.91c0.14,0.34 0.21,0.71 0.21,1.08c0,0.37 -0.07,0.74 -0.21,1.08c-0.14,0.34 -0.35,0.65 -0.61,0.91l-10.24,10.25c-0.26,0.26 -0.57,0.47 -0.91,0.61c-0.34,0.14 -0.71,0.21 -1.08,0.21c-0.37,0 -0.74,-0.07 -1.08,-0.21c-0.34,-0.14 -0.65,-0.35 -0.91,-0.61l-3.47,-3.47c-0.26,-0.26 -0.47,-0.57 -0.61,-0.91c-0.14,-0.34 -0.21,-0.71 -0.21,-1.08c0,-0.37 0.07,-0.74 0.21,-1.08c0.14,-0.34 0.35,-0.65 0.61,-0.91l0.97,-0.97c-0.35,-0.16 -0.69,-0.35 -1,-0.56c-0.32,-0.22 -0.61,-0.46 -0.88,-0.74c-0.27,-0.27 -0.52,-0.57 -0.74,-0.88c-0.22,-0.32 -0.41,-0.65 -0.56,-1l-0.97,0.97c-0.26,0.26 -0.57,0.47 -0.91,0.61c-0.34,0.14 -0.71,0.21 -1.08,0.21c-0.37,0 -0.74,-0.07 -1.08,-0.21c-0.34,-0.14 -0.65,-0.35 -0.91,-0.61l-3.47,-3.47c-0.26,-0.26 -0.47,-0.57 -0.61,-0.91c-0.14,-0.34 -0.21,-0.71 -0.21,-1.08c0,-0.37 0.07,-0.74 0.21,-1.08c0.14,-0.34 0.35,-0.65 0.61,-0.91l10.24,-10.24c0.26,-0.26 0.57,-0.47 0.91,-0.61c0.34,-0.14 0.71,-0.21 1.08,-0.21c0.37,0 0.74,0.07 1.08,0.21c0.34,0.14 0.65,0.35 0.91,0.61l3.47,3.47c0.26,0.26 0.47,0.57 0.61,0.91c0.14,0.34 0.21,0.71 0.21,1.08c0,0.37 -0.07,0.74 -0.21,1.08c-0.14,0.34 -0.35,0.65 -0.61,0.91l-0.97,0.97c0.35,0.16 0.69,0.35 1,0.56c0.32,0.22 0.61,0.46 0.88,0.74c0.27,0.27 0.52,0.57 0.74,0.88c0.22,0.32 0.41,0.65 0.56,1l0.97,-0.97c0.26,-0.26 0.57,-0.47 0.91,-0.61c0.34,-0.14 0.71,-0.21 1.08,-0.21c0.37,0 0.74,0.07 1.08,0.21c0.34,0.14 0.65,0.35 0.91,0.61zM55.85,47.42l6.09,6.09l0.91,-0.91c0.17,-0.17 0.31,-0.38 0.4,-0.6c0.09,-0.22 0.14,-0.47 0.14,-0.71c0,-0.24 -0.05,-0.48 -0.14,-0.71c-0.09,-0.22 -0.23,-0.43 -0.4,-0.6l-3.47,-3.47c-0.17,-0.17 -0.38,-0.31 -0.6,-0.4c-0.22,-0.09 -0.47,-0.14 -0.71,-0.14c-0.24,0 -0.48,0.05 -0.71,0.14c-0.22,0.09 -0.43,0.23 -0.6,0.4zM53.51,61.94l-6.09,-6.09l-0.91,0.91c-0.17,0.17 -0.31,0.38 -0.4,0.6c-0.09,0.22 -0.14,0.47 -0.14,0.71c0,0.24 0.05,0.48 0.14,0.71c0.09,0.22 0.23,0.43 0.4,0.6l3.47,3.47c0.17,0.17 0.38,0.31 0.6,0.4c0.22,0.09 0.47,0.14 0.71,0.14c0.24,0 0.48,-0.05 0.71,-0.14c0.22,-0.09 0.43,-0.23 0.6,-0.4zM71.9,64.84l-5.67,-5.67c0.02,0.13 0.03,0.26 0.04,0.39c0.01,0.13 0.02,0.26 0.02,0.39c0,0.13 0,0.26 -0.01,0.39c-0.01,0.13 -0.02,0.26 -0.04,0.39l4.12,4.12l-5.52,5.52l-4.12,-4.12c-0.13,0.02 -0.26,0.03 -0.39,0.04c-0.13,0.01 -0.26,0.01 -0.39,0.01c-0.13,0 -0.26,-0.01 -0.39,-0.02c-0.13,-0.01 -0.26,-0.02 -0.39,-0.04l5.66,5.67zM59.37,48.05l1.93,1.93l-0.68,0.69l-1.94,-1.94zM50.46,61.79l-2.9,-2.9l0.68,-0.68l2.9,2.9zM53.77,60.83c-0.02,-0.13 -0.03,-0.26 -0.04,-0.39c-0.01,-0.13 -0.02,-0.26 -0.02,-0.39c0,-0.13 0,-0.26 0.01,-0.39c0.01,-0.13 0.02,-0.26 0.04,-0.39l-4.12,-4.12l5.52,-5.52l4.12,4.12c0.13,-0.02 0.26,-0.03 0.39,-0.04c0.13,-0.01 0.26,-0.01 0.39,-0.01c0.13,0 0.26,0.01 0.39,0.02c0.13,0.01 0.26,0.02 0.39,0.04l-5.67,-5.67l-7.06,7.06zM55.16,51.01l-4.15,4.15l2.98,2.98c0.15,-0.49 0.36,-0.95 0.63,-1.39c0.26,-0.44 0.58,-0.84 0.94,-1.2c0.36,-0.36 0.76,-0.68 1.2,-0.94c0.44,-0.26 0.9,-0.47 1.39,-0.63zM64.92,62.04c0.82,-1.99 0.37,-4.28 -1.15,-5.8c-1.52,-1.52 -3.81,-1.98 -5.8,-1.15c-1.99,0.82 -3.29,2.77 -3.29,4.92c0,0.7 0.14,1.39 0.41,2.04c0.27,0.65 0.66,1.23 1.15,1.73c0.49,0.49 1.08,0.89 1.73,1.15c0.65,0.27 1.34,0.41 2.04,0.41c2.15,0 4.09,-1.3 4.92,-3.29zM64.15,72.58l-6.09,-6.09l-0.91,0.91c-0.17,0.17 -0.31,0.38 -0.4,0.6c-0.09,0.22 -0.14,0.47 -0.14,0.71c0,0.24 0.05,0.48 0.14,0.71c0.09,0.22 0.23,0.43 0.4,0.6l3.47,3.47c0.17,0.17 0.38,0.31 0.6,0.4c0.22,0.09 0.47,0.14 0.71,0.14c0.24,0 0.48,-0.05 0.71,-0.14c0.22,-0.09 0.43,-0.23 0.6,-0.4zM61.86,66.01l2.98,2.98l4.15,-4.15l-2.98,-2.98c-0.15,0.49 -0.36,0.95 -0.63,1.39c-0.26,0.44 -0.58,0.84 -0.94,1.2c-0.36,0.36 -0.76,0.68 -1.2,0.94c-0.44,0.26 -0.9,0.47 -1.39,0.63zM74,61.58c-0.02,-0.12 -0.06,-0.24 -0.11,-0.35c-0.05,-0.11 -0.1,-0.22 -0.17,-0.32c-0.07,-0.1 -0.14,-0.19 -0.23,-0.28l-3.47,-3.47c-0.17,-0.17 -0.38,-0.31 -0.6,-0.4c-0.22,-0.09 -0.47,-0.14 -0.71,-0.14c-0.24,0 -0.48,0.05 -0.71,0.14c-0.22,0.09 -0.43,0.23 -0.6,0.4l-0.91,0.91l6.09,6.09l0.91,-0.91c0.09,-0.09 0.16,-0.18 0.23,-0.28c0.07,-0.1 0.12,-0.21 0.17,-0.32c0.05,-0.11 0.08,-0.23 0.11,-0.35c0.02,-0.12 0.04,-0.24 0.03,-0.36c0,-0.12 -0.01,-0.24 -0.03,-0.36zM61.11,72.44l-2.9,-2.9l0.68,-0.68l2.9,2.9zM70.02,58.69l1.94,1.94l-0.68,0.68l-1.94,-1.94zM50.81,69.19v2.03l4.36,0.97v1.31l-5.21,0.52c-0.02,0 -0.03,0 -0.05,0c-0.02,0 -0.03,0 -0.05,0c-0.02,0 -0.03,0 -0.05,0c-0.02,0 -0.03,0 -0.05,0c-0.24,0 -0.49,-0.05 -0.71,-0.14c-0.23,-0.09 -0.43,-0.23 -0.61,-0.4c-0.17,-0.17 -0.31,-0.38 -0.41,-0.6c-0.09,-0.23 -0.14,-0.47 -0.14,-0.71v-2.97h-1.9l3.36,-4.7l3.36,4.7zM49.84,72v-3.77h1l-1.48,-2.07l-1.48,2.07h1v3.94c0,0.13 0.03,0.25 0.08,0.36c0.05,0.11 0.13,0.22 0.22,0.3c0.09,0.08 0.2,0.15 0.32,0.19c0.12,0.04 0.24,0.05 0.37,0.04l3.27,-0.33zM69.19,48.78l-4.36,-0.97v-1.31l5.21,-0.52c0.26,-0.03 0.52,0 0.77,0.08c0.25,0.08 0.48,0.21 0.67,0.39c0.19,0.17 0.35,0.39 0.45,0.63c0.11,0.24 0.16,0.5 0.16,0.76v2.97h1.9l-3.36,4.7l-3.36,-4.7h1.91zM70.16,48v3.77h-1l1.48,2.07l1.48,-2.07h-1v-3.94c0,-0.13 -0.03,-0.25 -0.08,-0.36c-0.05,-0.11 -0.13,-0.22 -0.22,-0.3c-0.09,-0.08 -0.2,-0.15 -0.32,-0.19c-0.12,-0.04 -0.24,-0.05 -0.37,-0.04l-3.27,0.33zM62.42,61.94c0.06,0 0.13,0.01 0.19,0.04c0.06,0.02 0.11,0.06 0.16,0.11c0.04,0.05 0.08,0.1 0.1,0.16c0.02,0.06 0.04,0.12 0.04,0.19c0,0.2 -0.12,0.37 -0.3,0.45c-0.18,0.07 -0.39,0.03 -0.53,-0.11c-0.14,-0.14 -0.18,-0.35 -0.1,-0.53c0.08,-0.18 0.25,-0.3 0.45,-0.3zM57.58,58.06c-0.06,0 -0.13,-0.01 -0.18,-0.04c-0.06,-0.02 -0.11,-0.06 -0.16,-0.1c-0.04,-0.04 -0.08,-0.1 -0.1,-0.16c-0.02,-0.06 -0.04,-0.12 -0.04,-0.18c0,-0.2 0.12,-0.37 0.3,-0.45c0.18,-0.07 0.39,-0.03 0.53,0.11c0.14,0.14 0.18,0.35 0.1,0.53c-0.08,0.18 -0.25,0.3 -0.45,0.3z" />
					</g>
				</g>
			</g>
		</g>
	</g>
</svg>