<svg xmlns="http://www.w3.org/2000/svg" viewBox="0 0 120 120" width="120" height="120">
	<defs>
		<clipPath clipPathUnits="userSpaceOnUse" id="cp1">
			<path d="M0,120h120v-120h-120z" />
		</clipPath>
		<radialGradient id="grd1" gradientUnits="userSpaceOnUse"  cx="33.118" cy="29.797" r="92.758">
			<stop offset="0.038" stop-color="#d8d9dd"  />
			<stop offset="0.554" stop-color="#edeef0"  />
			<stop offset="1" stop-color="#f7f7f8"  />
		</radialGradient>
		<radialGradient id="grd2" gradientUnits="userSpaceOnUse"  cx="-80.324" cy="-97.342" r="38.388">
			<stop offset="0" stop-color="#828282"  />
			<stop offset="0.301" stop-color="#838384" stop-opacity="0.98" />
			<stop offset="0.469" stop-color="#8a8a8a" stop-opacity="0.92" />
			<stop offset="0.604" stop-color="#959696" stop-opacity="0.81" />
			<stop offset="0.721" stop-color="#a6a6a7" stop-opacity="0.66" />
			<stop offset="0.828" stop-color="#bbbbbc" stop-opacity="0.47" />
			<stop offset="0.924" stop-color="#d4d5d6" stop-opacity="0.23" />
			<stop offset="1" stop-color="#edeef0" stop-opacity="0" />
		</radialGradient>
		<radialGradient id="grd3" gradientUnits="userSpaceOnUse"  cx="39.712" cy="37.314" r="70.796">
			<stop offset="0" stop-color="#f7f7f8"  />
			<stop offset="0.505" stop-color="#fafafb"  />
			<stop offset="0.715" stop-color="#ffffff"  />
		</radialGradient>
		<clipPath clipPathUnits="userSpaceOnUse" id="cp2">
			<path d="M46,74h28v-28h-28z" />
		</clipPath>
		<linearGradient id="grd4" gradientUnits="userSpaceOnUse"  x1="59.926" y1="45.996" x2="59.926" y2="73.999">
			<stop offset="0" stop-color="#1959a1"  />
			<stop offset="0.574" stop-color="#2c817f"  />
			<stop offset="1" stop-color="#56db31"  />
		</linearGradient>
		<linearGradient id="grd5" gradientUnits="userSpaceOnUse"  x1="64.19" y1="50.746" x2="64.19" y2="57.728">
			<stop offset="0" stop-color="#1959a1"  />
			<stop offset="0.574" stop-color="#2c817f"  />
			<stop offset="1" stop-color="#56db31"  />
		</linearGradient>
		<linearGradient id="grd6" gradientUnits="userSpaceOnUse"  x1="60.452" y1="52.952" x2="60.452" y2="65.211">
			<stop offset="0" stop-color="#1959a1"  />
			<stop offset="0.574" stop-color="#2c817f"  />
			<stop offset="1" stop-color="#56db31"  />
		</linearGradient>
		<linearGradient id="grd7" gradientUnits="userSpaceOnUse"  x1="53.635" y1="66.58" x2="53.635" y2="67.405">
			<stop offset="0" stop-color="#1959a1"  />
			<stop offset="0.574" stop-color="#2c817f"  />
			<stop offset="1" stop-color="#56db31"  />
		</linearGradient>
		<linearGradient id="grd8" gradientUnits="userSpaceOnUse"  x1="58.912" y1="66.58" x2="58.912" y2="67.405">
			<stop offset="0" stop-color="#1959a1"  />
			<stop offset="0.574" stop-color="#2c817f"  />
			<stop offset="1" stop-color="#56db31"  />
		</linearGradient>
		<linearGradient id="grd9" gradientUnits="userSpaceOnUse"  x1="54.735" y1="68.778" x2="54.735" y2="69.603">
			<stop offset="0" stop-color="#1959a1"  />
			<stop offset="0.574" stop-color="#2c817f"  />
			<stop offset="1" stop-color="#56db31"  />
		</linearGradient>
		<linearGradient id="grd10" gradientUnits="userSpaceOnUse"  x1="60.013" y1="68.778" x2="60.013" y2="69.603">
			<stop offset="0" stop-color="#1959a1"  />
			<stop offset="0.574" stop-color="#2c817f"  />
			<stop offset="1" stop-color="#56db31"  />
		</linearGradient>
		<linearGradient id="grd11" gradientUnits="userSpaceOnUse"  x1="52.755" y1="70.977" x2="52.755" y2="71.802">
			<stop offset="0" stop-color="#1959a1"  />
			<stop offset="0.574" stop-color="#2c817f"  />
			<stop offset="1" stop-color="#56db31"  />
		</linearGradient>
		<linearGradient id="grd12" gradientUnits="userSpaceOnUse"  x1="58.034" y1="70.977" x2="58.034" y2="71.802">
			<stop offset="0" stop-color="#1959a1"  />
			<stop offset="0.574" stop-color="#2c817f"  />
			<stop offset="1" stop-color="#56db31"  />
		</linearGradient>
	</defs>
	<style>
		tspan { white-space:pre }
		.shp0 { fill: #ffffff } 
		.shp1 { fill: url(#grd1) } 
		.shp2 { fill: url(#grd2) } 
		.shp3 { fill: url(#grd3) } 
		.shp4 { fill: #edeef0 } 
		.shp5 { fill: #dfe0e3 } 
		.shp6 { fill: url(#grd4) } 
		.shp7 { fill: url(#grd5) } 
		.shp8 { fill: url(#grd6) } 
		.shp9 { fill: url(#grd7) } 
		.shp10 { fill: url(#grd8) } 
		.shp11 { fill: url(#grd9) } 
		.shp12 { fill: url(#grd10) } 
		.shp13 { fill: url(#grd11) } 
		.shp14 { fill: url(#grd12) } 
	</style>
	<g id="Clip-Path: Artboard_4" clip-path="url(#cp1)">
		<g id="Artboard_4">
			<g id="Group_24489">
				<g id="Layer">
					<path id="Rectangle_3523-2" class="shp0" d="M20,60v0c0,22.12 17.88,40 40,40v0c22.12,0 40,-17.88 40,-40v0c0,-22.12 -17.88,-40 -40,-40v0c-22.12,0 -40,17.88 -40,40z" />
				</g>
				<g id="Group_24476">
					<path id="Path_35878" class="shp1" d="M91.67,59.55c-0.01,-14.08 -9.21,-26.51 -22.68,-30.63c-13.47,-4.12 -28.05,1.03 -35.94,12.7c-7.89,11.67 -7.24,27.12 1.6,38.08c8.84,10.96 23.8,14.87 36.88,9.63c2.96,-1.18 5.73,-2.79 8.21,-4.79c2.48,-2 4.65,-4.36 6.44,-7c1.79,-2.64 3.17,-5.53 4.09,-8.58c0.93,-3.05 1.4,-6.22 1.39,-9.41z" />
					<path id="Path_35879" class="shp2" d="M42,76.57l14.94,14.94c0.88,0.07 1.77,0.11 2.67,0.11c4.21,0 8.38,-0.83 12.27,-2.44c3.89,-1.61 7.42,-3.97 10.4,-6.95c2.98,-2.98 5.34,-6.51 6.95,-10.4c1.61,-3.89 2.44,-8.06 2.44,-12.27c0,-0.51 -0.01,-1.01 -0.04,-1.52l-10.88,-10.88z" />
					<g id="Group_24473">
						<path id="Path_35880" class="shp0" d="M82.32,50.29c-1.23,-2.97 -3.03,-5.67 -5.31,-7.94c-2.27,-2.27 -4.97,-4.08 -7.94,-5.31c-2.97,-1.23 -6.15,-1.87 -9.37,-1.87c-9.9,0 -18.83,5.96 -22.62,15.11c-3.79,9.15 -1.7,19.67 5.3,26.68c7,7 17.53,9.1 26.67,5.31c9.15,-3.79 15.11,-12.71 15.12,-22.61c0,-3.22 -0.63,-6.4 -1.86,-9.37z" />
					</g>
					<path id="Path_35881" class="shp3" d="M84.07,59.55c-0.05,-11.63 -8.3,-21.6 -19.71,-23.84c-11.41,-2.23 -22.81,3.9 -27.24,14.65c-4.43,10.75 -0.65,23.13 9.02,29.58c9.67,6.45 22.56,5.17 30.78,-3.05c1.13,-1.14 2.15,-2.38 3.04,-3.72c0.89,-1.34 1.65,-2.76 2.26,-4.24c0.61,-1.48 1.08,-3.03 1.38,-4.6c0.31,-1.58 0.46,-3.18 0.46,-4.78z" />
					<g id="Group_24474">
						<path id="Path_35882" class="shp4" d="M81.71,48.92c2.46,5.52 2.79,11.76 0.92,17.51c-1.87,5.75 -5.79,10.61 -11.03,13.64c-5.23,3.03 -11.4,4.01 -17.32,2.77c-5.92,-1.25 -11.16,-4.64 -14.72,-9.52c3.46,5.12 8.73,8.73 14.75,10.11c6.02,1.38 12.34,0.43 17.69,-2.66c5.35,-3.09 9.32,-8.1 11.12,-14.01c1.8,-5.91 1.3,-12.28 -1.42,-17.83z" />
					</g>
					<g id="Group_24475">
						<path id="Path_35883" class="shp4" d="M60.02,21.69c18.28,-0.01 34.02,12.9 37.59,30.83c3.57,17.93 -6.02,35.89 -22.91,42.88c-16.89,7 -36.37,1.09 -46.53,-14.11c-10.16,-15.2 -8.16,-35.46 4.76,-48.39c1.77,-1.77 3.72,-3.37 5.8,-4.76c2.09,-1.39 4.3,-2.58 6.62,-3.54c2.32,-0.96 4.72,-1.69 7.19,-2.18c2.46,-0.49 4.96,-0.74 7.47,-0.74zM23.05,44.68c-6.2,14.95 -2.78,32.15 8.66,43.6c11.44,11.44 28.64,14.87 43.59,8.68c14.95,-6.19 24.7,-20.78 24.7,-36.96c0,-5.25 -1.03,-10.45 -3.04,-15.3c-2.01,-4.85 -4.95,-9.26 -8.67,-12.98c-3.71,-3.71 -8.12,-6.66 -12.97,-8.67c-4.85,-2.01 -10.05,-3.05 -15.3,-3.05c-16.18,-0.01 -30.77,9.73 -36.97,24.68z" />
						<path id="Path_35884" class="shp5" d="M20,59.88h1.47c-0.01,-5.05 0.98,-10.04 2.91,-14.7c1.93,-4.66 4.76,-8.9 8.32,-12.47c3.57,-3.57 7.8,-6.4 12.46,-8.33c4.66,-1.93 9.66,-2.92 14.7,-2.91l0,-1.47c-5.24,-0.01 -10.43,1.02 -15.27,3.03c-4.84,2 -9.24,4.94 -12.94,8.65c-3.7,3.7 -6.64,8.1 -8.64,12.94c-2,4.84 -3.03,10.03 -3.02,15.27z" />
					</g>
					<path id="Path_35885" class="shp5" d="M59.7,20v1.47c5.09,-0.04 10.14,0.93 14.85,2.86c4.71,1.93 8.99,4.78 12.59,8.38c3.6,3.6 6.45,7.88 8.37,12.59c1.93,4.71 2.9,9.76 2.85,14.85h1.47c0.04,-5.28 -0.96,-10.52 -2.97,-15.41c-2,-4.89 -4.96,-9.33 -8.69,-13.07c-3.74,-3.74 -8.18,-6.69 -13.07,-8.7c-4.89,-2 -10.13,-3.01 -15.41,-2.97z" />
				</g>
				<g id="Clip-Path: ground_statstics" clip-path="url(#cp2)">
					<g id="ground_statstics">
						<g id="analysis">
							<g id="Group_2">
								<g id="Group_1">
									<path id="Path_1" class="shp6" d="M73.57,47.9c0.02,0.02 0.03,0.04 0.05,0.07c0.01,0.02 0.02,0.05 0.03,0.07c0.01,0.03 0.01,0.05 0.02,0.08c0,0.03 0,0.05 0,0.08l-2.1,24.54c-0.01,0.05 -0.02,0.11 -0.05,0.15c-0.03,0.05 -0.06,0.09 -0.1,0.13c-0.04,0.03 -0.09,0.06 -0.14,0.08c-0.05,0.02 -0.11,0.02 -0.16,0.02l-0.8,-0.07v0.54c0,0.05 -0.01,0.11 -0.03,0.16c-0.02,0.05 -0.05,0.1 -0.09,0.13c-0.04,0.04 -0.08,0.07 -0.13,0.09c-0.05,0.02 -0.1,0.03 -0.16,0.03h-20.23c-0.04,0 -0.08,-0.01 -0.12,-0.02c-0.04,-0.01 -0.07,-0.03 -0.11,-0.05c-0.03,-0.02 -0.06,-0.05 -0.09,-0.08c-0.03,-0.03 -0.05,-0.07 -0.06,-0.1c-0.01,-0.03 -0.01,-0.05 -0.02,-0.08c0,-0.03 -0.01,-0.05 -0.01,-0.08c0,-0.03 -0.01,-0.05 -0.01,-0.08c0,-0.03 0,-0.05 0,-0.08l-3.07,-24.43c-0.01,-0.05 0,-0.11 0.01,-0.16c0.01,-0.05 0.04,-0.1 0.07,-0.14c0.03,-0.04 0.07,-0.08 0.12,-0.11c0.05,-0.03 0.1,-0.04 0.15,-0.05l6.02,-0.76l0.12,-1.36c0,-0.05 0.02,-0.11 0.05,-0.15c0.03,-0.05 0.06,-0.09 0.1,-0.13c0.04,-0.03 0.09,-0.06 0.14,-0.08c0.05,-0.02 0.11,-0.02 0.16,-0.02l7.77,0.66c0.01,0 0.01,0 0.02,0c0.01,0 0.01,0 0.02,0c0.01,0 0.01,0 0.02,0c0.01,0 0.01,0 0.02,0l5.65,-0.72c0.05,-0.01 0.11,0 0.16,0.01c0.05,0.01 0.1,0.04 0.14,0.07c0.04,0.03 0.08,0.08 0.1,0.12c0.03,0.05 0.04,0.1 0.05,0.15l0.11,0.87l6.09,0.52c0.03,0 0.05,0.01 0.08,0.01c0.03,0.01 0.05,0.02 0.08,0.03c0.02,0.01 0.05,0.03 0.07,0.04c0.02,0.02 0.04,0.04 0.06,0.06zM49.27,49.02l-2.21,0.28l2.21,17.54zM52.99,48.55h13.54l-0.21,-1.68zM53.4,47.66l3.67,-0.46l-3.61,-0.3zM72.8,48.55l-5.51,-0.47l0.06,0.47h2.55c0.05,0 0.11,0.01 0.16,0.03c0.05,0.02 0.1,0.05 0.13,0.09c0.04,0.04 0.07,0.08 0.09,0.13c0.02,0.05 0.03,0.1 0.03,0.16l0,9.29c0,0.11 -0.04,0.21 -0.12,0.29c-0.08,0.08 -0.18,0.12 -0.29,0.12c-0.11,0 -0.21,-0.04 -0.29,-0.12c-0.08,-0.08 -0.12,-0.18 -0.12,-0.29v-8.88h-19.4v23.8h19.4l0,-13c0,-0.11 0.04,-0.21 0.12,-0.29c0.08,-0.08 0.18,-0.12 0.29,-0.12c0.11,0 0.21,0.04 0.29,0.12c0.08,0.08 0.12,0.18 0.12,0.29v12.05l0.46,0.04z" />
								</g>
							</g>
							<g id="Group_4">
								<g id="Group_3">
									<path id="Path_2" class="shp7" d="M67.71,50.75c0.11,0 0.21,0.04 0.29,0.12c0.08,0.08 0.12,0.18 0.12,0.29c0,0.11 -0.04,0.21 -0.12,0.29c-0.08,0.08 -0.18,0.12 -0.29,0.12h-1.98l-0.86,1.29c0.3,0.29 0.58,0.6 0.82,0.94c0.24,0.34 0.44,0.71 0.61,1.09c0.17,0.38 0.29,0.78 0.38,1.19c0.08,0.41 0.13,0.82 0.13,1.24c0,0.05 -0.01,0.11 -0.03,0.16c-0.02,0.05 -0.05,0.1 -0.09,0.13c-0.04,0.04 -0.08,0.07 -0.13,0.09c-0.05,0.02 -0.1,0.03 -0.16,0.03h-5.72c-0.05,0 -0.11,-0.01 -0.16,-0.03c-0.05,-0.02 -0.1,-0.05 -0.13,-0.09c-0.04,-0.04 -0.07,-0.08 -0.09,-0.13c-0.02,-0.05 -0.03,-0.1 -0.03,-0.16v-5.72c0,-0.05 0.01,-0.11 0.03,-0.16c0.02,-0.05 0.05,-0.1 0.09,-0.13c0.04,-0.04 0.08,-0.07 0.13,-0.09c0.05,-0.02 0.1,-0.03 0.16,-0.03c0.32,0 0.63,0.02 0.95,0.07c0.31,0.05 0.62,0.12 0.92,0.22c0.3,0.1 0.6,0.22 0.88,0.36c0.28,0.14 0.55,0.31 0.81,0.49l0.93,-1.4c0.02,-0.03 0.04,-0.05 0.07,-0.08c0.03,-0.02 0.05,-0.04 0.08,-0.06c0.03,-0.02 0.06,-0.03 0.09,-0.04c0.03,-0.01 0.07,-0.01 0.1,-0.01h2.2zM65.96,56.9c-0.02,-0.31 -0.08,-0.62 -0.16,-0.93c-0.08,-0.3 -0.19,-0.6 -0.32,-0.89c-0.13,-0.29 -0.29,-0.56 -0.47,-0.82c-0.18,-0.26 -0.38,-0.5 -0.61,-0.72l-0.32,0.47c-0.06,0.09 -0.15,0.15 -0.26,0.18c-0.11,0.02 -0.22,0 -0.31,-0.06c-0.09,-0.06 -0.15,-0.15 -0.18,-0.26c-0.02,-0.11 0,-0.22 0.06,-0.31l0.37,-0.55c-0.2,-0.14 -0.4,-0.27 -0.62,-0.38c-0.21,-0.11 -0.43,-0.21 -0.66,-0.3c-0.23,-0.08 -0.46,-0.15 -0.7,-0.2c-0.24,-0.05 -0.48,-0.09 -0.72,-0.11v4.88z" />
								</g>
							</g>
							<g id="Group_6">
								<g id="Group_5">
									<path id="Path_3" class="shp8" d="M67.71,64.39c0.11,0 0.21,0.04 0.29,0.12c0.08,0.08 0.12,0.18 0.12,0.29c0,0.11 -0.04,0.21 -0.12,0.29c-0.08,0.08 -0.18,0.12 -0.29,0.12h-3.96c-0.03,0 -0.07,0 -0.1,-0.01c-0.03,-0.01 -0.07,-0.02 -0.1,-0.04c-0.03,-0.02 -0.06,-0.04 -0.08,-0.06c-0.03,-0.02 -0.05,-0.05 -0.07,-0.08l-0.7,-1.12c-1.56,1.23 -3.61,1.62 -5.52,1.07c-1.9,-0.56 -3.42,-2 -4.07,-3.88c-0.65,-1.87 -0.35,-3.95 0.8,-5.56c1.15,-1.62 3.01,-2.57 4.99,-2.57c0.05,0 0.11,0.01 0.16,0.03c0.05,0.02 0.1,0.05 0.13,0.09c0.04,0.04 0.07,0.08 0.09,0.13c0.02,0.05 0.03,0.1 0.03,0.16v5.3l5.3,0c0.05,0 0.11,0.01 0.16,0.03c0.05,0.02 0.1,0.05 0.13,0.09c0.04,0.04 0.07,0.08 0.09,0.13c0.02,0.05 0.03,0.1 0.03,0.16c0,0.39 -0.04,0.78 -0.11,1.17c-0.07,0.39 -0.19,0.76 -0.33,1.13c-0.15,0.36 -0.33,0.71 -0.54,1.04c-0.21,0.33 -0.46,0.64 -0.73,0.92l0.66,1.05h3.73zM62.87,62.6c0.19,-0.21 0.37,-0.44 0.52,-0.69c0.15,-0.24 0.29,-0.5 0.4,-0.76c0.11,-0.26 0.2,-0.54 0.27,-0.82c0.07,-0.28 0.11,-0.56 0.14,-0.85l-5.29,0c-0.05,0 -0.11,-0.01 -0.16,-0.03c-0.05,-0.02 -0.1,-0.05 -0.13,-0.09c-0.04,-0.04 -0.07,-0.08 -0.09,-0.13c-0.02,-0.05 -0.03,-0.1 -0.03,-0.16v-5.29c-1.68,0.13 -3.19,1.06 -4.08,2.49c-0.89,1.43 -1.04,3.2 -0.42,4.76c0.63,1.56 1.96,2.74 3.59,3.16c1.63,0.42 3.36,0.05 4.67,-1.01l-1.06,-1.69c-0.06,-0.09 -0.08,-0.2 -0.05,-0.31c0.02,-0.11 0.09,-0.2 0.18,-0.26c0.09,-0.06 0.2,-0.08 0.31,-0.05c0.11,0.02 0.2,0.09 0.26,0.18z" />
								</g>
							</g>
							<g id="Group_8">
								<g id="Group_7">
									<path id="Path_4" class="shp9" d="M55.39,66.58h-3.52c-0.11,0 -0.21,0.04 -0.29,0.12c-0.08,0.08 -0.12,0.18 -0.12,0.29c0,0.11 0.04,0.21 0.12,0.29c0.08,0.08 0.18,0.12 0.29,0.12l3.52,0c0.11,0 0.21,-0.04 0.29,-0.12c0.08,-0.08 0.12,-0.18 0.12,-0.29c0,-0.11 -0.04,-0.21 -0.12,-0.29c-0.08,-0.08 -0.18,-0.12 -0.29,-0.12z" />
								</g>
							</g>
							<g id="Group_10">
								<g id="Group_9">
									<path id="Path_5" class="shp10" d="M60.67,66.58h-3.52c-0.11,0 -0.21,0.04 -0.29,0.12c-0.08,0.08 -0.12,0.18 -0.12,0.29c0,0.11 0.04,0.21 0.12,0.29c0.08,0.08 0.18,0.12 0.29,0.12l3.52,0c0.11,0 0.21,-0.04 0.29,-0.12c0.08,-0.08 0.12,-0.18 0.12,-0.29c0,-0.11 -0.04,-0.21 -0.12,-0.29c-0.08,-0.08 -0.18,-0.12 -0.29,-0.12z" />
								</g>
							</g>
							<g id="Group_12">
								<g id="Group_11">
									<path id="Path_6" class="shp11" d="M57.59,68.78h-5.72c-0.11,0 -0.21,0.04 -0.29,0.12c-0.08,0.08 -0.12,0.18 -0.12,0.29c0,0.11 0.04,0.21 0.12,0.29c0.08,0.08 0.18,0.12 0.29,0.12l5.72,0c0.11,0 0.21,-0.04 0.29,-0.12c0.08,-0.08 0.12,-0.18 0.12,-0.29c0,-0.11 -0.04,-0.21 -0.12,-0.29c-0.08,-0.08 -0.18,-0.12 -0.29,-0.12z" />
								</g>
							</g>
							<g id="Group_14">
								<g id="Group_13">
									<path id="Path_7" class="shp12" d="M60.67,68.78h-1.32c-0.11,0 -0.21,0.04 -0.29,0.12c-0.08,0.08 -0.12,0.18 -0.12,0.29c0,0.11 0.04,0.21 0.12,0.29c0.08,0.08 0.18,0.12 0.29,0.12l1.32,0c0.11,0 0.21,-0.04 0.29,-0.12c0.08,-0.08 0.12,-0.18 0.12,-0.29c0,-0.11 -0.04,-0.21 -0.12,-0.29c-0.08,-0.08 -0.18,-0.12 -0.29,-0.12z" />
								</g>
							</g>
							<g id="Group_16">
								<g id="Group_15">
									<path id="Path_8" class="shp13" d="M53.63,70.98h-1.76c-0.11,0 -0.21,0.04 -0.29,0.12c-0.08,0.08 -0.12,0.18 -0.12,0.29c0,0.11 0.04,0.21 0.12,0.29c0.08,0.08 0.18,0.12 0.29,0.12l1.76,0c0.11,0 0.21,-0.04 0.29,-0.12c0.08,-0.08 0.12,-0.18 0.12,-0.29c0,-0.11 -0.04,-0.21 -0.12,-0.29c-0.08,-0.08 -0.18,-0.12 -0.29,-0.12z" />
								</g>
							</g>
							<g id="Group_18">
								<g id="Group_17">
									<path id="Path_9" class="shp14" d="M60.67,70.98h-5.28c-0.11,0 -0.21,0.04 -0.29,0.12c-0.08,0.08 -0.12,0.18 -0.12,0.29c0,0.11 0.04,0.21 0.12,0.29c0.08,0.08 0.18,0.12 0.29,0.12l5.28,0c0.11,0 0.21,-0.04 0.29,-0.12c0.08,-0.08 0.12,-0.18 0.12,-0.29c0,-0.11 -0.04,-0.21 -0.12,-0.29c-0.08,-0.08 -0.18,-0.12 -0.29,-0.12z" />
								</g>
							</g>
						</g>
					</g>
				</g>
			</g>
		</g>
	</g>
</svg>