<svg xmlns="http://www.w3.org/2000/svg" viewBox="0 0 120 120" width="120" height="120">
	<defs>
		<clipPath clipPathUnits="userSpaceOnUse" id="cp1">
			<path d="M0,120h120v-120h-120z" />
		</clipPath>
		<radialGradient id="grd1" gradientUnits="userSpaceOnUse"  cx="33.121" cy="29.721" r="92.758">
			<stop offset="0.038" stop-color="#d8d9dd"  />
			<stop offset="0.554" stop-color="#edeef0"  />
			<stop offset="1" stop-color="#f7f7f8"  />
		</radialGradient>
		<radialGradient id="grd2" gradientUnits="userSpaceOnUse"  cx="-55.088" cy="-69.397" r="38.388">
			<stop offset="0" stop-color="#828282"  />
			<stop offset="0.301" stop-color="#838384" stop-opacity="0.98" />
			<stop offset="0.469" stop-color="#8a8a8a" stop-opacity="0.92" />
			<stop offset="0.604" stop-color="#959696" stop-opacity="0.81" />
			<stop offset="0.721" stop-color="#a6a6a7" stop-opacity="0.66" />
			<stop offset="0.828" stop-color="#bbbbbc" stop-opacity="0.47" />
			<stop offset="0.924" stop-color="#d4d5d6" stop-opacity="0.23" />
			<stop offset="1" stop-color="#edeef0" stop-opacity="0" />
		</radialGradient>
		<radialGradient id="grd3" gradientUnits="userSpaceOnUse"  cx="39.621" cy="37.128" r="70.796">
			<stop offset="0" stop-color="#f7f7f8"  />
			<stop offset="0.505" stop-color="#fafafb"  />
			<stop offset="0.715" stop-color="#ffffff"  />
		</radialGradient>
		<clipPath clipPathUnits="userSpaceOnUse" id="cp2">
			<path d="M44,75h32v-32h-32z" />
		</clipPath>
		<linearGradient id="grd4" gradientUnits="userSpaceOnUse"  x1="60" y1="58.384" x2="60" y2="75">
			<stop offset="0" stop-color="#1959a1"  />
			<stop offset="0.574" stop-color="#2c817f"  />
			<stop offset="1" stop-color="#56db31"  />
		</linearGradient>
		<linearGradient id="grd5" gradientUnits="userSpaceOnUse"  x1="60" y1="46.901" x2="60" y2="51.66">
			<stop offset="0" stop-color="#1959a1"  />
			<stop offset="0.574" stop-color="#2c817f"  />
			<stop offset="1" stop-color="#56db31"  />
		</linearGradient>
		<linearGradient id="grd6" gradientUnits="userSpaceOnUse"  x1="59.999" y1="43.489" x2="59.999" y2="55.561">
			<stop offset="0" stop-color="#1959a1"  />
			<stop offset="0.574" stop-color="#2c817f"  />
			<stop offset="1" stop-color="#56db31"  />
		</linearGradient>
		<linearGradient id="grd7" gradientUnits="userSpaceOnUse"  x1="60.011" y1="43" x2="60.011" y2="44.25">
			<stop offset="0" stop-color="#1959a1"  />
			<stop offset="0.574" stop-color="#2c817f"  />
			<stop offset="1" stop-color="#56db31"  />
		</linearGradient>
		<linearGradient id="grd8" gradientUnits="userSpaceOnUse"  x1="60" y1="71.251" x2="60" y2="72.499">
			<stop offset="0" stop-color="#1959a1"  />
			<stop offset="0.574" stop-color="#2c817f"  />
			<stop offset="1" stop-color="#56db31"  />
		</linearGradient>
	</defs>
	<style>
		tspan { white-space:pre }
		.shp0 { fill: #ffffff } 
		.shp1 { fill: url(#grd1) } 
		.shp2 { fill: url(#grd2) } 
		.shp3 { fill: url(#grd3) } 
		.shp4 { fill: #edeef0 } 
		.shp5 { fill: #dfe0e3 } 
		.shp6 { fill: url(#grd4) } 
		.shp7 { fill: url(#grd5) } 
		.shp8 { fill: url(#grd6) } 
		.shp9 { fill: url(#grd7) } 
		.shp10 { fill: url(#grd8) } 
	</style>
	<g id="Clip-Path: Artboard_3" clip-path="url(#cp1)">
		<g id="Artboard_3">
			<g id="Group_24483">
				<g id="Layer">
					<path id="Rectangle_3523-2" class="shp0" d="M20,60v0c0,22.12 17.88,40 40,40v0c22.12,0 40,-17.88 40,-40v0c0,-22.12 -17.88,-40 -40,-40v0c-22.12,0 -40,17.88 -40,40z" />
				</g>
				<g id="Group_24476">
					<path id="Path_35878" class="shp1" d="M91.67,59.55c-0.01,-14.08 -9.21,-26.51 -22.68,-30.63c-13.47,-4.12 -28.05,1.03 -35.94,12.7c-7.89,11.67 -7.24,27.12 1.6,38.08c8.84,10.96 23.8,14.87 36.88,9.63c2.96,-1.18 5.73,-2.79 8.21,-4.79c2.48,-2 4.65,-4.36 6.44,-7c1.79,-2.64 3.17,-5.53 4.09,-8.58c0.93,-3.05 1.4,-6.22 1.39,-9.41z" />
					<path id="Path_35879" class="shp2" d="M42,76.57l14.94,14.94c0.88,0.07 1.77,0.11 2.67,0.11c4.21,0 8.38,-0.83 12.27,-2.44c3.89,-1.61 7.42,-3.97 10.4,-6.95c2.98,-2.98 5.34,-6.51 6.95,-10.4c1.61,-3.89 2.44,-8.06 2.44,-12.27c0,-0.51 -0.01,-1.01 -0.04,-1.52l-10.88,-10.88z" />
					<g id="Group_24473">
						<path id="Path_35880" class="shp0" d="M82.32,50.29c-1.23,-2.97 -3.03,-5.67 -5.31,-7.94c-2.27,-2.27 -4.97,-4.08 -7.94,-5.31c-2.97,-1.23 -6.15,-1.87 -9.37,-1.87c-9.9,0 -18.83,5.96 -22.62,15.11c-3.79,9.15 -1.7,19.67 5.3,26.68c7,7 17.53,9.1 26.67,5.31c9.15,-3.79 15.11,-12.71 15.12,-22.61c0,-3.22 -0.63,-6.4 -1.86,-9.37z" />
					</g>
					<path id="Path_35881" class="shp3" d="M84.07,59.55c-0.05,-11.63 -8.3,-21.6 -19.71,-23.84c-11.41,-2.23 -22.81,3.9 -27.24,14.65c-4.43,10.75 -0.65,23.13 9.02,29.58c9.67,6.45 22.56,5.17 30.78,-3.05c1.13,-1.14 2.15,-2.38 3.04,-3.72c0.89,-1.34 1.65,-2.76 2.26,-4.24c0.61,-1.48 1.08,-3.03 1.38,-4.6c0.31,-1.58 0.46,-3.18 0.46,-4.78z" />
					<g id="Group_24474">
						<path id="Path_35882" class="shp4" d="M81.71,48.92c2.46,5.52 2.79,11.76 0.92,17.51c-1.87,5.75 -5.79,10.61 -11.03,13.64c-5.23,3.03 -11.4,4.01 -17.32,2.77c-5.92,-1.25 -11.16,-4.64 -14.72,-9.52c3.46,5.12 8.73,8.73 14.75,10.11c6.02,1.38 12.34,0.43 17.69,-2.66c5.35,-3.09 9.32,-8.1 11.12,-14.01c1.8,-5.91 1.3,-12.28 -1.42,-17.83z" />
					</g>
					<g id="Group_24475">
						<path id="Path_35883" class="shp4" d="M60.02,21.69c18.28,-0.01 34.02,12.9 37.59,30.83c3.57,17.93 -6.02,35.89 -22.91,42.88c-16.89,7 -36.37,1.09 -46.53,-14.11c-10.16,-15.2 -8.16,-35.46 4.76,-48.39c1.77,-1.77 3.72,-3.37 5.8,-4.76c2.09,-1.39 4.3,-2.58 6.62,-3.54c2.32,-0.96 4.72,-1.69 7.19,-2.18c2.46,-0.49 4.96,-0.74 7.47,-0.74zM23.05,44.68c-6.2,14.95 -2.78,32.15 8.66,43.6c11.44,11.44 28.64,14.87 43.59,8.68c14.95,-6.19 24.7,-20.78 24.7,-36.96c0,-5.25 -1.03,-10.45 -3.04,-15.3c-2.01,-4.85 -4.95,-9.26 -8.67,-12.98c-3.71,-3.71 -8.12,-6.66 -12.97,-8.67c-4.85,-2.01 -10.05,-3.05 -15.3,-3.05c-16.18,-0.01 -30.77,9.73 -36.97,24.68z" />
						<path id="Path_35884" class="shp5" d="M20,59.88h1.47c-0.01,-5.05 0.98,-10.04 2.91,-14.7c1.93,-4.66 4.76,-8.9 8.32,-12.47c3.57,-3.57 7.8,-6.4 12.46,-8.33c4.66,-1.93 9.66,-2.92 14.7,-2.91l0,-1.47c-5.24,-0.01 -10.43,1.02 -15.27,3.03c-4.84,2 -9.24,4.94 -12.94,8.65c-3.7,3.7 -6.64,8.1 -8.64,12.94c-2,4.84 -3.03,10.03 -3.02,15.27z" />
					</g>
					<path id="Path_35885" class="shp5" d="M59.7,20v1.47c5.09,-0.04 10.14,0.93 14.85,2.86c4.71,1.93 8.99,4.78 12.59,8.38c3.6,3.6 6.45,7.88 8.37,12.59c1.93,4.71 2.9,9.76 2.85,14.85h1.47c0.04,-5.28 -0.96,-10.52 -2.97,-15.41c-2,-4.89 -4.96,-9.33 -8.69,-13.07c-3.74,-3.74 -8.18,-6.69 -13.07,-8.7c-4.89,-2 -10.13,-3.01 -15.41,-2.97z" />
				</g>
				<g id="Clip-Path: team_statstics" clip-path="url(#cp2)">
					<g id="team_statstics">
						<g id="hired">
							<g id="Group_58">
								<g id="Group_57">
									<path id="Path_31" class="shp6" d="M72.58,68.5c0.47,0.08 0.93,0.24 1.35,0.48c0.42,0.24 0.79,0.54 1.1,0.91c0.31,0.37 0.55,0.78 0.72,1.23c0.17,0.45 0.25,0.93 0.25,1.4v1.85c0,0.08 -0.02,0.16 -0.05,0.24c-0.03,0.08 -0.08,0.14 -0.14,0.2c-0.06,0.06 -0.13,0.1 -0.2,0.14c-0.08,0.03 -0.16,0.05 -0.24,0.05h-30.75c-0.08,0 -0.16,-0.02 -0.24,-0.05c-0.08,-0.03 -0.14,-0.08 -0.2,-0.14c-0.06,-0.06 -0.1,-0.13 -0.14,-0.2c-0.03,-0.08 -0.05,-0.16 -0.05,-0.24v-1.85c0,-0.48 0.08,-0.96 0.25,-1.41c0.17,-0.45 0.41,-0.87 0.72,-1.23c0.31,-0.37 0.68,-0.67 1.1,-0.91c0.42,-0.24 0.87,-0.4 1.35,-0.48c-0.09,-0.12 -0.17,-0.25 -0.23,-0.38c-0.07,-0.13 -0.13,-0.27 -0.17,-0.42c-0.05,-0.14 -0.08,-0.29 -0.1,-0.44c-0.02,-0.15 -0.04,-0.3 -0.03,-0.45v-2.04c0,-0.31 0.06,-0.61 0.18,-0.89c0.12,-0.28 0.29,-0.54 0.51,-0.76c0.22,-0.22 0.48,-0.39 0.76,-0.51c0.28,-0.12 0.59,-0.18 0.89,-0.18h2.79c0.08,0 0.16,0.02 0.24,0.05c0.08,0.03 0.15,0.08 0.2,0.14c0.06,0.06 0.1,0.13 0.14,0.2c0.03,0.08 0.05,0.16 0.05,0.24v3.75c0,0.15 -0.01,0.3 -0.03,0.45c-0.02,0.15 -0.06,0.29 -0.1,0.44c-0.05,0.14 -0.1,0.28 -0.17,0.42c-0.07,0.13 -0.15,0.26 -0.23,0.38c0.11,0.02 0.21,0.04 0.32,0.06c0.1,0.03 0.21,0.06 0.31,0.09c0.1,0.03 0.2,0.07 0.3,0.11c0.1,0.04 0.2,0.09 0.29,0.14c0.22,-0.33 0.47,-0.63 0.76,-0.9c0.29,-0.27 0.6,-0.51 0.94,-0.71c0.34,-0.2 0.7,-0.37 1.07,-0.49c0.37,-0.12 0.76,-0.2 1.15,-0.24l0.02,0c-0.15,-0.17 -0.28,-0.35 -0.4,-0.54c-0.12,-0.19 -0.22,-0.39 -0.3,-0.6c-0.08,-0.21 -0.14,-0.43 -0.18,-0.65c-0.04,-0.22 -0.06,-0.44 -0.06,-0.67v-2.77c0,-0.39 0.08,-0.77 0.23,-1.13c0.15,-0.36 0.37,-0.68 0.64,-0.96c0.27,-0.27 0.6,-0.49 0.96,-0.64c0.36,-0.15 0.74,-0.23 1.13,-0.23h3.8c0.08,0 0.16,0.02 0.24,0.05c0.08,0.03 0.14,0.08 0.2,0.14c0.06,0.06 0.1,0.13 0.14,0.2c0.03,0.08 0.05,0.16 0.05,0.24v5.1c0,0.22 -0.02,0.45 -0.06,0.67c-0.04,0.22 -0.1,0.44 -0.18,0.65c-0.08,0.21 -0.18,0.41 -0.3,0.6c-0.12,0.19 -0.25,0.37 -0.4,0.54h0.02c0.39,0.04 0.78,0.12 1.15,0.24c0.37,0.12 0.73,0.29 1.07,0.49c0.34,0.2 0.65,0.44 0.94,0.71c0.29,0.27 0.54,0.57 0.76,0.9c0.1,-0.05 0.19,-0.1 0.29,-0.14c0.1,-0.04 0.2,-0.08 0.3,-0.11c0.1,-0.03 0.21,-0.06 0.31,-0.09c0.1,-0.03 0.21,-0.05 0.32,-0.06c-0.09,-0.12 -0.17,-0.25 -0.23,-0.38c-0.07,-0.13 -0.13,-0.27 -0.17,-0.42c-0.05,-0.14 -0.08,-0.29 -0.1,-0.44c-0.02,-0.15 -0.03,-0.3 -0.03,-0.45v-2.04c0,-0.31 0.06,-0.61 0.18,-0.9c0.12,-0.28 0.29,-0.54 0.51,-0.76c0.22,-0.22 0.48,-0.39 0.76,-0.51c0.28,-0.12 0.59,-0.18 0.9,-0.18h2.79c0.08,0 0.16,0.02 0.24,0.05c0.08,0.03 0.14,0.08 0.2,0.14c0.06,0.06 0.1,0.13 0.14,0.2c0.03,0.08 0.05,0.16 0.05,0.24v3.76c0,0.15 -0.01,0.3 -0.03,0.45c-0.02,0.15 -0.06,0.29 -0.1,0.44c-0.05,0.14 -0.1,0.28 -0.17,0.42c-0.07,0.13 -0.15,0.26 -0.23,0.38zM48.12,65.12h2.58c0.09,0 0.18,-0.02 0.26,-0.05c0.08,-0.03 0.16,-0.08 0.22,-0.15c0.06,-0.06 0.11,-0.14 0.15,-0.22c0.03,-0.08 0.05,-0.17 0.05,-0.26v-0.76l-2.17,0c-0.14,0 -0.29,0.03 -0.42,0.08c-0.13,0.05 -0.25,0.14 -0.35,0.24c-0.1,0.1 -0.18,0.22 -0.24,0.35c-0.05,0.13 -0.08,0.27 -0.08,0.42zM48.12,66.82c0,0.43 0.17,0.85 0.48,1.15c0.31,0.31 0.72,0.48 1.15,0.48c0.43,0 0.85,-0.17 1.15,-0.48c0.31,-0.31 0.48,-0.72 0.48,-1.15v-0.57c-0.05,0.02 -0.11,0.04 -0.16,0.05c-0.06,0.02 -0.11,0.03 -0.17,0.04c-0.06,0.01 -0.11,0.02 -0.17,0.02c-0.06,0.01 -0.12,0.01 -0.17,0.01h-2.58zM49.35,69.7l0.4,0.4l0.4,-0.4zM52.41,71.86c0,-0.16 0.01,-0.31 0.02,-0.47c0.01,-0.16 0.03,-0.31 0.06,-0.46c0.03,-0.15 0.06,-0.31 0.1,-0.46c0.04,-0.15 0.09,-0.3 0.14,-0.45c-0.07,-0.04 -0.13,-0.07 -0.2,-0.1c-0.07,-0.03 -0.14,-0.06 -0.21,-0.08c-0.07,-0.02 -0.14,-0.04 -0.22,-0.06c-0.07,-0.02 -0.15,-0.03 -0.22,-0.05l-1.69,1.69c-0.06,0.06 -0.13,0.1 -0.2,0.14c-0.08,0.03 -0.16,0.05 -0.24,0.05c-0.08,0 -0.16,-0.02 -0.24,-0.05c-0.08,-0.03 -0.14,-0.08 -0.2,-0.14l-1.69,-1.69c-0.33,0.05 -0.64,0.17 -0.93,0.33c-0.29,0.16 -0.55,0.38 -0.76,0.63c-0.22,0.25 -0.38,0.54 -0.5,0.85c-0.11,0.31 -0.17,0.64 -0.17,0.97v1.23h7.16zM60,66.54c0.32,0 0.64,-0.06 0.94,-0.19c0.3,-0.12 0.57,-0.3 0.79,-0.53c0.23,-0.23 0.41,-0.5 0.53,-0.79c0.12,-0.3 0.19,-0.61 0.19,-0.94v-1.12c-0.09,0.05 -0.18,0.09 -0.27,0.13c-0.09,0.04 -0.19,0.07 -0.28,0.09c-0.1,0.02 -0.19,0.04 -0.29,0.06c-0.1,0.01 -0.2,0.02 -0.3,0.02h-3.74v0.83c0,0.32 0.06,0.64 0.19,0.93c0.12,0.3 0.3,0.56 0.53,0.79c0.23,0.23 0.5,0.41 0.79,0.53c0.3,0.12 0.61,0.19 0.93,0.19zM58.91,67.79l1.09,1.09l1.09,-1.09zM57.56,62.03h3.74c0.15,0 0.3,-0.03 0.44,-0.09c0.14,-0.06 0.26,-0.14 0.37,-0.25c0.11,-0.11 0.19,-0.23 0.25,-0.37c0.06,-0.14 0.09,-0.29 0.09,-0.44v-1.26h-3.17c-0.22,0 -0.45,0.04 -0.65,0.13c-0.21,0.09 -0.4,0.21 -0.55,0.37c-0.16,0.16 -0.28,0.35 -0.37,0.55c-0.09,0.21 -0.13,0.43 -0.13,0.65zM66.34,73.75v-1.89c0,-0.49 -0.09,-0.97 -0.26,-1.43c-0.17,-0.46 -0.42,-0.88 -0.74,-1.25c-0.32,-0.37 -0.71,-0.67 -1.13,-0.9c-0.43,-0.23 -0.9,-0.38 -1.38,-0.45l-2.38,2.38c-0.06,0.06 -0.13,0.1 -0.2,0.14c-0.08,0.03 -0.16,0.05 -0.24,0.05c-0.08,0 -0.16,-0.02 -0.24,-0.05c-0.08,-0.03 -0.14,-0.08 -0.2,-0.14l-2.38,-2.38c-0.43,0.06 -0.85,0.19 -1.24,0.38c-0.39,0.19 -0.75,0.45 -1.06,0.75c-0.31,0.31 -0.57,0.66 -0.77,1.05c-0.2,0.39 -0.33,0.81 -0.4,1.24h4.03c0.17,0 0.32,0.07 0.44,0.18c0.12,0.12 0.18,0.28 0.18,0.44c0,0.17 -0.07,0.32 -0.18,0.44c-0.12,0.12 -0.28,0.18 -0.44,0.18h-4.07v1.25zM68.62,65.12h2.58c0.09,0 0.18,-0.02 0.26,-0.05c0.08,-0.03 0.16,-0.08 0.22,-0.15c0.06,-0.06 0.11,-0.14 0.15,-0.22c0.03,-0.08 0.05,-0.17 0.05,-0.26v-0.76l-2.17,0c-0.14,0 -0.29,0.03 -0.42,0.08c-0.13,0.05 -0.25,0.14 -0.35,0.24c-0.1,0.1 -0.18,0.22 -0.24,0.35c-0.05,0.13 -0.08,0.27 -0.08,0.42zM68.62,66.38l0,0.44c0,0.43 0.17,0.85 0.48,1.15c0.31,0.31 0.72,0.48 1.15,0.48c0.43,0 0.85,-0.17 1.15,-0.48c0.31,-0.31 0.48,-0.72 0.48,-1.15v-0.57c-0.05,0.02 -0.11,0.04 -0.16,0.05c-0.06,0.02 -0.11,0.03 -0.17,0.04c-0.06,0.01 -0.11,0.02 -0.17,0.02c-0.06,0.01 -0.12,0.01 -0.17,0.01zM69.85,69.7l0.4,0.4l0.4,-0.4zM74.75,73.75v-1.23c0,-0.33 -0.06,-0.66 -0.17,-0.97c-0.11,-0.31 -0.28,-0.6 -0.5,-0.85c-0.22,-0.25 -0.47,-0.47 -0.76,-0.63c-0.29,-0.16 -0.6,-0.28 -0.93,-0.33l-1.69,1.69c-0.06,0.06 -0.13,0.1 -0.2,0.14c-0.08,0.03 -0.16,0.05 -0.24,0.05c-0.08,0 -0.16,-0.02 -0.24,-0.05c-0.08,-0.03 -0.14,-0.08 -0.2,-0.14l-1.69,-1.69c-0.07,0.01 -0.15,0.03 -0.22,0.05c-0.07,0.02 -0.15,0.04 -0.22,0.06c-0.07,0.02 -0.14,0.05 -0.21,0.08c-0.07,0.03 -0.14,0.06 -0.2,0.1c0.05,0.15 0.1,0.3 0.14,0.45c0.04,0.15 0.08,0.3 0.1,0.46c0.03,0.15 0.05,0.31 0.06,0.46c0.01,0.16 0.02,0.31 0.02,0.47v1.89z" />
								</g>
							</g>
							<g id="Group_60">
								<g id="Group_59">
									<path id="Path_32" class="shp7" d="M63.08,47.08c-0.06,-0.06 -0.13,-0.1 -0.2,-0.14c-0.08,-0.03 -0.16,-0.05 -0.24,-0.05c-0.08,0 -0.16,0.02 -0.24,0.05c-0.08,0.03 -0.14,0.08 -0.2,0.14l-3.07,3.07l-1.33,-1.33c-0.12,-0.12 -0.28,-0.18 -0.44,-0.18c-0.17,0 -0.32,0.07 -0.44,0.18c-0.12,0.12 -0.18,0.28 -0.18,0.44c0,0.17 0.07,0.32 0.18,0.44l1.77,1.77c0.06,0.06 0.13,0.1 0.2,0.14c0.08,0.03 0.16,0.05 0.24,0.05c0.08,0 0.16,-0.02 0.24,-0.05c0.08,-0.03 0.14,-0.08 0.2,-0.14l3.51,-3.51c0.06,-0.06 0.1,-0.13 0.14,-0.2c0.03,-0.08 0.05,-0.16 0.05,-0.24c0,-0.08 -0.02,-0.16 -0.05,-0.24c-0.03,-0.08 -0.08,-0.14 -0.14,-0.2z" />
								</g>
							</g>
							<g id="Group_62">
								<g id="Group_61">
									<path id="Path_33" class="shp8" d="M62.56,43.54c-0.15,-0.07 -0.32,-0.07 -0.48,-0.01c-0.15,0.06 -0.28,0.18 -0.35,0.33c-0.07,0.15 -0.07,0.32 -0.01,0.48c0.06,0.15 0.18,0.28 0.33,0.35c2.17,0.97 3.37,3.31 2.87,5.64c-0.49,2.32 -2.54,3.98 -4.91,3.99c-2.37,0.01 -4.43,-1.65 -4.93,-3.97c-0.5,-2.32 0.69,-4.67 2.85,-5.65c0.15,-0.07 0.27,-0.19 0.33,-0.35c0.06,-0.16 0.05,-0.33 -0.02,-0.48c-0.07,-0.15 -0.19,-0.27 -0.35,-0.33c-0.16,-0.06 -0.33,-0.05 -0.48,0.02c-2.7,1.22 -4.18,4.16 -3.56,7.05c0.63,2.9 3.19,4.96 6.15,4.95c2.96,-0.01 5.52,-2.08 6.13,-4.98c0.61,-2.9 -0.88,-5.83 -3.59,-7.04z" />
								</g>
							</g>
							<g id="Group_64">
								<g id="Group_63">
									<path id="Path_34" class="shp9" d="M60.02,43h-0.02c-0.17,0 -0.32,0.07 -0.44,0.18c-0.12,0.12 -0.18,0.28 -0.18,0.44c0,0.17 0.07,0.32 0.18,0.44c0.12,0.12 0.28,0.18 0.44,0.18h0.02c0.17,0 0.32,-0.07 0.44,-0.18c0.12,-0.12 0.18,-0.28 0.18,-0.44c0,-0.17 -0.07,-0.32 -0.18,-0.44c-0.12,-0.12 -0.28,-0.18 -0.44,-0.18z" />
								</g>
							</g>
							<g id="Group_66">
								<g id="Group_65">
									<path id="Path_35" class="shp10" d="M60.44,71.43c-0.21,-0.21 -0.54,-0.24 -0.79,-0.08c-0.25,0.17 -0.34,0.48 -0.23,0.76c0.11,0.27 0.41,0.43 0.7,0.37c0.29,-0.06 0.5,-0.31 0.5,-0.61c0,-0.04 0,-0.08 -0.01,-0.12c-0.01,-0.04 -0.02,-0.08 -0.04,-0.12c-0.02,-0.04 -0.04,-0.07 -0.06,-0.11c-0.02,-0.03 -0.05,-0.07 -0.08,-0.09z" />
								</g>
							</g>
						</g>
					</g>
				</g>
			</g>
		</g>
	</g>
</svg>