<svg xmlns="http://www.w3.org/2000/svg" viewBox="0 0 120 120" width="120" height="120">
	<defs>
		<clipPath clipPathUnits="userSpaceOnUse" id="cp1">
			<path d="M0,120h120v-120h-120z" />
		</clipPath>
		<radialGradient id="grd1" gradientUnits="userSpaceOnUse"  cx="33.118" cy="29.797" r="92.758">
			<stop offset="0.038" stop-color="#d8d9dd"  />
			<stop offset="0.554" stop-color="#edeef0"  />
			<stop offset="1" stop-color="#f7f7f8"  />
		</radialGradient>
		<radialGradient id="grd2" gradientUnits="userSpaceOnUse"  cx="-80.324" cy="-97.342" r="38.388">
			<stop offset="0" stop-color="#828282"  />
			<stop offset="0.301" stop-color="#838384" stop-opacity="0.98" />
			<stop offset="0.469" stop-color="#8a8a8a" stop-opacity="0.92" />
			<stop offset="0.604" stop-color="#959696" stop-opacity="0.81" />
			<stop offset="0.721" stop-color="#a6a6a7" stop-opacity="0.66" />
			<stop offset="0.828" stop-color="#bbbbbc" stop-opacity="0.47" />
			<stop offset="0.924" stop-color="#d4d5d6" stop-opacity="0.23" />
			<stop offset="1" stop-color="#edeef0" stop-opacity="0" />
		</radialGradient>
		<radialGradient id="grd3" gradientUnits="userSpaceOnUse"  cx="39.712" cy="37.314" r="70.796">
			<stop offset="0" stop-color="#f7f7f8"  />
			<stop offset="0.505" stop-color="#fafafb"  />
			<stop offset="0.715" stop-color="#ffffff"  />
		</radialGradient>
		<clipPath clipPathUnits="userSpaceOnUse" id="cp2">
			<path d="M46,75h29v-29h-29z" />
		</clipPath>
		<linearGradient id="grd4" gradientUnits="userSpaceOnUse"  x1="60.455" y1="46" x2="60.455" y2="75">
			<stop offset="0" stop-color="#1959a1"  />
			<stop offset="0.574" stop-color="#2c817f"  />
			<stop offset="1" stop-color="#56db31"  />
		</linearGradient>
		<linearGradient id="grd5" gradientUnits="userSpaceOnUse"  x1="54.204" y1="47.93" x2="54.204" y2="57.104">
			<stop offset="0" stop-color="#1959a1"  />
			<stop offset="0.574" stop-color="#2c817f"  />
			<stop offset="1" stop-color="#56db31"  />
		</linearGradient>
		<linearGradient id="grd6" gradientUnits="userSpaceOnUse"  x1="68.683" y1="50.825" x2="68.683" y2="60.001">
			<stop offset="0" stop-color="#1959a1"  />
			<stop offset="0.574" stop-color="#2c817f"  />
			<stop offset="1" stop-color="#56db31"  />
		</linearGradient>
		<linearGradient id="grd7" gradientUnits="userSpaceOnUse"  x1="64.819" y1="58.546" x2="64.819" y2="59.511">
			<stop offset="0" stop-color="#1959a1"  />
			<stop offset="0.574" stop-color="#2c817f"  />
			<stop offset="1" stop-color="#56db31"  />
		</linearGradient>
		<linearGradient id="grd8" gradientUnits="userSpaceOnUse"  x1="58.546" y1="47.93" x2="58.546" y2="49.861">
			<stop offset="0" stop-color="#1959a1"  />
			<stop offset="0.574" stop-color="#2c817f"  />
			<stop offset="1" stop-color="#56db31"  />
		</linearGradient>
	</defs>
	<style>
		tspan { white-space:pre }
		.shp0 { fill: #ffffff } 
		.shp1 { fill: url(#grd1) } 
		.shp2 { fill: url(#grd2) } 
		.shp3 { fill: url(#grd3) } 
		.shp4 { fill: #edeef0 } 
		.shp5 { fill: #dfe0e3 } 
		.shp6 { fill: url(#grd4) } 
		.shp7 { fill: url(#grd5) } 
		.shp8 { fill: url(#grd6) } 
		.shp9 { fill: url(#grd7) } 
		.shp10 { fill: url(#grd8) } 
	</style>
	<g id="Clip-Path: Artboard_9" clip-path="url(#cp1)">
		<g id="Artboard_9">
			<g id="Group_24486">
				<g id="Layer">
					<path id="Rectangle_3523-2" class="shp0" d="M20,60v0c0,22.12 17.88,40 40,40v0c22.12,0 40,-17.88 40,-40v0c0,-22.12 -17.88,-40 -40,-40v0c-22.12,0 -40,17.88 -40,40z" />
				</g>
				<g id="Group_24476">
					<path id="Path_35878" class="shp1" d="M91.67,59.55c-0.01,-14.08 -9.21,-26.51 -22.68,-30.63c-13.47,-4.12 -28.05,1.03 -35.94,12.7c-7.89,11.67 -7.24,27.12 1.6,38.08c8.84,10.96 23.8,14.87 36.88,9.63c2.96,-1.18 5.73,-2.79 8.21,-4.79c2.48,-2 4.65,-4.36 6.44,-7c1.79,-2.64 3.17,-5.53 4.09,-8.58c0.93,-3.05 1.4,-6.22 1.39,-9.41z" />
					<path id="Path_35879" class="shp2" d="M42,76.57l14.94,14.94c0.88,0.07 1.77,0.11 2.67,0.11c4.21,0 8.38,-0.83 12.27,-2.44c3.89,-1.61 7.42,-3.97 10.4,-6.95c2.98,-2.98 5.34,-6.51 6.95,-10.4c1.61,-3.89 2.44,-8.06 2.44,-12.27c0,-0.51 -0.01,-1.01 -0.04,-1.52l-10.88,-10.88z" />
					<g id="Group_24473">
						<path id="Path_35880" class="shp0" d="M82.32,50.29c-1.23,-2.97 -3.03,-5.67 -5.31,-7.94c-2.27,-2.27 -4.97,-4.08 -7.94,-5.31c-2.97,-1.23 -6.15,-1.87 -9.37,-1.87c-9.9,0 -18.83,5.96 -22.62,15.11c-3.79,9.15 -1.7,19.67 5.3,26.68c7,7 17.53,9.1 26.67,5.31c9.15,-3.79 15.11,-12.71 15.12,-22.61c0,-3.22 -0.63,-6.4 -1.86,-9.37z" />
					</g>
					<path id="Path_35881" class="shp3" d="M84.07,59.55c-0.05,-11.63 -8.3,-21.6 -19.71,-23.84c-11.41,-2.23 -22.81,3.9 -27.24,14.65c-4.43,10.75 -0.65,23.13 9.02,29.58c9.67,6.45 22.56,5.17 30.78,-3.05c1.13,-1.14 2.15,-2.38 3.04,-3.72c0.89,-1.34 1.65,-2.76 2.26,-4.24c0.61,-1.48 1.08,-3.03 1.38,-4.6c0.31,-1.58 0.46,-3.18 0.46,-4.78z" />
					<g id="Group_24474">
						<path id="Path_35882" class="shp4" d="M81.71,48.92c2.46,5.52 2.79,11.76 0.92,17.51c-1.87,5.75 -5.79,10.61 -11.03,13.64c-5.23,3.03 -11.4,4.01 -17.32,2.77c-5.92,-1.25 -11.16,-4.64 -14.72,-9.52c3.46,5.12 8.73,8.73 14.75,10.11c6.02,1.38 12.34,0.43 17.69,-2.66c5.35,-3.09 9.32,-8.1 11.12,-14.01c1.8,-5.91 1.3,-12.28 -1.42,-17.83z" />
					</g>
					<g id="Group_24475">
						<path id="Path_35883" class="shp4" d="M60.02,21.69c18.28,-0.01 34.02,12.9 37.59,30.83c3.57,17.93 -6.02,35.89 -22.91,42.88c-16.89,7 -36.37,1.09 -46.53,-14.11c-10.16,-15.2 -8.16,-35.46 4.76,-48.39c1.77,-1.77 3.72,-3.37 5.8,-4.76c2.09,-1.39 4.3,-2.58 6.62,-3.54c2.32,-0.96 4.72,-1.69 7.19,-2.18c2.46,-0.49 4.96,-0.74 7.47,-0.74zM23.05,44.68c-6.2,14.95 -2.78,32.15 8.66,43.6c11.44,11.44 28.64,14.87 43.59,8.68c14.95,-6.19 24.7,-20.78 24.7,-36.96c0,-5.25 -1.03,-10.45 -3.04,-15.3c-2.01,-4.85 -4.95,-9.26 -8.67,-12.98c-3.71,-3.71 -8.12,-6.66 -12.97,-8.67c-4.85,-2.01 -10.05,-3.05 -15.3,-3.05c-16.18,-0.01 -30.77,9.73 -36.97,24.68z" />
						<path id="Path_35884" class="shp5" d="M20,59.88h1.47c-0.01,-5.05 0.98,-10.04 2.91,-14.7c1.93,-4.66 4.76,-8.9 8.32,-12.47c3.57,-3.57 7.8,-6.4 12.46,-8.33c4.66,-1.93 9.66,-2.92 14.7,-2.91l0,-1.47c-5.24,-0.01 -10.43,1.02 -15.27,3.03c-4.84,2 -9.24,4.94 -12.94,8.65c-3.7,3.7 -6.64,8.1 -8.64,12.94c-2,4.84 -3.03,10.03 -3.02,15.27z" />
					</g>
					<path id="Path_35885" class="shp5" d="M59.7,20v1.47c5.09,-0.04 10.14,0.93 14.85,2.86c4.71,1.93 8.99,4.78 12.59,8.38c3.6,3.6 6.45,7.88 8.37,12.59c1.93,4.71 2.9,9.76 2.85,14.85h1.47c0.04,-5.28 -0.96,-10.52 -2.97,-15.41c-2,-4.89 -4.96,-9.33 -8.69,-13.07c-3.74,-3.74 -8.18,-6.69 -13.07,-8.7c-4.89,-2 -10.13,-3.01 -15.41,-2.97z" />
				</g>
				<g id="Clip-Path: player_statstics" clip-path="url(#cp2)">
					<g id="player_statstics">
						<g id="feedback">
							<g id="Group_48">
								<g id="Group_47">
									<path id="Path_27" class="shp6" d="M73.02,48.9c0.25,0 0.5,0.04 0.73,0.14c0.23,0.1 0.44,0.24 0.62,0.42c0.18,0.18 0.31,0.39 0.41,0.63c0.09,0.23 0.13,0.49 0.13,0.74v11.14c0,5.31 -5.07,5.31 -6.75,5.31c-0.13,0.01 -0.26,-0.04 -0.36,-0.13c-0.1,-0.09 -0.15,-0.22 -0.15,-0.35c0,-0.13 0.05,-0.26 0.15,-0.35c0.1,-0.09 0.22,-0.14 0.36,-0.13h0.19c0.25,-0.03 0.5,-0.1 0.72,-0.22c0.22,-0.12 0.42,-0.28 0.58,-0.48c0.16,-0.2 0.28,-0.42 0.36,-0.67c0.07,-0.24 0.1,-0.5 0.08,-0.75c-0.04,-0.24 -0.11,-0.47 -0.23,-0.69c-0.12,-0.21 -0.27,-0.4 -0.46,-0.56c-0.18,-0.16 -0.4,-0.28 -0.63,-0.37c-0.23,-0.08 -0.47,-0.13 -0.71,-0.12l-3.23,0c0.08,0.15 0.15,0.3 0.22,0.45c0.06,0.16 0.11,0.32 0.15,0.48c0.04,0.16 0.07,0.33 0.09,0.49c0.02,0.17 0.03,0.33 0.02,0.5v0.34c0.02,0.48 -0.04,0.96 -0.16,1.43c-0.13,0.46 -0.32,0.91 -0.58,1.31c-0.26,0.41 -0.57,0.77 -0.94,1.08c-0.37,0.31 -0.78,0.57 -1.22,0.76c0,0.29 0.15,0.87 1.45,0.87c0.32,0 0.63,0.06 0.93,0.18c0.29,0.12 0.56,0.3 0.79,0.52c0.22,0.22 0.4,0.49 0.52,0.79c0.12,0.29 0.18,0.61 0.18,0.93v2.41h-0.97v-2.41c0,-0.18 -0.03,-0.36 -0.1,-0.53c-0.07,-0.17 -0.16,-0.33 -0.29,-0.46c-0.12,-0.13 -0.27,-0.24 -0.44,-0.32c-0.17,-0.08 -0.34,-0.12 -0.53,-0.13l-2.36,1.16c-0.05,0.02 -0.1,0.04 -0.15,0.06c-0.05,0.02 -0.1,0.04 -0.16,0.05c-0.05,0.02 -0.11,0.03 -0.16,0.04c-0.05,0.01 -0.11,0.02 -0.16,0.03v2.46h-0.97v-2.46c-0.05,-0.01 -0.11,-0.03 -0.16,-0.05c-0.05,-0.02 -0.11,-0.04 -0.16,-0.06c-0.05,-0.02 -0.1,-0.04 -0.16,-0.06c-0.05,-0.02 -0.1,-0.05 -0.15,-0.07l-2.36,-1.16c-0.18,0.01 -0.36,0.06 -0.53,0.13c-0.17,0.08 -0.31,0.19 -0.44,0.32c-0.12,0.13 -0.22,0.29 -0.29,0.46c-0.07,0.17 -0.1,0.35 -0.1,0.53v2.41h-0.97v-2.41c0,-0.32 0.06,-0.63 0.18,-0.93c0.12,-0.29 0.3,-0.56 0.52,-0.79c0.22,-0.22 0.49,-0.4 0.79,-0.52c0.29,-0.12 0.61,-0.18 0.93,-0.18c1.3,0 1.45,-0.58 1.45,-0.87c-0.43,-0.19 -0.83,-0.44 -1.18,-0.74c-0.36,-0.3 -0.67,-0.66 -0.92,-1.05c-0.26,-0.39 -0.45,-0.82 -0.59,-1.27c-0.13,-0.45 -0.2,-0.91 -0.21,-1.38c0,-0.12 0,-0.24 0.01,-0.35c0.01,-0.12 0.02,-0.24 0.04,-0.35c0.02,-0.12 0.04,-0.23 0.06,-0.35c0.02,-0.12 0.05,-0.23 0.09,-0.34c-0.18,-0.2 -0.35,-0.41 -0.49,-0.64c-0.14,-0.23 -0.27,-0.47 -0.37,-0.72c-0.1,-0.25 -0.17,-0.51 -0.22,-0.78c-0.05,-0.27 -0.08,-0.53 -0.08,-0.8c0,-0.06 0.01,-0.13 0.03,-0.19c0.02,-0.06 0.06,-0.12 0.1,-0.16c0.05,-0.05 0.1,-0.08 0.16,-0.1c0.06,-0.02 0.12,-0.03 0.19,-0.03h4.34v-0.97l-6.66,0c-0.24,0 -0.49,0.04 -0.71,0.12c-0.23,0.08 -0.44,0.21 -0.63,0.37c-0.18,0.16 -0.34,0.35 -0.46,0.56c-0.12,0.21 -0.2,0.45 -0.23,0.69v0.19c0,0.25 0.05,0.5 0.15,0.74c0.1,0.23 0.24,0.45 0.42,0.63c0.18,0.18 0.39,0.32 0.63,0.42c0.23,0.1 0.48,0.15 0.74,0.15c0.12,0.01 0.24,0.06 0.33,0.15c0.09,0.09 0.13,0.21 0.13,0.33c0,0.12 -0.05,0.24 -0.13,0.33c-0.09,0.09 -0.2,0.14 -0.33,0.15c-1.69,0 -6.76,0 -6.76,-5.31v-10.62c0,-0.25 0.05,-0.5 0.15,-0.74c0.1,-0.23 0.24,-0.45 0.42,-0.63c0.18,-0.18 0.39,-0.32 0.63,-0.42c0.23,-0.1 0.48,-0.15 0.74,-0.15h13.51c0.25,0 0.5,0.05 0.74,0.15c0.23,0.1 0.45,0.24 0.63,0.42c0.18,0.18 0.32,0.39 0.42,0.63c0.1,0.23 0.15,0.48 0.15,0.74v0.97zM61.44,58.07c0.13,0 0.25,-0.03 0.37,-0.07c0.12,-0.05 0.22,-0.12 0.31,-0.21c0.09,-0.09 0.16,-0.2 0.21,-0.31c0.05,-0.12 0.07,-0.24 0.07,-0.37v-9.17c0,-0.13 -0.03,-0.25 -0.07,-0.37c-0.05,-0.12 -0.12,-0.22 -0.21,-0.31c-0.09,-0.09 -0.2,-0.16 -0.31,-0.21c-0.12,-0.05 -0.24,-0.07 -0.37,-0.07l-13.51,0c-0.13,0 -0.25,0.03 -0.37,0.07c-0.12,0.05 -0.22,0.12 -0.31,0.21c-0.09,0.09 -0.16,0.2 -0.21,0.31c-0.05,0.12 -0.07,0.24 -0.07,0.37v10.62c0,2.36 1.11,3.67 3.47,4.15c-0.11,-0.14 -0.2,-0.3 -0.28,-0.46c-0.08,-0.16 -0.14,-0.33 -0.19,-0.5c-0.05,-0.17 -0.08,-0.35 -0.1,-0.53c-0.02,-0.18 -0.02,-0.36 -0.01,-0.54c0.05,-0.36 0.16,-0.7 0.34,-1.02c0.17,-0.32 0.4,-0.6 0.67,-0.84c0.27,-0.24 0.59,-0.42 0.92,-0.55c0.34,-0.13 0.7,-0.19 1.06,-0.19zM55.7,60.96c0.06,0.4 0.18,0.78 0.38,1.14c0.19,0.35 0.45,0.67 0.75,0.93c0.3,0.26 0.65,0.47 1.03,0.61c0.38,0.14 0.78,0.22 1.18,0.22h5.26c-0.06,-0.4 -0.18,-0.78 -0.38,-1.14c-0.19,-0.35 -0.45,-0.67 -0.75,-0.93c-0.3,-0.26 -0.65,-0.47 -1.03,-0.61c-0.38,-0.14 -0.78,-0.22 -1.18,-0.22zM61.78,68.44c0.37,-0.13 0.72,-0.32 1.04,-0.55c0.32,-0.24 0.59,-0.52 0.82,-0.85c0.23,-0.32 0.4,-0.68 0.52,-1.06c0.12,-0.38 0.18,-0.77 0.17,-1.17h-5.31c-0.21,0 -0.42,-0.01 -0.62,-0.04c-0.21,-0.03 -0.41,-0.07 -0.61,-0.13c-0.2,-0.06 -0.4,-0.13 -0.58,-0.21c-0.19,-0.08 -0.37,-0.18 -0.55,-0.29c-0.01,0.06 -0.02,0.11 -0.03,0.17c-0.01,0.06 -0.01,0.11 -0.02,0.17c0,0.06 -0.01,0.11 -0.01,0.17c0,0.06 0,0.11 0,0.17c0,0.4 0.06,0.79 0.18,1.17c0.12,0.38 0.3,0.74 0.52,1.06c0.23,0.33 0.5,0.61 0.82,0.86c0.31,0.24 0.66,0.44 1.04,0.57c0.05,0.01 0.09,0.03 0.13,0.06c0.04,0.03 0.08,0.06 0.11,0.1c0.03,0.04 0.05,0.08 0.07,0.13c0.02,0.05 0.03,0.09 0.03,0.14v0.24c0.01,0.17 0,0.34 -0.04,0.5c-0.04,0.16 -0.1,0.32 -0.19,0.47c-0.09,0.15 -0.19,0.28 -0.32,0.39c-0.12,0.11 -0.26,0.21 -0.42,0.28l1.21,0.63c0.11,0.05 0.22,0.08 0.34,0.11c0.12,0.02 0.24,0.04 0.36,0.04c0.12,0 0.24,-0.01 0.36,-0.04c0.12,-0.02 0.23,-0.06 0.34,-0.11l1.26,-0.63c-0.15,-0.07 -0.29,-0.17 -0.42,-0.28c-0.12,-0.11 -0.23,-0.25 -0.32,-0.39c-0.09,-0.15 -0.15,-0.3 -0.19,-0.47c-0.04,-0.16 -0.05,-0.33 -0.04,-0.5v-0.29c0,-0.05 0.01,-0.1 0.03,-0.14c0.02,-0.05 0.04,-0.09 0.07,-0.13c0.03,-0.04 0.07,-0.07 0.11,-0.1c0.04,-0.03 0.09,-0.05 0.13,-0.06zM73.99,50.83c0,-0.13 -0.03,-0.25 -0.07,-0.37c-0.05,-0.12 -0.12,-0.22 -0.21,-0.31c-0.09,-0.09 -0.2,-0.16 -0.31,-0.21c-0.12,-0.05 -0.24,-0.07 -0.37,-0.07h-9.65v7.24c0,0.25 -0.05,0.5 -0.15,0.74c-0.1,0.23 -0.24,0.45 -0.42,0.62c-0.18,0.18 -0.39,0.32 -0.63,0.42c-0.23,0.1 -0.48,0.15 -0.74,0.15h-0.97v0.96h0.48c0.3,0 0.61,0.03 0.91,0.09c0.3,0.06 0.59,0.16 0.87,0.28c0.28,0.12 0.54,0.28 0.79,0.46c0.25,0.18 0.47,0.39 0.67,0.61h3.91c0.36,0 0.72,0.06 1.06,0.18c0.34,0.13 0.66,0.31 0.93,0.55c0.27,0.24 0.5,0.52 0.67,0.84c0.17,0.32 0.28,0.67 0.33,1.03c0.01,0.18 0.01,0.36 -0.01,0.54c-0.02,0.18 -0.05,0.36 -0.1,0.53c-0.05,0.17 -0.11,0.34 -0.19,0.5c-0.08,0.16 -0.17,0.32 -0.28,0.46c2.36,-0.48 3.47,-1.79 3.47,-4.15z" />
								</g>
							</g>
							<g id="Group_50">
								<g id="Group_49">
									<path id="Path_28" class="shp7" d="M57.1,51.31c0.19,0 0.38,0.03 0.56,0.1c0.18,0.07 0.34,0.18 0.47,0.31c0.14,0.14 0.24,0.3 0.31,0.47c0.07,0.18 0.11,0.37 0.1,0.56v2.42c0,0.19 -0.03,0.38 -0.1,0.56c-0.07,0.18 -0.18,0.34 -0.31,0.47c-0.14,0.14 -0.3,0.24 -0.47,0.31c-0.18,0.07 -0.37,0.11 -0.56,0.1l-4.34,0c0,0.06 -0.01,0.13 -0.03,0.19c-0.02,0.06 -0.06,0.12 -0.1,0.16c-0.05,0.05 -0.1,0.08 -0.16,0.1c-0.06,0.02 -0.12,0.03 -0.19,0.03l-1.93,0c-0.06,0 -0.13,-0.01 -0.19,-0.03c-0.06,-0.02 -0.12,-0.06 -0.16,-0.1c-0.05,-0.05 -0.08,-0.1 -0.1,-0.16c-0.02,-0.06 -0.03,-0.12 -0.03,-0.19v-5.31c0,-0.06 0.01,-0.13 0.03,-0.19c0.02,-0.06 0.06,-0.12 0.1,-0.16c0.05,-0.05 0.1,-0.08 0.16,-0.1c0.06,-0.02 0.12,-0.03 0.19,-0.03l1.92,0c0.06,0 0.13,0.01 0.19,0.03c0.06,0.02 0.12,0.06 0.16,0.1c0.05,0.05 0.08,0.1 0.1,0.16c0.02,0.06 0.03,0.12 0.03,0.19c0.06,0 0.13,-0.01 0.19,-0.03c0.06,-0.02 0.12,-0.06 0.16,-0.1c0.05,-0.05 0.08,-0.1 0.1,-0.16c0.02,-0.06 0.03,-0.12 0.03,-0.19l0,-1.45c0,-0.38 0.15,-0.75 0.42,-1.02c0.27,-0.27 0.64,-0.42 1.02,-0.42c0.38,0 0.75,0.15 1.02,0.42c0.27,0.27 0.42,0.64 0.43,1.02v1.45c0,0.06 0.01,0.13 0.03,0.19c0.02,0.06 0.06,0.12 0.1,0.16c0.05,0.05 0.1,0.08 0.16,0.1c0.06,0.02 0.12,0.03 0.19,0.03zM51.79,51.79h-0.97v4.34h0.97zM57.58,52.76c0,-0.06 -0.01,-0.13 -0.03,-0.19c-0.02,-0.06 -0.06,-0.12 -0.1,-0.16c-0.05,-0.05 -0.1,-0.08 -0.16,-0.1c-0.06,-0.02 -0.12,-0.03 -0.19,-0.03l-0.48,0c-0.19,0 -0.38,-0.03 -0.56,-0.1c-0.18,-0.07 -0.34,-0.18 -0.47,-0.31c-0.14,-0.14 -0.24,-0.3 -0.31,-0.47c-0.07,-0.18 -0.11,-0.37 -0.1,-0.56v-1.45c0.01,-0.13 -0.04,-0.26 -0.13,-0.36c-0.09,-0.1 -0.22,-0.15 -0.35,-0.15c-0.13,0 -0.26,0.05 -0.35,0.15c-0.09,0.1 -0.14,0.22 -0.13,0.36v1.45c0,0.19 -0.03,0.38 -0.1,0.56c-0.07,0.18 -0.18,0.34 -0.31,0.47c-0.14,0.13 -0.3,0.24 -0.47,0.31c-0.18,0.07 -0.37,0.11 -0.56,0.1v3.37l4.34,0c0.06,0 0.13,-0.01 0.19,-0.03c0.06,-0.02 0.12,-0.06 0.16,-0.1c0.05,-0.05 0.08,-0.1 0.1,-0.16c0.02,-0.06 0.03,-0.12 0.03,-0.19z" />
								</g>
							</g>
							<g id="Group_52">
								<g id="Group_51">
									<path id="Path_29" class="shp8" d="M72.54,50.83c0.06,0 0.13,0 0.19,0.03c0.06,0.02 0.12,0.06 0.16,0.1c0.05,0.05 0.08,0.1 0.11,0.16c0.02,0.06 0.03,0.13 0.03,0.19l0,5.31c0,0.06 -0.01,0.13 -0.03,0.19c-0.02,0.06 -0.06,0.12 -0.1,0.16c-0.05,0.05 -0.1,0.08 -0.16,0.1c-0.06,0.02 -0.12,0.03 -0.19,0.03h-1.93c-0.06,0 -0.13,-0.01 -0.19,-0.03c-0.06,-0.02 -0.12,-0.06 -0.16,-0.1c-0.05,-0.05 -0.08,-0.1 -0.1,-0.16c-0.02,-0.06 -0.03,-0.12 -0.03,-0.19c-0.06,0 -0.13,0.01 -0.19,0.03c-0.06,0.02 -0.12,0.06 -0.16,0.1c-0.05,0.05 -0.08,0.1 -0.1,0.16c-0.02,0.06 -0.03,0.12 -0.03,0.19l0,1.45c0,0.38 -0.15,0.75 -0.42,1.02c-0.27,0.27 -0.64,0.42 -1.02,0.42c-0.38,0 -0.75,-0.15 -1.02,-0.42c-0.27,-0.27 -0.42,-0.64 -0.43,-1.02l0,-1.45c0,-0.06 -0.01,-0.13 -0.03,-0.19c-0.02,-0.06 -0.06,-0.12 -0.1,-0.16c-0.05,-0.05 -0.1,-0.08 -0.16,-0.1c-0.06,-0.02 -0.12,-0.03 -0.19,-0.03h-0.48c-0.19,0 -0.38,-0.03 -0.56,-0.1c-0.18,-0.07 -0.34,-0.18 -0.47,-0.31c-0.14,-0.14 -0.24,-0.3 -0.31,-0.47c-0.07,-0.18 -0.11,-0.37 -0.1,-0.56v-2.41c0,-0.19 0.03,-0.38 0.1,-0.56c0.07,-0.18 0.18,-0.34 0.31,-0.47c0.14,-0.14 0.3,-0.24 0.47,-0.31c0.18,-0.07 0.37,-0.11 0.56,-0.1h4.34c0,-0.06 0.01,-0.13 0.03,-0.19c0.02,-0.06 0.06,-0.12 0.1,-0.16c0.05,-0.05 0.1,-0.08 0.16,-0.1c0.06,-0.02 0.12,-0.03 0.19,-0.03h1.93zM70.13,52.27h-4.34c-0.06,0 -0.13,0.01 -0.19,0.03c-0.06,0.02 -0.12,0.06 -0.16,0.1c-0.05,0.05 -0.08,0.1 -0.1,0.16c-0.02,0.06 -0.03,0.12 -0.03,0.19v2.41c0,0.06 0.01,0.13 0.03,0.19c0.02,0.06 0.06,0.12 0.1,0.16c0.05,0.05 0.1,0.08 0.16,0.1c0.06,0.02 0.12,0.03 0.19,0.03h0.48c0.19,0 0.38,0.03 0.56,0.1c0.18,0.07 0.34,0.18 0.47,0.31c0.14,0.14 0.24,0.3 0.31,0.47c0.07,0.18 0.11,0.37 0.1,0.56l0,1.45c0.01,0.12 0.06,0.24 0.15,0.33c0.09,0.09 0.21,0.13 0.33,0.13c0.12,0 0.24,-0.05 0.33,-0.13c0.09,-0.09 0.14,-0.2 0.15,-0.33v-1.45c0,-0.19 0.03,-0.38 0.1,-0.56c0.07,-0.18 0.18,-0.34 0.31,-0.47c0.14,-0.14 0.3,-0.24 0.47,-0.31c0.18,-0.07 0.37,-0.11 0.56,-0.1zM72.06,51.79h-0.96v4.35h0.96z" />
								</g>
							</g>
							<g id="Group_54">
								<g id="Group_53">
									<path id="Rectangle_2" class="shp9" d="M63.85,59.51h1.93v-0.97h-1.93z" />
								</g>
							</g>
							<g id="Group_56">
								<g id="Group_55">
									<path id="Path_30" class="shp10" d="M59.03,48.41v-0.48h-0.97v0.48h-0.48v0.97h0.48v0.48h0.97v-0.48h0.48v-0.97z" />
								</g>
							</g>
						</g>
					</g>
				</g>
			</g>
		</g>
	</g>
</svg>