<svg xmlns="http://www.w3.org/2000/svg" viewBox="0 0 120 120" width="120" height="120">
	<defs>
		<clipPath clipPathUnits="userSpaceOnUse" id="cp1">
			<path d="M0,120h120v-120h-120z" />
		</clipPath>
		<radialGradient id="grd1" gradientUnits="userSpaceOnUse"  cx="33.118" cy="29.797" r="92.758">
			<stop offset="0.038" stop-color="#d8d9dd"  />
			<stop offset="0.554" stop-color="#edeef0"  />
			<stop offset="1" stop-color="#f7f7f8"  />
		</radialGradient>
		<radialGradient id="grd2" gradientUnits="userSpaceOnUse"  cx="-80.324" cy="-97.342" r="38.388">
			<stop offset="0" stop-color="#828282"  />
			<stop offset="0.301" stop-color="#838384" stop-opacity="0.98" />
			<stop offset="0.469" stop-color="#8a8a8a" stop-opacity="0.92" />
			<stop offset="0.604" stop-color="#959696" stop-opacity="0.81" />
			<stop offset="0.721" stop-color="#a6a6a7" stop-opacity="0.66" />
			<stop offset="0.828" stop-color="#bbbbbc" stop-opacity="0.47" />
			<stop offset="0.924" stop-color="#d4d5d6" stop-opacity="0.23" />
			<stop offset="1" stop-color="#edeef0" stop-opacity="0" />
		</radialGradient>
		<radialGradient id="grd3" gradientUnits="userSpaceOnUse"  cx="39.712" cy="37.314" r="70.796">
			<stop offset="0" stop-color="#f7f7f8"  />
			<stop offset="0.505" stop-color="#fafafb"  />
			<stop offset="0.715" stop-color="#ffffff"  />
		</radialGradient>
		<clipPath clipPathUnits="userSpaceOnUse" id="cp2">
			<path d="M48,74h28v-28h-28z" />
		</clipPath>
		<linearGradient id="grd4" gradientUnits="userSpaceOnUse"  x1="59.594" y1="46" x2="59.594" y2="74">
			<stop offset="0" stop-color="#1959a1"  />
			<stop offset="0.574" stop-color="#2c817f"  />
			<stop offset="1" stop-color="#56db31"  />
		</linearGradient>
		<linearGradient id="grd5" gradientUnits="userSpaceOnUse"  x1="59.594" y1="48.953" x2="59.594" y2="59.016">
			<stop offset="0" stop-color="#1959a1"  />
			<stop offset="0.574" stop-color="#2c817f"  />
			<stop offset="1" stop-color="#56db31"  />
		</linearGradient>
		<linearGradient id="grd6" gradientUnits="userSpaceOnUse"  x1="61.07" y1="69.954" x2="61.07" y2="71.048">
			<stop offset="0" stop-color="#1959a1"  />
			<stop offset="0.574" stop-color="#2c817f"  />
			<stop offset="1" stop-color="#56db31"  />
		</linearGradient>
		<linearGradient id="grd7" gradientUnits="userSpaceOnUse"  x1="58.663" y1="66.892" x2="58.663" y2="67.986">
			<stop offset="0" stop-color="#1959a1"  />
			<stop offset="0.574" stop-color="#2c817f"  />
			<stop offset="1" stop-color="#56db31"  />
		</linearGradient>
		<linearGradient id="grd8" gradientUnits="userSpaceOnUse"  x1="58.663" y1="63.829" x2="58.663" y2="64.923">
			<stop offset="0" stop-color="#1959a1"  />
			<stop offset="0.574" stop-color="#2c817f"  />
			<stop offset="1" stop-color="#56db31"  />
		</linearGradient>
		<linearGradient id="grd9" gradientUnits="userSpaceOnUse"  x1="52.446" y1="60.766" x2="52.446" y2="61.858">
			<stop offset="0" stop-color="#1959a1"  />
			<stop offset="0.574" stop-color="#2c817f"  />
			<stop offset="1" stop-color="#56db31"  />
		</linearGradient>
		<linearGradient id="grd10" gradientUnits="userSpaceOnUse"  x1="52.446" y1="63.829" x2="52.446" y2="64.921">
			<stop offset="0" stop-color="#1959a1"  />
			<stop offset="0.574" stop-color="#2c817f"  />
			<stop offset="1" stop-color="#56db31"  />
		</linearGradient>
		<linearGradient id="grd11" gradientUnits="userSpaceOnUse"  x1="52.446" y1="66.891" x2="52.446" y2="67.983">
			<stop offset="0" stop-color="#1959a1"  />
			<stop offset="0.574" stop-color="#2c817f"  />
			<stop offset="1" stop-color="#56db31"  />
		</linearGradient>
		<linearGradient id="grd12" gradientUnits="userSpaceOnUse"  x1="58.663" y1="60.767" x2="58.663" y2="61.861">
			<stop offset="0" stop-color="#1959a1"  />
			<stop offset="0.574" stop-color="#2c817f"  />
			<stop offset="1" stop-color="#56db31"  />
		</linearGradient>
		<linearGradient id="grd13" gradientUnits="userSpaceOnUse"  x1="70.134" y1="52.819" x2="70.134" y2="71.044">
			<stop offset="0" stop-color="#1959a1"  />
			<stop offset="0.574" stop-color="#2c817f"  />
			<stop offset="1" stop-color="#56db31"  />
		</linearGradient>
	</defs>
	<style>
		tspan { white-space:pre }
		.shp0 { fill: #ffffff } 
		.shp1 { fill: url(#grd1) } 
		.shp2 { fill: url(#grd2) } 
		.shp3 { fill: url(#grd3) } 
		.shp4 { fill: #edeef0 } 
		.shp5 { fill: #dfe0e3 } 
		.shp6 { fill: url(#grd4) } 
		.shp7 { fill: url(#grd5) } 
		.shp8 { fill: url(#grd6) } 
		.shp9 { fill: url(#grd7) } 
		.shp10 { fill: url(#grd8) } 
		.shp11 { fill: url(#grd9) } 
		.shp12 { fill: url(#grd10) } 
		.shp13 { fill: url(#grd11) } 
		.shp14 { fill: url(#grd12) } 
		.shp15 { fill: url(#grd13) } 
	</style>
	<g id="Clip-Path: Artboard_7" clip-path="url(#cp1)">
		<g id="Artboard_7">
			<g id="Group_24488">
				<g id="Layer">
					<path id="Rectangle_3523-2" class="shp0" d="M20,60v0c0,22.12 17.88,40 40,40v0c22.12,0 40,-17.88 40,-40v0c0,-22.12 -17.88,-40 -40,-40v0c-22.12,0 -40,17.88 -40,40z" />
				</g>
				<g id="Group_24476">
					<path id="Path_35878" class="shp1" d="M91.67,59.55c-0.01,-14.08 -9.21,-26.51 -22.68,-30.63c-13.47,-4.12 -28.05,1.03 -35.94,12.7c-7.89,11.67 -7.24,27.12 1.6,38.08c8.84,10.96 23.8,14.87 36.88,9.63c2.96,-1.18 5.73,-2.79 8.21,-4.79c2.48,-2 4.65,-4.36 6.44,-7c1.79,-2.64 3.17,-5.53 4.09,-8.58c0.93,-3.05 1.4,-6.22 1.39,-9.41z" />
					<path id="Path_35879" class="shp2" d="M42,76.57l14.94,14.94c0.88,0.07 1.77,0.11 2.67,0.11c4.21,0 8.38,-0.83 12.27,-2.44c3.89,-1.61 7.42,-3.97 10.4,-6.95c2.98,-2.98 5.34,-6.51 6.95,-10.4c1.61,-3.89 2.44,-8.06 2.44,-12.27c0,-0.51 -0.01,-1.01 -0.04,-1.52l-10.88,-10.88z" />
					<g id="Group_24473">
						<path id="Path_35880" class="shp0" d="M82.32,50.29c-1.23,-2.97 -3.03,-5.67 -5.31,-7.94c-2.27,-2.27 -4.97,-4.08 -7.94,-5.31c-2.97,-1.23 -6.15,-1.87 -9.37,-1.87c-9.9,0 -18.83,5.96 -22.62,15.11c-3.79,9.15 -1.7,19.67 5.3,26.68c7,7 17.53,9.1 26.67,5.31c9.15,-3.79 15.11,-12.71 15.12,-22.61c0,-3.22 -0.63,-6.4 -1.86,-9.37z" />
					</g>
					<path id="Path_35881" class="shp3" d="M84.07,59.55c-0.05,-11.63 -8.3,-21.6 -19.71,-23.84c-11.41,-2.23 -22.81,3.9 -27.24,14.65c-4.43,10.75 -0.65,23.13 9.02,29.58c9.67,6.45 22.56,5.17 30.78,-3.05c1.13,-1.14 2.15,-2.38 3.04,-3.72c0.89,-1.34 1.65,-2.76 2.26,-4.24c0.61,-1.48 1.08,-3.03 1.38,-4.6c0.31,-1.58 0.46,-3.18 0.46,-4.78z" />
					<g id="Group_24474">
						<path id="Path_35882" class="shp4" d="M81.71,48.92c2.46,5.52 2.79,11.76 0.92,17.51c-1.87,5.75 -5.79,10.61 -11.03,13.64c-5.23,3.03 -11.4,4.01 -17.32,2.77c-5.92,-1.25 -11.16,-4.64 -14.72,-9.52c3.46,5.12 8.73,8.73 14.75,10.11c6.02,1.38 12.34,0.43 17.69,-2.66c5.35,-3.09 9.32,-8.1 11.12,-14.01c1.8,-5.91 1.3,-12.28 -1.42,-17.83z" />
					</g>
					<g id="Group_24475">
						<path id="Path_35883" class="shp4" d="M60.02,21.69c18.28,-0.01 34.02,12.9 37.59,30.83c3.57,17.93 -6.02,35.89 -22.91,42.88c-16.89,7 -36.37,1.09 -46.53,-14.11c-10.16,-15.2 -8.16,-35.46 4.76,-48.39c1.77,-1.77 3.72,-3.37 5.8,-4.76c2.09,-1.39 4.3,-2.58 6.62,-3.54c2.32,-0.96 4.72,-1.69 7.19,-2.18c2.46,-0.49 4.96,-0.74 7.47,-0.74zM23.05,44.68c-6.2,14.95 -2.78,32.15 8.66,43.6c11.44,11.44 28.64,14.87 43.59,8.68c14.95,-6.19 24.7,-20.78 24.7,-36.96c0,-5.25 -1.03,-10.45 -3.04,-15.3c-2.01,-4.85 -4.95,-9.26 -8.67,-12.98c-3.71,-3.71 -8.12,-6.66 -12.97,-8.67c-4.85,-2.01 -10.05,-3.05 -15.3,-3.05c-16.18,-0.01 -30.77,9.73 -36.97,24.68z" />
						<path id="Path_35884" class="shp5" d="M20,59.88h1.47c-0.01,-5.05 0.98,-10.04 2.91,-14.7c1.93,-4.66 4.76,-8.9 8.32,-12.47c3.57,-3.57 7.8,-6.4 12.46,-8.33c4.66,-1.93 9.66,-2.92 14.7,-2.91l0,-1.47c-5.24,-0.01 -10.43,1.02 -15.27,3.03c-4.84,2 -9.24,4.94 -12.94,8.65c-3.7,3.7 -6.64,8.1 -8.64,12.94c-2,4.84 -3.03,10.03 -3.02,15.27z" />
					</g>
					<path id="Path_35885" class="shp5" d="M59.7,20v1.47c5.09,-0.04 10.14,0.93 14.85,2.86c4.71,1.93 8.99,4.78 12.59,8.38c3.6,3.6 6.45,7.88 8.37,12.59c1.93,4.71 2.9,9.76 2.85,14.85h1.47c0.04,-5.28 -0.96,-10.52 -2.97,-15.41c-2,-4.89 -4.96,-9.33 -8.69,-13.07c-3.74,-3.74 -8.18,-6.69 -13.07,-8.7c-4.89,-2 -10.13,-3.01 -15.41,-2.97z" />
				</g>
				<g id="Clip-Path: starting_line_up" clip-path="url(#cp2)">
					<g id="starting_line_up">
						<g id="resume">
							<g id="Group_180">
								<g id="Group_179">
									<path id="Path_81" class="shp6" d="M70.64,54.14c0.07,0 0.14,-0.01 0.21,-0.04c0.07,-0.03 0.13,-0.07 0.18,-0.12c0.05,-0.05 0.09,-0.11 0.12,-0.18c0.03,-0.07 0.04,-0.14 0.04,-0.21v-5.95c0,-0.22 -0.04,-0.43 -0.13,-0.63c-0.08,-0.2 -0.2,-0.38 -0.36,-0.53c-0.15,-0.15 -0.33,-0.27 -0.53,-0.36c-0.2,-0.08 -0.41,-0.13 -0.63,-0.13h-19.91c-0.22,0 -0.43,0.04 -0.63,0.13c-0.2,0.08 -0.38,0.2 -0.53,0.36c-0.15,0.15 -0.27,0.33 -0.36,0.53c-0.08,0.2 -0.13,0.41 -0.13,0.63v24.72c0,0.22 0.04,0.43 0.13,0.63c0.08,0.2 0.2,0.38 0.36,0.53c0.15,0.15 0.33,0.27 0.53,0.36c0.2,0.08 0.41,0.13 0.63,0.13h19.91c0.22,0 0.43,-0.04 0.63,-0.13c0.2,-0.08 0.38,-0.2 0.53,-0.36c0.15,-0.15 0.27,-0.33 0.36,-0.53c0.08,-0.2 0.13,-0.41 0.13,-0.63v-4.03c0,-0.15 -0.06,-0.28 -0.16,-0.39c-0.1,-0.1 -0.24,-0.16 -0.39,-0.16c-0.15,0 -0.28,0.06 -0.39,0.16c-0.1,0.1 -0.16,0.24 -0.16,0.39v4.03c0,0.07 -0.01,0.14 -0.04,0.21c-0.03,0.07 -0.07,0.13 -0.12,0.18c-0.05,0.05 -0.11,0.09 -0.18,0.12c-0.07,0.03 -0.14,0.04 -0.21,0.04h-19.91c-0.07,0 -0.14,-0.01 -0.21,-0.04c-0.07,-0.03 -0.13,-0.07 -0.18,-0.12c-0.05,-0.05 -0.09,-0.11 -0.12,-0.18c-0.03,-0.07 -0.04,-0.14 -0.04,-0.21v-24.72c0,-0.07 0.01,-0.14 0.04,-0.21c0.03,-0.07 0.07,-0.13 0.12,-0.18c0.05,-0.05 0.11,-0.09 0.18,-0.12c0.07,-0.03 0.14,-0.04 0.21,-0.04h19.91c0.07,0 0.14,0.01 0.21,0.04c0.07,0.03 0.13,0.07 0.18,0.12c0.05,0.05 0.09,0.11 0.12,0.18c0.03,0.07 0.04,0.14 0.04,0.21l0,5.95c0,0.07 0.01,0.14 0.04,0.21c0.03,0.07 0.07,0.13 0.12,0.18c0.05,0.05 0.11,0.09 0.18,0.12c0.07,0.03 0.14,0.04 0.21,0.04z" />
								</g>
							</g>
							<g id="Group_182">
								<g id="Group_181">
									<path id="Path_82" class="shp7" d="M62.42,49.82c0.83,0.57 1.48,1.37 1.85,2.3c0.37,0.94 0.45,1.96 0.24,2.95c-0.22,0.98 -0.73,1.88 -1.46,2.57c0,0 -0.01,0.01 -0.01,0.01c0,0 -0.01,0.01 -0.01,0.01c0,0 -0.01,0.01 -0.02,0.01c-0.01,0 -0.01,0.01 -0.02,0.01c-0.46,0.42 -0.99,0.75 -1.57,0.98c-0.58,0.23 -1.2,0.34 -1.82,0.34c-0.62,0 -1.24,-0.12 -1.82,-0.34c-0.58,-0.23 -1.11,-0.56 -1.57,-0.98c-0.01,0 -0.01,-0.01 -0.02,-0.01c-0.01,0 -0.01,-0.01 -0.02,-0.01c0,0 -0.01,-0.01 -0.01,-0.01c0,0 -0.01,-0.01 -0.01,-0.01c-0.73,-0.69 -1.24,-1.59 -1.46,-2.57c-0.22,-0.98 -0.14,-2.01 0.24,-2.95c0.37,-0.94 1.02,-1.74 1.85,-2.3c0.83,-0.57 1.82,-0.87 2.83,-0.87c1.01,0 1.99,0.3 2.83,0.87zM59.59,57.92c0.21,0 0.43,-0.02 0.64,-0.05c0.21,-0.03 0.42,-0.09 0.62,-0.15c0.2,-0.07 0.4,-0.15 0.59,-0.25c0.19,-0.1 0.37,-0.21 0.54,-0.34c-0.24,-0.42 -0.58,-0.77 -1,-1.01c-0.42,-0.24 -0.89,-0.37 -1.38,-0.37c-0.48,0 -0.96,0.13 -1.38,0.37c-0.42,0.24 -0.76,0.59 -1,1.01c0.17,0.13 0.35,0.24 0.54,0.34c0.19,0.1 0.38,0.18 0.59,0.25c0.2,0.07 0.41,0.12 0.62,0.15c0.21,0.03 0.42,0.05 0.64,0.05zM62.76,56.32c0,0 0,0 0,0c0,0 0,0 0,0zM62.76,56.32c0.88,-1.2 1.02,-2.79 0.35,-4.11c-0.67,-1.33 -2.03,-2.16 -3.52,-2.16c-1.49,0 -2.85,0.84 -3.52,2.16c-0.67,1.33 -0.54,2.92 0.35,4.11c0.1,-0.15 0.21,-0.29 0.33,-0.42c0.12,-0.13 0.25,-0.26 0.38,-0.37c0.14,-0.11 0.28,-0.22 0.43,-0.31c0.15,-0.09 0.31,-0.18 0.47,-0.25c-0.07,-0.09 -0.12,-0.18 -0.18,-0.27c-0.05,-0.09 -0.09,-0.19 -0.13,-0.3c-0.03,-0.1 -0.06,-0.21 -0.08,-0.31c-0.02,-0.11 -0.03,-0.21 -0.03,-0.32v-0.35c0,-0.52 0.21,-1.02 0.58,-1.39c0.37,-0.37 0.87,-0.58 1.39,-0.58c0.52,0 1.02,0.21 1.39,0.58c0.37,0.37 0.58,0.87 0.58,1.39v0.35c0,0.11 -0.01,0.22 -0.03,0.32c-0.02,0.11 -0.04,0.21 -0.08,0.31c-0.03,0.1 -0.08,0.2 -0.13,0.3c-0.05,0.09 -0.11,0.19 -0.18,0.27c0.16,0.07 0.32,0.16 0.47,0.25c0.15,0.09 0.29,0.2 0.43,0.31c0.14,0.11 0.26,0.24 0.38,0.37c0.12,0.13 0.23,0.27 0.33,0.42zM58.98,54.38c0.16,0.16 0.39,0.26 0.62,0.26c0.23,0 0.45,-0.09 0.62,-0.26c0.16,-0.16 0.26,-0.39 0.26,-0.62v-0.35c0,-0.23 -0.09,-0.45 -0.26,-0.62c-0.16,-0.16 -0.39,-0.26 -0.62,-0.26c-0.23,0 -0.45,0.09 -0.62,0.26c-0.16,0.16 -0.26,0.39 -0.26,0.62v0.35c0,0.23 0.09,0.45 0.26,0.62z" />
								</g>
							</g>
							<g id="Group_184">
								<g id="Group_183">
									<path id="Path_83" class="shp8" d="M62.55,69.95h-2.95c-0.15,0 -0.28,0.06 -0.39,0.16c-0.1,0.1 -0.16,0.24 -0.16,0.39c0,0.15 0.06,0.28 0.16,0.39c0.1,0.1 0.24,0.16 0.39,0.16l2.95,0c0.15,0 0.28,-0.06 0.39,-0.16c0.1,-0.1 0.16,-0.24 0.16,-0.39c0,-0.15 -0.06,-0.28 -0.16,-0.39c-0.1,-0.1 -0.24,-0.16 -0.39,-0.16z" />
								</g>
							</g>
							<g id="Group_186">
								<g id="Group_185">
									<path id="Path_84" class="shp9" d="M62.55,66.89h-7.76c-0.15,0 -0.28,0.06 -0.39,0.16c-0.1,0.1 -0.16,0.24 -0.16,0.39c0,0.15 0.06,0.28 0.16,0.39c0.1,0.1 0.24,0.16 0.39,0.16l7.76,0c0.15,0 0.28,-0.06 0.39,-0.16c0.1,-0.1 0.16,-0.24 0.16,-0.39c0,-0.15 -0.06,-0.28 -0.16,-0.39c-0.1,-0.1 -0.24,-0.16 -0.39,-0.16z" />
								</g>
							</g>
							<g id="Group_188">
								<g id="Group_187">
									<path id="Path_85" class="shp10" d="M62.55,63.83h-7.76c-0.15,0 -0.28,0.06 -0.39,0.16c-0.1,0.1 -0.16,0.24 -0.16,0.39c0,0.15 0.06,0.28 0.16,0.39c0.1,0.1 0.24,0.16 0.39,0.16l7.76,0c0.15,0 0.28,-0.06 0.39,-0.16c0.1,-0.1 0.16,-0.24 0.16,-0.39c0,-0.15 -0.06,-0.28 -0.16,-0.39c-0.1,-0.1 -0.24,-0.16 -0.39,-0.16z" />
								</g>
							</g>
							<g id="Group_190">
								<g id="Group_189">
									<path id="Path_86" class="shp11" d="M52.83,60.93c-0.18,-0.18 -0.47,-0.21 -0.69,-0.07c-0.22,0.14 -0.3,0.42 -0.2,0.66c0.1,0.24 0.36,0.38 0.61,0.33c0.26,-0.05 0.44,-0.27 0.44,-0.53c0,-0.04 0,-0.07 -0.01,-0.11c-0.01,-0.04 -0.02,-0.07 -0.03,-0.1c-0.01,-0.03 -0.03,-0.06 -0.05,-0.09c-0.02,-0.03 -0.04,-0.06 -0.07,-0.08z" />
								</g>
							</g>
							<g id="Group_192">
								<g id="Group_191">
									<path id="Path_87" class="shp12" d="M52.83,63.99c-0.18,-0.18 -0.47,-0.21 -0.69,-0.07c-0.22,0.14 -0.3,0.42 -0.2,0.66c0.1,0.24 0.36,0.38 0.61,0.33c0.26,-0.05 0.44,-0.27 0.44,-0.53c0,-0.04 0,-0.07 -0.01,-0.11c-0.01,-0.04 -0.02,-0.07 -0.03,-0.1c-0.01,-0.03 -0.03,-0.06 -0.05,-0.09c-0.02,-0.03 -0.04,-0.06 -0.07,-0.08z" />
								</g>
							</g>
							<g id="Group_194">
								<g id="Group_193">
									<path id="Path_88" class="shp13" d="M52.83,67.05c-0.18,-0.18 -0.47,-0.21 -0.69,-0.07c-0.22,0.14 -0.3,0.42 -0.2,0.66c0.1,0.24 0.36,0.38 0.61,0.33c0.26,-0.05 0.44,-0.27 0.44,-0.53c0,-0.04 0,-0.07 -0.01,-0.11c-0.01,-0.04 -0.02,-0.07 -0.03,-0.1c-0.01,-0.03 -0.03,-0.06 -0.05,-0.09c-0.02,-0.03 -0.04,-0.06 -0.07,-0.08z" />
								</g>
							</g>
							<g id="Group_196">
								<g id="Group_195">
									<path id="Path_89" class="shp14" d="M62.55,60.77h-7.76c-0.15,0 -0.28,0.06 -0.39,0.16c-0.1,0.1 -0.16,0.24 -0.16,0.39c0,0.15 0.06,0.28 0.16,0.39c0.1,0.1 0.24,0.16 0.39,0.16l7.76,0c0.15,0 0.28,-0.06 0.39,-0.16c0.1,-0.1 0.16,-0.24 0.16,-0.39c0,-0.15 -0.06,-0.28 -0.16,-0.39c-0.1,-0.1 -0.24,-0.16 -0.39,-0.16z" />
								</g>
							</g>
							<g id="Group_198">
								<g id="Group_197">
									<path id="Path_90" class="shp15" d="M75.52,53.72c0.18,0.24 0.32,0.51 0.4,0.8c0.08,0.29 0.1,0.59 0.06,0.89c-0.04,0.3 -0.14,0.59 -0.29,0.85l-6.88,11.92c-0.01,0.02 -0.02,0.03 -0.03,0.05c-0.01,0.02 -0.02,0.03 -0.04,0.04c-0.01,0.01 -0.03,0.03 -0.04,0.04c-0.01,0.01 -0.03,0.02 -0.04,0.04l-3.52,2.59c-0.09,0.06 -0.19,0.1 -0.29,0.11c-0.11,0.01 -0.21,-0.02 -0.3,-0.07c-0.09,-0.05 -0.17,-0.13 -0.21,-0.23c-0.05,-0.09 -0.07,-0.2 -0.06,-0.31l0.48,-4.34c0,-0.02 0.01,-0.04 0.01,-0.06c0,-0.02 0.01,-0.04 0.01,-0.05c0.01,-0.02 0.01,-0.04 0.02,-0.05c0.01,-0.02 0.02,-0.03 0.03,-0.05l6.88,-11.92c0.15,-0.26 0.35,-0.49 0.59,-0.67c0.24,-0.18 0.51,-0.32 0.8,-0.4c0.29,-0.08 0.6,-0.1 0.89,-0.06c0.3,0.04 0.59,0.14 0.85,0.29c0.26,0.15 0.49,0.35 0.67,0.59zM67.34,67.97l-1.58,-0.91l-0.25,2.27zM73.66,57.6l-2.08,-1.2l-5.52,9.56l2.08,1.2zM74.74,55.72c0.16,-0.28 0.2,-0.6 0.12,-0.91c-0.08,-0.31 -0.28,-0.57 -0.56,-0.73c-0.28,-0.16 -0.6,-0.2 -0.91,-0.12c-0.31,0.08 -0.57,0.28 -0.73,0.56l-0.54,0.93l2.08,1.2l0.54,-0.93z" />
								</g>
							</g>
						</g>
					</g>
				</g>
			</g>
		</g>
	</g>
</svg>