<svg xmlns="http://www.w3.org/2000/svg" viewBox="0 0 120 120" width="120" height="120">
	<defs>
		<clipPath clipPathUnits="userSpaceOnUse" id="cp1">
			<path d="M0,120h120v-120h-120z" />
		</clipPath>
		<radialGradient id="grd1" gradientUnits="userSpaceOnUse"  cx="33.121" cy="29.721" r="92.758">
			<stop offset="0.038" stop-color="#d8d9dd"  />
			<stop offset="0.554" stop-color="#edeef0"  />
			<stop offset="1" stop-color="#f7f7f8"  />
		</radialGradient>
		<radialGradient id="grd2" gradientUnits="userSpaceOnUse"  cx="-55.088" cy="-69.397" r="38.388">
			<stop offset="0" stop-color="#828282"  />
			<stop offset="0.301" stop-color="#838384" stop-opacity="0.98" />
			<stop offset="0.469" stop-color="#8a8a8a" stop-opacity="0.92" />
			<stop offset="0.604" stop-color="#959696" stop-opacity="0.81" />
			<stop offset="0.721" stop-color="#a6a6a7" stop-opacity="0.66" />
			<stop offset="0.828" stop-color="#bbbbbc" stop-opacity="0.47" />
			<stop offset="0.924" stop-color="#d4d5d6" stop-opacity="0.23" />
			<stop offset="1" stop-color="#edeef0" stop-opacity="0" />
		</radialGradient>
		<radialGradient id="grd3" gradientUnits="userSpaceOnUse"  cx="39.621" cy="37.128" r="70.796">
			<stop offset="0" stop-color="#f7f7f8"  />
			<stop offset="0.505" stop-color="#fafafb"  />
			<stop offset="0.715" stop-color="#ffffff"  />
		</radialGradient>
		<clipPath clipPathUnits="userSpaceOnUse" id="cp2">
			<path d="M46,75h29v-29h-29z" />
		</clipPath>
		<linearGradient id="grd4" gradientUnits="userSpaceOnUse"  x1="58.971" y1="66.049" x2="58.971" y2="67.181">
			<stop offset="0" stop-color="#1959a1"  />
			<stop offset="0.574" stop-color="#2c817f"  />
			<stop offset="1" stop-color="#56db31"  />
		</linearGradient>
		<linearGradient id="grd5" gradientUnits="userSpaceOnUse"  x1="58.971" y1="49.058" x2="58.971" y2="75">
			<stop offset="0" stop-color="#1959a1"  />
			<stop offset="0.574" stop-color="#2c817f"  />
			<stop offset="1" stop-color="#56db31"  />
		</linearGradient>
		<linearGradient id="grd6" gradientUnits="userSpaceOnUse"  x1="71.376" y1="59.046" x2="71.376" y2="60.178">
			<stop offset="0" stop-color="#1959a1"  />
			<stop offset="0.574" stop-color="#2c817f"  />
			<stop offset="1" stop-color="#56db31"  />
		</linearGradient>
		<linearGradient id="grd7" gradientUnits="userSpaceOnUse"  x1="69.252" y1="48.662" x2="69.252" y2="49.795">
			<stop offset="0" stop-color="#1959a1"  />
			<stop offset="0.574" stop-color="#2c817f"  />
			<stop offset="1" stop-color="#56db31"  />
		</linearGradient>
		<linearGradient id="grd8" gradientUnits="userSpaceOnUse"  x1="64.806" y1="48.662" x2="64.806" y2="49.794">
			<stop offset="0" stop-color="#1959a1"  />
			<stop offset="0.574" stop-color="#2c817f"  />
			<stop offset="1" stop-color="#56db31"  />
		</linearGradient>
		<linearGradient id="grd9" gradientUnits="userSpaceOnUse"  x1="68.092" y1="51.154" x2="68.092" y2="52.287">
			<stop offset="0" stop-color="#1959a1"  />
			<stop offset="0.574" stop-color="#2c817f"  />
			<stop offset="1" stop-color="#56db31"  />
		</linearGradient>
		<linearGradient id="grd10" gradientUnits="userSpaceOnUse"  x1="68.092" y1="53.647" x2="68.092" y2="54.78">
			<stop offset="0" stop-color="#1959a1"  />
			<stop offset="0.574" stop-color="#2c817f"  />
			<stop offset="1" stop-color="#56db31"  />
		</linearGradient>
		<linearGradient id="grd11" gradientUnits="userSpaceOnUse"  x1="68.091" y1="46" x2="68.091" y2="59.743">
			<stop offset="0" stop-color="#1959a1"  />
			<stop offset="0.574" stop-color="#2c817f"  />
			<stop offset="1" stop-color="#56db31"  />
		</linearGradient>
	</defs>
	<style>
		tspan { white-space:pre }
		.shp0 { fill: #ffffff } 
		.shp1 { fill: url(#grd1) } 
		.shp2 { fill: url(#grd2) } 
		.shp3 { fill: url(#grd3) } 
		.shp4 { fill: #edeef0 } 
		.shp5 { fill: #dfe0e3 } 
		.shp6 { fill: url(#grd4) } 
		.shp7 { fill: url(#grd5) } 
		.shp8 { fill: url(#grd6) } 
		.shp9 { fill: url(#grd7) } 
		.shp10 { fill: url(#grd8) } 
		.shp11 { fill: url(#grd9) } 
		.shp12 { fill: url(#grd10) } 
		.shp13 { fill: url(#grd11) } 
	</style>
	<g id="Clip-Path: Artboard_5" clip-path="url(#cp1)">
		<g id="Artboard_5">
			<g id="Group_24490">
				<g id="Layer">
					<path id="Rectangle_3523-2" class="shp0" d="M20,60v0c0,22.12 17.88,40 40,40v0c22.12,0 40,-17.88 40,-40v0c0,-22.12 -17.88,-40 -40,-40v0c-22.12,0 -40,17.88 -40,40z" />
				</g>
				<g id="Group_24476">
					<path id="Path_35878" class="shp1" d="M91.67,59.55c-0.01,-14.08 -9.21,-26.51 -22.68,-30.63c-13.47,-4.12 -28.05,1.03 -35.94,12.7c-7.89,11.67 -7.24,27.12 1.6,38.08c8.84,10.96 23.8,14.87 36.88,9.63c2.96,-1.18 5.73,-2.79 8.21,-4.79c2.48,-2 4.65,-4.36 6.44,-7c1.79,-2.64 3.17,-5.53 4.09,-8.58c0.93,-3.05 1.4,-6.22 1.39,-9.41z" />
					<path id="Path_35879" class="shp2" d="M42,76.57l14.94,14.94c0.88,0.07 1.77,0.11 2.67,0.11c4.21,0 8.38,-0.83 12.27,-2.44c3.89,-1.61 7.42,-3.97 10.4,-6.95c2.98,-2.98 5.34,-6.51 6.95,-10.4c1.61,-3.89 2.44,-8.06 2.44,-12.27c0,-0.51 -0.01,-1.01 -0.04,-1.52l-10.88,-10.88z" />
					<g id="Group_24473">
						<path id="Path_35880" class="shp0" d="M82.32,50.29c-1.23,-2.97 -3.03,-5.67 -5.31,-7.94c-2.27,-2.27 -4.97,-4.08 -7.94,-5.31c-2.97,-1.23 -6.15,-1.87 -9.37,-1.87c-9.9,0 -18.83,5.96 -22.62,15.11c-3.79,9.15 -1.7,19.67 5.3,26.68c7,7 17.53,9.1 26.67,5.31c9.15,-3.79 15.11,-12.71 15.12,-22.61c0,-3.22 -0.63,-6.4 -1.86,-9.37z" />
					</g>
					<path id="Path_35881" class="shp3" d="M84.07,59.55c-0.05,-11.63 -8.3,-21.6 -19.71,-23.84c-11.41,-2.23 -22.81,3.9 -27.24,14.65c-4.43,10.75 -0.65,23.13 9.02,29.58c9.67,6.45 22.56,5.17 30.78,-3.05c1.13,-1.14 2.15,-2.38 3.04,-3.72c0.89,-1.34 1.65,-2.76 2.26,-4.24c0.61,-1.48 1.08,-3.03 1.38,-4.6c0.31,-1.58 0.46,-3.18 0.46,-4.78z" />
					<g id="Group_24474">
						<path id="Path_35882" class="shp4" d="M81.71,48.92c2.46,5.52 2.79,11.76 0.92,17.51c-1.87,5.75 -5.79,10.61 -11.03,13.64c-5.23,3.03 -11.4,4.01 -17.32,2.77c-5.92,-1.25 -11.16,-4.64 -14.72,-9.52c3.46,5.12 8.73,8.73 14.75,10.11c6.02,1.38 12.34,0.43 17.69,-2.66c5.35,-3.09 9.32,-8.1 11.12,-14.01c1.8,-5.91 1.3,-12.28 -1.42,-17.83z" />
					</g>
					<g id="Group_24475">
						<path id="Path_35883" class="shp4" d="M60.02,21.69c18.28,-0.01 34.02,12.9 37.59,30.83c3.57,17.93 -6.02,35.89 -22.91,42.88c-16.89,7 -36.37,1.09 -46.53,-14.11c-10.16,-15.2 -8.16,-35.46 4.76,-48.39c1.77,-1.77 3.72,-3.37 5.8,-4.76c2.09,-1.39 4.3,-2.58 6.62,-3.54c2.32,-0.96 4.72,-1.69 7.19,-2.18c2.46,-0.49 4.96,-0.74 7.47,-0.74zM23.05,44.68c-6.2,14.95 -2.78,32.15 8.66,43.6c11.44,11.44 28.64,14.87 43.59,8.68c14.95,-6.19 24.7,-20.78 24.7,-36.96c0,-5.25 -1.03,-10.45 -3.04,-15.3c-2.01,-4.85 -4.95,-9.26 -8.67,-12.98c-3.71,-3.71 -8.12,-6.66 -12.97,-8.67c-4.85,-2.01 -10.05,-3.05 -15.3,-3.05c-16.18,-0.01 -30.77,9.73 -36.97,24.68z" />
						<path id="Path_35884" class="shp5" d="M20,59.88h1.47c-0.01,-5.05 0.98,-10.04 2.91,-14.7c1.93,-4.66 4.76,-8.9 8.32,-12.47c3.57,-3.57 7.8,-6.4 12.46,-8.33c4.66,-1.93 9.66,-2.92 14.7,-2.91l0,-1.47c-5.24,-0.01 -10.43,1.02 -15.27,3.03c-4.84,2 -9.24,4.94 -12.94,8.65c-3.7,3.7 -6.64,8.1 -8.64,12.94c-2,4.84 -3.03,10.03 -3.02,15.27z" />
					</g>
					<path id="Path_35885" class="shp5" d="M59.7,20v1.47c5.09,-0.04 10.14,0.93 14.85,2.86c4.71,1.93 8.99,4.78 12.59,8.38c3.6,3.6 6.45,7.88 8.37,12.59c1.93,4.71 2.9,9.76 2.85,14.85h1.47c0.04,-5.28 -0.96,-10.52 -2.97,-15.41c-2,-4.89 -4.96,-9.33 -8.69,-13.07c-3.74,-3.74 -8.18,-6.69 -13.07,-8.7c-4.89,-2 -10.13,-3.01 -15.41,-2.97z" />
				</g>
			</g>
			<g id="Clip-Path: live_score" clip-path="url(#cp2)">
				<g id="live_score">
					<g id="video-conference">
						<g id="Group_212">
							<g id="Group_211">
								<path id="Path_99" class="shp6" d="M59.37,66.21c-0.19,-0.19 -0.49,-0.22 -0.71,-0.07c-0.22,0.15 -0.31,0.44 -0.21,0.69c0.1,0.25 0.37,0.39 0.63,0.34c0.26,-0.05 0.46,-0.29 0.46,-0.56c0,-0.04 0,-0.07 -0.01,-0.11c-0.01,-0.04 -0.02,-0.07 -0.03,-0.11c-0.01,-0.03 -0.03,-0.07 -0.05,-0.1c-0.02,-0.03 -0.04,-0.06 -0.07,-0.09z" />
							</g>
						</g>
						<g id="Group_214">
							<g id="Group_213">
								<path id="Path_100" class="shp7" d="M71.38,61.18c0.07,0 0.15,0.02 0.22,0.04c0.07,0.03 0.13,0.07 0.18,0.12c0.05,0.05 0.09,0.11 0.12,0.18c0.03,0.07 0.04,0.14 0.04,0.22v5.68c0,0.21 -0.04,0.41 -0.12,0.6c-0.08,0.19 -0.2,0.36 -0.34,0.51c-0.15,0.15 -0.32,0.26 -0.51,0.34c-0.19,0.08 -0.4,0.12 -0.6,0.12h-8.62l0,2.62c0.35,0.04 0.68,0.13 0.99,0.29c0.31,0.16 0.59,0.37 0.82,0.63c0.23,0.26 0.42,0.56 0.54,0.88c0.13,0.32 0.19,0.67 0.19,1.02c0,0.07 -0.01,0.15 -0.04,0.22c-0.03,0.07 -0.07,0.13 -0.12,0.18c-0.05,0.05 -0.11,0.09 -0.18,0.12c-0.07,0.03 -0.14,0.04 -0.22,0.04h-9.51c-0.07,0 -0.15,-0.01 -0.22,-0.04c-0.07,-0.03 -0.13,-0.07 -0.18,-0.12c-0.05,-0.05 -0.09,-0.11 -0.12,-0.18c-0.03,-0.07 -0.04,-0.14 -0.04,-0.22c0,-0.35 0.06,-0.69 0.19,-1.02c0.13,-0.32 0.31,-0.62 0.54,-0.88c0.23,-0.26 0.51,-0.47 0.82,-0.63c0.31,-0.16 0.65,-0.26 0.99,-0.29v-2.62h-8.62c-0.21,0 -0.41,-0.04 -0.6,-0.12c-0.19,-0.08 -0.36,-0.19 -0.51,-0.34c-0.15,-0.15 -0.26,-0.32 -0.34,-0.51c-0.08,-0.19 -0.12,-0.4 -0.12,-0.6v-16.79c0,-0.21 0.04,-0.41 0.12,-0.6c0.08,-0.19 0.2,-0.36 0.34,-0.51c0.15,-0.15 0.32,-0.26 0.51,-0.34c0.19,-0.08 0.4,-0.12 0.6,-0.12l11.77,0c0.15,0 0.29,0.06 0.4,0.17c0.11,0.11 0.17,0.25 0.17,0.4c0,0.15 -0.06,0.29 -0.17,0.4c-0.11,0.11 -0.25,0.17 -0.4,0.17l-11.77,0c-0.06,0 -0.12,0.01 -0.17,0.03c-0.05,0.02 -0.1,0.05 -0.14,0.1c-0.04,0.04 -0.07,0.09 -0.1,0.14c-0.02,0.05 -0.03,0.11 -0.03,0.17v13.61h1.93v-1.4c0,-0.51 0.09,-1.02 0.27,-1.49c0.18,-0.48 0.45,-0.92 0.78,-1.3c0.34,-0.38 0.74,-0.7 1.19,-0.94c0.45,-0.24 0.94,-0.39 1.45,-0.46c-0.11,-0.13 -0.2,-0.27 -0.28,-0.42c-0.08,-0.15 -0.15,-0.3 -0.21,-0.46c-0.06,-0.16 -0.1,-0.32 -0.13,-0.49c-0.03,-0.17 -0.04,-0.33 -0.04,-0.5v-2.16c0,-0.31 0.06,-0.62 0.18,-0.91c0.12,-0.29 0.3,-0.55 0.52,-0.77c0.22,-0.22 0.49,-0.4 0.78,-0.52c0.29,-0.12 0.6,-0.18 0.91,-0.18h2.97c0.07,0 0.15,0.01 0.22,0.04c0.07,0.03 0.13,0.07 0.18,0.12c0.05,0.05 0.09,0.11 0.12,0.18c0.03,0.07 0.04,0.14 0.04,0.22v3.98c0,0.17 -0.01,0.34 -0.04,0.5c-0.03,0.17 -0.07,0.33 -0.13,0.49c-0.06,0.16 -0.13,0.31 -0.21,0.46c-0.08,0.15 -0.18,0.29 -0.28,0.42c0.51,0.06 1,0.22 1.45,0.46c0.45,0.24 0.86,0.56 1.19,0.94c0.34,0.38 0.6,0.82 0.78,1.3c0.18,0.48 0.27,0.98 0.27,1.49v1.4h9.74v-2.49c0,-0.07 0.01,-0.15 0.04,-0.22c0.03,-0.07 0.07,-0.13 0.12,-0.18c0.05,-0.05 0.11,-0.09 0.18,-0.12c0.07,-0.03 0.14,-0.04 0.22,-0.04zM53.24,55.08h2.84c0.11,0 0.21,-0.02 0.31,-0.06c0.1,-0.04 0.19,-0.1 0.26,-0.18c0.08,-0.08 0.14,-0.17 0.18,-0.26c0.04,-0.1 0.06,-0.2 0.06,-0.31v-0.9l-2.4,0c-0.16,0 -0.33,0.03 -0.48,0.1c-0.15,0.06 -0.29,0.16 -0.41,0.27c-0.12,0.12 -0.21,0.25 -0.27,0.41c-0.06,0.15 -0.1,0.32 -0.1,0.48zM53.24,56.79c0,0.48 0.19,0.95 0.53,1.29c0.34,0.34 0.81,0.53 1.29,0.53c0.48,0 0.95,-0.19 1.29,-0.53c0.34,-0.34 0.53,-0.81 0.53,-1.29v-0.75c-0.06,0.03 -0.13,0.06 -0.2,0.08c-0.07,0.02 -0.13,0.04 -0.2,0.06c-0.07,0.02 -0.14,0.03 -0.21,0.03c-0.07,0.01 -0.14,0.01 -0.21,0.01h-2.84zM54.4,59.75l0.66,0.66l0.66,-0.66zM50.19,64.24h9.74v-1.4c0,-0.37 -0.07,-0.73 -0.2,-1.08c-0.13,-0.34 -0.32,-0.66 -0.56,-0.94c-0.24,-0.28 -0.53,-0.51 -0.85,-0.69c-0.32,-0.18 -0.67,-0.3 -1.04,-0.35l-1.83,1.83c-0.05,0.05 -0.11,0.09 -0.18,0.12c-0.07,0.03 -0.14,0.04 -0.22,0.04c-0.07,0 -0.15,-0.01 -0.22,-0.04c-0.07,-0.03 -0.13,-0.07 -0.18,-0.12l-1.83,-1.83c-0.36,0.05 -0.72,0.17 -1.04,0.35c-0.32,0.18 -0.61,0.41 -0.85,0.69c-0.24,0.28 -0.43,0.6 -0.56,0.94c-0.13,0.34 -0.19,0.71 -0.2,1.08zM63.07,73.87c-0.06,-0.17 -0.14,-0.32 -0.25,-0.46c-0.11,-0.14 -0.23,-0.26 -0.38,-0.36c-0.14,-0.1 -0.3,-0.18 -0.47,-0.23c-0.17,-0.05 -0.34,-0.08 -0.52,-0.08h-4.98c-0.18,0 -0.35,0.03 -0.52,0.08c-0.17,0.05 -0.32,0.13 -0.47,0.23c-0.14,0.1 -0.27,0.22 -0.38,0.36c-0.11,0.14 -0.19,0.29 -0.25,0.46zM60.61,71.6v-2.6h-3.29v2.6zM70.81,65.37h-23.68v2.06c0,0.06 0.01,0.12 0.03,0.17c0.02,0.05 0.05,0.1 0.1,0.14c0.04,0.04 0.09,0.07 0.14,0.1c0.05,0.02 0.11,0.03 0.17,0.03h22.79c0.06,0 0.12,-0.01 0.17,-0.03c0.05,-0.02 0.1,-0.05 0.14,-0.1c0.04,-0.04 0.07,-0.09 0.1,-0.14c0.02,-0.05 0.03,-0.11 0.03,-0.17z" />
							</g>
						</g>
						<g id="Group_216">
							<g id="Group_215">
								<path id="Path_101" class="shp8" d="M71.78,59.21c-0.19,-0.19 -0.49,-0.22 -0.71,-0.07c-0.22,0.15 -0.31,0.44 -0.21,0.69c0.1,0.25 0.37,0.39 0.63,0.34c0.26,-0.05 0.46,-0.29 0.46,-0.56c0,-0.04 0,-0.07 -0.01,-0.11c-0.01,-0.04 -0.02,-0.07 -0.03,-0.11c-0.01,-0.03 -0.03,-0.07 -0.05,-0.1c-0.02,-0.03 -0.04,-0.06 -0.07,-0.09z" />
							</g>
						</g>
						<g id="Group_218">
							<g id="Group_217">
								<path id="Path_102" class="shp9" d="M71.38,48.66h-4.25c-0.15,0 -0.29,0.06 -0.4,0.17c-0.11,0.11 -0.17,0.25 -0.17,0.4c0,0.15 0.06,0.29 0.17,0.4c0.11,0.11 0.25,0.17 0.4,0.17l4.25,0c0.15,0 0.29,-0.06 0.4,-0.17c0.11,-0.11 0.17,-0.25 0.17,-0.4c0,-0.15 -0.06,-0.29 -0.17,-0.4c-0.11,-0.11 -0.25,-0.17 -0.4,-0.17z" />
							</g>
						</g>
						<g id="Group_220">
							<g id="Group_219">
								<path id="Path_103" class="shp10" d="M65.21,48.83c-0.19,-0.19 -0.49,-0.22 -0.71,-0.07c-0.22,0.15 -0.31,0.44 -0.21,0.69c0.1,0.25 0.37,0.39 0.63,0.34c0.26,-0.05 0.46,-0.29 0.46,-0.56c0,-0.04 0,-0.07 -0.01,-0.11c-0.01,-0.04 -0.02,-0.07 -0.03,-0.11c-0.01,-0.03 -0.03,-0.07 -0.05,-0.1c-0.02,-0.03 -0.04,-0.06 -0.07,-0.09z" />
							</g>
						</g>
						<g id="Group_222">
							<g id="Group_221">
								<path id="Path_104" class="shp11" d="M71.38,51.15h-6.57c-0.15,0 -0.29,0.06 -0.4,0.17c-0.11,0.11 -0.17,0.25 -0.17,0.4c0,0.15 0.06,0.29 0.17,0.4c0.11,0.11 0.25,0.17 0.4,0.17l6.57,0c0.15,0 0.29,-0.06 0.4,-0.17c0.11,-0.11 0.17,-0.25 0.17,-0.4c0,-0.15 -0.06,-0.29 -0.17,-0.4c-0.11,-0.11 -0.25,-0.17 -0.4,-0.17z" />
							</g>
						</g>
						<g id="Group_224">
							<g id="Group_223">
								<path id="Path_105" class="shp12" d="M71.38,53.65h-6.57c-0.15,0 -0.29,0.06 -0.4,0.17c-0.11,0.11 -0.17,0.25 -0.17,0.4c0,0.15 0.06,0.29 0.17,0.4c0.11,0.11 0.25,0.17 0.4,0.17l6.57,0c0.15,0 0.29,-0.06 0.4,-0.17c0.11,-0.11 0.17,-0.25 0.17,-0.4c0,-0.15 -0.06,-0.29 -0.17,-0.4c-0.11,-0.11 -0.25,-0.17 -0.4,-0.17z" />
							</g>
						</g>
						<g id="Group_226">
							<g id="Group_225">
								<path id="Path_106" class="shp13" d="M72.17,46c0.37,0 0.74,0.07 1.08,0.22c0.34,0.14 0.66,0.35 0.92,0.61c0.26,0.26 0.47,0.57 0.61,0.92c0.14,0.34 0.22,0.71 0.22,1.08l0,6.06c0,0.37 -0.07,0.74 -0.22,1.08c-0.14,0.34 -0.35,0.66 -0.61,0.92c-0.26,0.26 -0.58,0.47 -0.92,0.61c-0.34,0.14 -0.71,0.22 -1.08,0.22h-5.66l-1.85,1.85c-0.08,0.08 -0.18,0.13 -0.29,0.16c-0.11,0.02 -0.22,0.01 -0.33,-0.03c-0.1,-0.04 -0.19,-0.12 -0.25,-0.21c-0.06,-0.09 -0.1,-0.2 -0.1,-0.31l0,-1.47c-0.34,-0.04 -0.67,-0.14 -0.98,-0.3c-0.31,-0.16 -0.58,-0.37 -0.81,-0.63c-0.23,-0.26 -0.41,-0.55 -0.53,-0.88c-0.12,-0.32 -0.19,-0.66 -0.19,-1.01v-6.06c0,-0.37 0.07,-0.74 0.22,-1.08c0.14,-0.34 0.35,-0.66 0.61,-0.92c0.26,-0.26 0.57,-0.47 0.92,-0.61c0.34,-0.14 0.71,-0.22 1.08,-0.22zM73.87,48.83c0,-0.22 -0.04,-0.44 -0.13,-0.65c-0.09,-0.21 -0.21,-0.39 -0.37,-0.55c-0.16,-0.16 -0.35,-0.28 -0.55,-0.37c-0.21,-0.09 -0.43,-0.13 -0.65,-0.13l-8.16,0c-0.22,0 -0.44,0.04 -0.65,0.13c-0.21,0.09 -0.39,0.21 -0.55,0.37c-0.16,0.16 -0.28,0.35 -0.37,0.55c-0.09,0.21 -0.13,0.43 -0.13,0.65l0,6.06c0,0.22 0.04,0.44 0.13,0.65c0.09,0.21 0.21,0.39 0.37,0.55c0.16,0.16 0.35,0.28 0.55,0.37c0.21,0.09 0.43,0.13 0.65,0.13h0.25c0.07,0 0.15,0.01 0.22,0.04c0.07,0.03 0.13,0.07 0.18,0.12c0.05,0.05 0.09,0.11 0.12,0.18c0.03,0.07 0.04,0.14 0.04,0.22v0.65l1.05,-1.05c0.03,-0.03 0.05,-0.05 0.09,-0.07c0.03,-0.02 0.06,-0.04 0.1,-0.05c0.03,-0.01 0.07,-0.03 0.11,-0.03c0.04,-0.01 0.07,-0.01 0.11,-0.01h5.89c0.22,0 0.44,-0.04 0.65,-0.13c0.21,-0.09 0.39,-0.21 0.55,-0.37c0.16,-0.16 0.28,-0.35 0.37,-0.55c0.09,-0.21 0.13,-0.43 0.13,-0.65z" />
							</g>
						</g>
					</g>
				</g>
			</g>
		</g>
	</g>
</svg>